<?xml version="1.0" encoding="utf-8" ?>
<svg baseProfile="full" height="200mm" version="1.1" viewBox="0,0,200,200" width="200mm" xmlns="http://www.w3.org/2000/svg" xmlns:ev="http://www.w3.org/2001/xml-events" xmlns:xlink="http://www.w3.org/1999/xlink"><defs /><rect fill="#1a1a1a" height="200" width="200" x="0" y="0" /><rect fill="#1a1a1a" height="200" width="180" x="10" y="0" /><text alignment-baseline="middle" fill="#e1ed5e" style="dominant-baseline: central; font-size:9.0px; font-family:Arial;" text-anchor="middle" x="100.0" y="100.0">2023</text><line stroke="#e1ed5e" stroke-width="0.3" x1="100.0" x2="100.0" y1="15.0" y2="10.0" /><path d="M 100.0 14.0 a86.0,86.0 0 0,1 42.46469731375804,11.215312516191453" fill="none" id="id97" stroke="none" /><text fill="#e1ed5e" style="font-size:6.75px; font-family:Arial;" text-anchor="middle"><textPath startOffset="22.20632615414155" xlink:href="#id97">January</textPath></text><path d="M 100.0 79.0 l 0.0 -61.48446924681488 a82.48446924681488,82.48446924681488 0 0,0 1.4198345464704176,0.012220964199234916 l -1.0583540671978893 61.4753596592242" fill="red" stroke="none" /><line stroke="#e1ed5e" stroke-width="0.3" x1="143.23703022742887" x2="145.7803849466894" y1="26.81831364943548" y2="22.513508569990506" /><path d="M 143.74570117128098 25.957352633546492 a86.0,86.0 0 0,1 28.547481713284135,27.462654790039103" fill="none" id="id98" stroke="none" /><text fill="#e1ed5e" style="font-size:6.75px; font-family:Arial;" text-anchor="middle"><textPath startOffset="19.985693538727396" xlink:href="#id98">February</textPath></text><path d="M 113.6212207817346 84.01681056812373 l 16.62346180726029 -19.506029843909936 a46.62859111868904,46.62859111868904 0 0,0 0.6064074949942091,0.5258706040202942 l -16.956763100901266 19.21699424646997" fill="red" stroke="none" /><path d="M 114.16331599549186 84.49514656593476 l 17.077374951286625 -18.694929615533223 a46.32068578369419,46.32068578369419 0 0,0 0.5840644006065876,0.5428242067259398 l -17.396647235688057 18.39820082273264" fill="red" stroke="none" /><path d="M 115.68641384162765 86.03803664274999 l 23.103393087255238 -20.563573737700807 a51.92939276820823,51.92939276820823 0 0,0 0.5885532380140575,0.6728180927646001 l -23.453938188847147 20.16284008873326" fill="red" stroke="none" /><path d="M 115.9244219780498 86.31012108654704 l 18.546145540312274 -15.94371758724545 a45.457343373806665,45.457343373806665 0 0,0 0.5049864641990864,0.5977446926815878 l -18.81784261799848 15.622113944934755" fill="red" stroke="none" /><path d="M 116.38621287248628 86.86637796730983 l 19.898953860588655 -15.949099458467996 a46.50180656898527,46.50180656898527 0 0,0 0.49523520400773113,0.6288984171674468 l -20.17054314519035 15.604208647347512" fill="red" stroke="none" /><path d="M 116.60985879189232 87.15038557335679 l 20.466606988704033 -15.833247694728085 a46.876122858586854,46.876122858586854 0 0,0 0.48823504277063573,0.6424600860177324 l -20.736117971698782 15.478602832829319" fill="red" stroke="none" /><path d="M 117.04232023915458 87.72973835380427 l 26.036224936360938 -18.74576276969448 a53.082528434561496,53.082528434561496 0 0,0 0.5275073234854539,0.7461216994888865 l -26.355044879650276 18.2948145698738" fill="red" stroke="none" /><path d="M 117.45458315368197 88.32363383020206 l 27.02233864220787 -18.076783499933736 a53.511180959750405,53.511180959750405 0 0,0 0.5055618261135917,0.7700053457742099 l -27.329497103679387 17.608960090181853" fill="red" stroke="none" /><line stroke="#e1ed5e" stroke-width="0.3" x1="172.23445277983987" x2="176.4835382374775" y1="55.19839476539836" y2="52.563006222186495" /><path d="M 173.08426987136738 54.67131705675599 a86.0,86.0 0 0,1 12.851231095245387,41.99856678651699" fill="none" id="id99" stroke="none" /><text fill="#e1ed5e" style="font-size:6.75px; font-family:Arial;" text-anchor="middle"><textPath startOffset="22.20632615414155" xlink:href="#id99">March</textPath></text><path d="M 117.84615892207809 88.93136811851018 l 27.289934259603466 -16.925896362825547 a53.112715232110006,53.112715232110006 0 0,0 0.4751923858207668,0.7810913388643189 l -27.577242443710457 16.453637250754145" fill="red" stroke="none" /><path d="M 118.03404312379186 89.2402003453031 l 27.95572311646678 -16.67945329123263 a53.553442476318324,53.553442476318324 0 0,0 0.46550775346960704,0.7957036472348908 l -28.238690544406712 16.195770231643845" fill="red" stroke="none" /><path d="M 118.3937258080291 89.86733742301442 l 28.571459043168225 -15.739331815537582 a53.619853430925055,53.619853430925055 0 0,0 0.4383854550087068,0.8122616689192175 l -28.8381525973954 15.245189163285906" fill="red" stroke="none" /><path d="M 118.73160827565052 90.50648371742162 l 29.00475217953273 -14.70013055133582 a53.51721831926011,53.51721831926011 0 0,0 0.409381202741694,0.8252875239476539 l -29.25349339522783 14.198683438889216" fill="red" stroke="none" /><path d="M 119.196687751892 91.48605970444005 l 29.586926381004613 -13.122124399412266 a53.366284331517534,53.366284331517534 0 0,0 0.3652014685531454,0.8429353410951878 l -29.808418559400437 12.610889913730475" fill="red" stroke="none" /><path d="M 119.34039704204932 91.81776055985345 l 29.691653629397187 -12.561490792635839 a53.23949978181377,53.23949978181377 0 0,0 0.3498045890913012,0.8470795587357048 l -29.903479905374688 12.048536663446832" fill="red" stroke="none" /><path d="M 119.85752413597 93.16781622104841 l 30.873760089395486 -10.622432153861608 a53.65004022847357,53.65004022847357 0 0,0 0.2929361334214373,0.8758417533152677 l -31.052033516588693 10.089417297624026" fill="red" stroke="none" /><line stroke="#e1ed5e" stroke-width="0.3" x1="184.98032266829074" x2="189.97916517819016" y1="98.17113171792111" y2="98.06355123074" /><path d="M 185.9800911702706 98.14961562048488 a86.0,86.0 0 0,1 -9.607161424134198,41.387399972396054" fill="none" id="id100" stroke="none" /><text fill="#e1ed5e" style="font-size:6.75px; font-family:Arial;" text-anchor="middle"><textPath startOffset="21.466115282336823" xlink:href="#id100">April</textPath></text><path d="M 120.32669344350535 105.2749913415812 l 25.1925717024774 6.5377380719633145 a47.02705684632943,47.02705684632943 0 0,0 -0.21008088889232185,0.7817891395772625 l -25.0763027372433 -6.970418144716125" fill="red" stroke="none" /><line stroke="#e1ed5e" stroke-width="0.3" x1="174.80103733775053" x2="179.2010983576182" y1="140.37084112569926" y2="142.7455964860345" /><path d="M 175.68104954172406 140.8457921977663 a86.0,86.0 0 0,1 -30.038265399797805,32.042727171017184" fill="none" id="id101" stroke="none" /><text fill="#e1ed5e" style="font-size:6.75px; font-family:Arial;" text-anchor="middle"><textPath startOffset="22.206326154141568" xlink:href="#id101">May</textPath></text><path d="M 114.55890576462653 115.13401014063108 l 11.238303801599821 11.682238105431368 a37.21031028355243,37.21031028355243 0 0,0 -0.46541976679468805,0.44008343954149876 l -11.035548200414325 -11.873956181718789" fill="red" stroke="none" /><line stroke="#e1ed5e" stroke-width="0.3" x1="143.8653032363475" x2="146.44561519142675" y1="172.8068346515853" y2="177.08958963109032" /><path d="M 144.38136562736335 173.6633856474863 a86.0,86.0 0 0,1 -40.68145358897372,12.25698825130547" fill="none" id="id102" stroke="none" /><text fill="#e1ed5e" style="font-size:6.75px; font-family:Arial;" text-anchor="middle"><textPath startOffset="21.466115282336833" xlink:href="#id102">June</textPath></text><path d="M 108.59647513512805 119.15986991738527 l 10.35281646139916 23.074412891443583 a46.29049898614567,46.29049898614567 0 0,0 -0.7298012940042401,0.31992344040842147 l -9.954094492737166 -23.249200885146458" fill="red" stroke="none" /><path d="M 107.93186726928326 119.44442032107085 l 10.09587816059449 24.74934234277191 a47.72932289141069,47.72932289141069 0 0,0 -0.7633939816198735,0.30377021994279474 l -9.668363102932751 -24.919459407120776" fill="red" stroke="none" /><path d="M 104.83641907484287 120.43548508189849 l 6.008078562187095 25.386137538637012 a47.087410510436015,47.087410510436015 0 0,0 -0.790350639152165,0.17988123231026912 l -5.5702077736420685 -25.485795504524965" fill="red" stroke="none" /><line stroke="#e1ed5e" stroke-width="0.3" x1="102.19456741930631" x2="102.32365962044197" y1="184.97166512339345" y2="189.96999836594603" /><path d="M 102.22038585953345 185.97133177190398 a86.0,86.0 0 0,1 -42.740103519485714,-10.115201625700543" fill="none" id="id103" stroke="none" /><text fill="#e1ed5e" style="font-size:6.75px; font-family:Arial;" text-anchor="middle"><textPath startOffset="22.20632615414155" xlink:href="#id103">July</textPath></text><line stroke="#e1ed5e" stroke-width="0.3" x1="58.666819895761336" x2="56.23545636021788" y1="174.27360380694188" y2="178.64263932499728" /><path d="M 58.180547188652646 175.14741091055294 a86.0,86.0 0 0,1 -31.652253787137756,-30.449443065178592" fill="none" id="id104" stroke="none" /><text fill="#e1ed5e" style="font-size:6.75px; font-family:Arial;" text-anchor="middle"><textPath startOffset="22.20632615414155" xlink:href="#id104">August</textPath></text><path d="M 89.4739219176387 118.17145234162733 l -26.37266976865742 45.52785074107391 a73.61466434206496,73.61466434206496 0 0,0 -1.0910118431767581,-0.6445890275873959 l 27.15244948286256 -45.067143141192766" fill="red" stroke="none" /><path d="M 88.24862548938628 117.40417183066458 l -29.535353384976844 43.74282897096539 a73.7804147952495,73.7804147952495 0 0,0 -1.0464280284015481,-0.7197427397747727 l 30.28393829800128 -43.22794544182552" fill="red" stroke="none" /><path d="M 87.36589467227662 116.77436683061367 l -31.216320404647384 41.44606966513893 a72.88675505649928,72.88675505649928 0 0,0 -0.9956721951924635,-0.7634389816330992 l 31.925121328333333 -40.90259134167846" fill="red" stroke="none" /><path d="M 86.24171649860922 115.8653595955263 l -41.274850504172335 47.596078786578886 a84.0,84.0 0 0,0 -1.0842305883736492,-0.9567074329108447 l 42.08802344545257 -46.878548211895755" fill="red" stroke="none" /><line stroke="#e1ed5e" stroke-width="0.3" x1="26.63291911575756" x2="22.317208475507996" y1="142.92168965132927" y2="145.44649492493687" /><path d="M 25.769776987707644 143.4266507060508 a86.0,86.0 0 0,1 -11.730757126820373,-40.83630448921669" fill="none" id="id105" stroke="none" /><text fill="#e1ed5e" style="font-size:6.75px; font-family:Arial;" text-anchor="middle"><textPath startOffset="21.46611528233685" xlink:href="#id105">September</textPath></text><line stroke="#e1ed5e" stroke-width="0.3" x1="15.007084014347285" x2="10.007500721073583" y1="101.09737516637583" y2="101.16192664675087" /><path d="M 14.007167355692545 101.11028546245083 a86.0,86.0 0 0,1 10.666146001902534,-42.60595125391555" fill="none" id="id106" stroke="none" /><text fill="#e1ed5e" style="font-size:6.75px; font-family:Arial;" text-anchor="middle"><textPath startOffset="22.20632615414155" xlink:href="#id106">October</textPath></text><line stroke="#e1ed5e" stroke-width="0.3" x1="26.266209847984243" x2="21.928928074336255" y1="57.711370442889674" y2="55.22380399835377" /><path d="M 25.398753493254645 57.213857153982495 a86.0,86.0 0 0,1 29.58750427330803,-30.492523968695096" fill="none" id="id107" stroke="none" /><text fill="#e1ed5e" style="font-size:6.75px; font-family:Arial;" text-anchor="middle"><textPath startOffset="21.46611528233685" xlink:href="#id107">November</textPath></text><line stroke="#e1ed5e" stroke-width="0.3" x1="56.762969772571076" x2="54.21961505331055" y1="26.818313649435495" y2="22.513508569990535" /><path d="M 56.25429882871897 25.957352633546506 a86.0,86.0 0 0,1 42.265352541879196,-11.944610805530505" fill="none" id="id108" stroke="none" /><text fill="#e1ed5e" style="font-size:6.75px; font-family:Arial;" text-anchor="middle"><textPath startOffset="22.20632615414155" xlink:href="#id108">December</textPath></text><path d="M 97.11714578562143 79.19881850522333 l -4.190419374308538 -30.23589382684409 a51.52488968105813,51.52488968105813 0 0,0 0.8795673364722286,-0.11419308402568167 l 3.669337309328452 30.30354523403391" fill="red" stroke="none" /><path d="M 97.83486435360386 79.11191278185805 l -3.463378643396602 -33.41285119624418 a54.591868311987234,54.591868311987234 0 0,0 0.9355353176515695,-0.08884035111719683 l 2.8877181986547957 33.467517091876566" fill="red" stroke="none" /><path d="M 99.27714615592234 79.0124445844662 l -1.0519627912941634 -30.543003344662083 a51.56111383811635,51.56111383811635 0 0,0 0.8872768190847614,-0.02291574251536174 l 0.5260593370145229 30.556585879319805" fill="red" stroke="none" /></svg>