<?xml version="1.0" encoding="utf-8" ?>
<svg baseProfile="full" height="200mm" version="1.1" viewBox="0,0,200,200" width="200mm" xmlns="http://www.w3.org/2000/svg" xmlns:ev="http://www.w3.org/2001/xml-events" xmlns:xlink="http://www.w3.org/1999/xlink"><defs /><rect fill="#1a1a1a" height="200" width="200" x="0" y="0" /><rect fill="#1a1a1a" height="200" width="180" x="10" y="0" /><text alignment-baseline="middle" fill="#e1ed5e" style="dominant-baseline: central; font-size:9.0px; font-family:Arial;" text-anchor="middle" x="100.0" y="100.0">2023</text><line stroke="#e1ed5e" stroke-width="0.3" x1="100.0" x2="100.0" y1="15.0" y2="10.0" /><path d="M 100.0 14.0 a86.0,86.0 0 0,1 42.46469731375804,11.215312516191453" fill="none" id="id13" stroke="none" /><text fill="#e1ed5e" style="font-size:6.75px; font-family:Arial;" text-anchor="middle"><textPath startOffset="22.20632615414155" xlink:href="#id13">January</textPath></text><path d="M 100.36148047927253 79.00311137660856 l 0.14851388691154493 -8.626550315481023 a29.627828621393178,29.627828621393178 0 0,0 0.509843243846793,0.013167746804476604 l -0.2969837659532058 8.622715776534186" fill="#ff5708" stroke="none" /><path d="M 101.44485096284872 79.0497635885617 l 0.8702169444044114 -12.618083929270135 a33.64805596036141,33.64805596036141 0 0,0 0.5774804512856764,0.044823597302808764 l -1.087287585052429 12.601235069778863" fill="#ff8f0d" stroke="none" /><path d="M 102.16513564639614 79.11191278185805 l 1.3358020595525162 -12.88711401179416 a33.956159720198194,33.956159720198194 0 0,0 0.5808658663065277,0.06526704813837096 l -1.5574346293687693 12.86221101018519" fill="#ff930d" stroke="none" /><path d="M 103.59715602781102 79.31037775812273 l 2.9168066186960444 -16.776483040173197 a38.02815738851647,38.02815738851647 0 0,0 0.6439523001344393,0.11767816681005232 l -3.2051540399333844 16.723789392012407" fill="#ffc912" stroke="none" /><path d="M 104.66035177308747 79.52364482259891 l 4.661980189295984 -20.483510008256268 a42.007337802389976,42.007337802389976 0 0,0 0.7036755434592645,0.16653726629182786 l -5.013879419717773 20.400226829823573" fill="#fffc17" stroke="none" /><path d="M 105.71112130821622 79.79150937346287 l 4.693410286982805 -16.607375797557502 a38.257839696881376,38.257839696881376 0 0,0 0.6321830773136587,0.18455157586925933 l -4.978583582019891 16.52412589276954" fill="#ffcc13" stroke="none" /><path d="M 106.74666289553966 80.11325718540242 l 4.133356773593528 -12.183653517322268 a33.86569280093267,33.86569280093267 0 0,0 0.5504271618011028,0.19203322883177038 l -4.342465939457904 12.11069943531829" fill="#ff920d" stroke="none" /><path d="M 108.76106565485865 80.91482961587045 l 7.014782485301144 -15.281054179217891 a37.81421393179831,37.81421393179831 0 0,0 0.589220701002986,0.27664701970792743 l -7.276781397603727 15.15804217686996" fill="#ffc612" stroke="none" /><path d="M 109.41281617654863 81.2277094730956 l 5.666868852884064 -11.301623923055434 a33.64278869134363,33.64278869134363 0 0,0 0.5154387823670205,0.26402776407930995 l -5.860568122839839 11.202403633663623" fill="#ff8f0d" stroke="none" /><path d="M 110.05341064243156 81.56283822128135 l 12.062515502678677 -22.121701548977846 a46.19670533372195,46.19670533372195 0 0,0 0.694877446626676,0.3866985467198966 l -12.441517038377388 21.910787604697767" fill="#cfff1d" stroke="none" /><line stroke="#e1ed5e" stroke-width="0.3" x1="143.23703022742887" x2="145.7803849466894" y1="26.81831364943548" y2="22.513508569990506" /><path d="M 143.74570117128098 25.957352633546492 a86.0,86.0 0 0,1 28.547481713284135,27.462654790039103" fill="none" id="id14" stroke="none" /><text fill="#e1ed5e" style="font-size:6.75px; font-family:Arial;" text-anchor="middle"><textPath startOffset="19.985693538727396" xlink:href="#id14">February</textPath></text><path d="M 110.68208982089419 81.91981866633111 l 8.552773976474692 -14.476165899492706 a37.81396211017196,37.81396211017196 0 0,0 0.5575541474246757,0.3359201353074314 l -8.800690190117004 14.326799154726661" fill="#ffc612" stroke="none" /><path d="M 111.60114157652 82.49532879139004 l 17.41491091549147 -26.276921774654724 a52.52389157679977,52.52389157679977 0 0,0 0.74932911180519,0.5059503612239435 l -17.8646447217032 25.97325950113211" fill="#86ff25" stroke="none" /><path d="M 112.19680574252982 82.90503203632743 l 6.119047604039416 -8.5764195124046 a31.535545322063538,31.535545322063538 0 0,0 0.43917704432261195,0.31908080002407097 l -6.265769964715816 8.469819477563854" fill="#ff720a" stroke="none" /><path d="M 112.77801427241765 83.33499621200491 l 12.8027562791514 -16.697272153576012 a42.040662197610025,42.040662197610025 0 0,0 0.5704866707551647,0.44527389543403495 l -13.088275505065994 16.474419868918755" fill="#fffd17" stroke="none" /><path d="M 113.6212207817346 84.01681056812373 l 40.86366234520383 -47.94956829562881 a84.0,84.0 0 0,0 1.0924248054129433,0.947340026321315 l -41.68298094926353 47.23906327588782" fill="#4dd2ff" stroke="none" /><path d="M 114.94478906791727 85.2469230424477 l 11.956523206094795 -11.803144641429139 a37.80097231127951,37.80097231127951 0 0,0 0.4531359808342064,0.46699646002688827 l -12.157923450632111 11.595583985852135" fill="#ffc612" stroke="none" /><path d="M 117.04232023915458 87.72973835380427 l 10.241502766747514 -7.3737564389567805 a33.61985193821043,33.61985193821043 0 0,0 0.33409708683649925,0.4725566359489771 l -10.366912473387897 7.19637330267601" fill="#ff8e0d" stroke="none" /><line stroke="#e1ed5e" stroke-width="0.3" x1="172.23445277983987" x2="176.4835382374775" y1="55.19839476539836" y2="52.563006222186495" /><path d="M 173.08426987136738 54.67131705675599 a86.0,86.0 0 0,1 12.851231095245387,41.99856678651699" fill="none" id="id15" stroke="none" /><text fill="#e1ed5e" style="font-size:6.75px; font-family:Arial;" text-anchor="middle"><textPath startOffset="22.20632615414155" xlink:href="#id15">March</textPath></text><path d="M 118.3937258080291 89.86733742301442 l 18.490604383197205 -10.186030661481501 a42.11060565432818,42.11060565432818 0 0,0 0.3442880918025366,0.6379135458109279 l -18.66320057421821 9.866236132338114" fill="#fffd18" stroke="none" /><path d="M 118.89224826269711 90.83032412892265 l 11.347034981692488 -5.507477534335655 a33.61298979889245,33.61298979889245 0 0,0 0.24816279279994807,0.5226941310393085 l -11.440155968334192 5.3113409876558055" fill="#ff8e0d" stroke="none" /><path d="M 119.47837535516314 92.15188598940014 l 19.509804176488156 -7.860777128980112 a42.033883998834156,42.033883998834156 0 0,0 0.264626218484298,0.6734448618810913 l -19.642223944854155 7.523783262203236" fill="#fffc17" stroke="none" /><path d="M 119.97218684219823 93.5106431181261 l 12.019396259520404 -3.905338581546301 a33.637941125036434,33.637941125036434 0 0,0 0.17418769688931662,0.5522226002197248 l -12.084839440177927 3.697865814900157" fill="#ff8f0d" stroke="none" /><path d="M 120.28053869075195 94.5502522615342 l 12.314422131140146 -3.30910806576834 a33.75128184202856,33.75128184202856 0 0,0 0.14594000930168763,0.5623663885159035 l -12.369558472312136 3.096645251703586" fill="#ff900d" stroke="none" /><path d="M 120.6074358757038 95.95851677861258 l 16.527100077695845 -3.241257091133249 a37.841935295832116,37.841935295832116 0 0,0 0.11985852057391515,0.6402890096120176 l -16.58044432217962 2.9562900040586686" fill="#ffc712" stroke="none" /><path d="M 120.91429891909075 98.10471618934814 l 19.044246929134932 -1.725817013062712 a40.12228504809093,40.12228504809093 0 0,0 0.05641100839934537,0.6883571863166662 l -19.07113242135377 1.397745909538277" fill="#ffe415" stroke="none" /><line stroke="#e1ed5e" stroke-width="0.3" x1="184.98032266829074" x2="189.97916517819016" y1="98.17113171792111" y2="98.06355123074" /><path d="M 185.9800911702706 98.14961562048488 a86.0,86.0 0 0,1 -9.607161424134198,41.387399972396054" fill="none" id="id16" stroke="none" /><text fill="#e1ed5e" style="font-size:6.75px; font-family:Arial;" text-anchor="middle"><textPath startOffset="21.466115282336823" xlink:href="#id16">April</textPath></text><path d="M 120.99980553446 99.90962569577887 l 21.10986455607941 -0.09084795182161812 a42.11006004080443,42.11006004080443 0 0,0 -0.003119558787841443,0.7248755989059313 l -21.10830070000206 -0.27253712528799795" fill="#fffd18" stroke="none" /><path d="M 120.92983693683757 101.71520430193887 l 20.921443041289603 1.7145164205283585 a41.991577965607696,41.991577965607696 0 0,0 -0.06523772305193422,0.7198928377063106 l -20.888830721960595 -2.0743906467832396" fill="#fffc17" stroke="none" /><path d="M 120.8583938346157 102.4346265915055 l 16.72234377855034 1.9518599158862542 a37.83587059166424,37.83587059166424 0 0,0 -0.08107414633125973,0.6462407158242687 l -16.686268122972233 -2.2394183859979178" fill="#ffc712" stroke="none" /><path d="M 120.76222939487914 103.15116336523771 l 12.481052067404253 1.894297249414314 a33.62398600990965,33.62398600990965 0 0,0 -0.0917746614032668,0.5714809041638977 l -12.446595651639697 -2.108857383271417" fill="#ff8e0d" stroke="none" /><path d="M 120.64145759157962 103.86396538481128 l 14.49000929672045 2.712448677605079 a35.74170096181871,35.74170096181871 0 0,0 -0.11840726340369037,0.6037560851165531 l -14.441172100341095 -2.961468489789577" fill="#ffab0f" stroke="none" /><path d="M 120.5718875245553 104.21870165774334 l 24.701765253334624 5.065620638798541 a46.21582279218887,46.21582279218887 0 0,0 -0.16652212655770302,0.777935937207143 l -24.610909088052477 -5.490070395421854" fill="#ceff1d" stroke="none" /><path d="M 120.41448212921028 104.9243191809786 l 30.623263396239473 7.386850294403988 a52.50158437773244,52.50158437773244 0 0,0 -0.219478337616576,0.8767068585142552 l -30.491573744327834 -7.9128849923156395" fill="#86ff25" stroke="none" /><path d="M 120.02730092923936 106.31721596034902 l 16.56610434787595 5.225449957383944 a38.37069775575634,38.37069775575634 0 0,0 -0.20410972729673735,0.6281851474785035 l -16.473702369562965 -5.509834004840243" fill="#ffce13" stroke="none" /><path d="M 119.79798401119884 107.00284435728193 l 19.831669518074538 7.014759427099802 a42.035730690760715,42.035730690760715 0 0,0 -0.24716156720128335,0.6800824812687114 l -19.707983689868026 -7.355089705374645" fill="#fffc17" stroke="none" /><path d="M 119.54520255179757 107.68017299344265 l 11.804719655478713 4.638595525060498 a33.683373943456715,33.683373943456715 0 0,0 -0.21669217917865083,0.53781221792514 l -11.72312486204267 -4.841107110828451" fill="#ff8f0d" stroke="none" /><path d="M 119.26925614724726 108.34839909993367 l 15.976231174240128 6.921697077259109 a38.41119906732731,38.41119906732731 0 0,0 -0.2680716033085063,0.6044306966242301 l -15.85471848620035 -7.195676110376027" fill="#ffce13" stroke="none" /><line stroke="#e1ed5e" stroke-width="0.3" x1="174.80103733775053" x2="179.2010983576182" y1="140.37084112569926" y2="142.7455964860345" /><path d="M 175.68104954172406 140.8457921977663 a86.0,86.0 0 0,1 -30.038265399797805,32.042727171017184" fill="none" id="id17" stroke="none" /><text fill="#e1ed5e" style="font-size:6.75px; font-family:Arial;" text-anchor="middle"><textPath startOffset="22.206326154141568" xlink:href="#id17">May</textPath></text><path d="M 117.75023020441432 111.22182372390056 l 10.671068568557288 6.746326613399367 a33.62476245992422,33.62476245992422 0 0,0 -0.31350309332167103,0.48656376282585534 l -10.553360611858567 -6.929011976146675" fill="#ff8e0d" stroke="none" /><path d="M 116.93607887273984 112.41649034213515 l 11.962912174291473 8.77047069702689 a35.833489944622556,35.833489944622556 0 0,0 -0.3689804035961589,0.49430954853283926 l -11.810170504000222 -8.975093125069044" fill="#ffac0f" stroke="none" /><path d="M 116.27256486870786 113.27417163493432 l 8.18782724198818 6.6791329458053905 a31.566519382104342,31.566519382104342 0 0,0 -0.347087409274566,0.41808914372534767 l -8.071643832820069 -6.819083346644509" fill="#ff720a" stroke="none" /><path d="M 115.80600337817218 113.82643327865902 l 16.282448719290322 14.24320781440253 a42.63300961818712,42.63300961818712 0 0,0 -0.48792697974231186,0.5481911342188858 l -16.03486288989967 -14.52137311836228" fill="#faff18" stroke="none" /><path d="M 114.55890576462653 115.13401014063108 l 8.807780940694968 9.15570498414818 a33.70448498979889,33.70448498979889 0 0,0 -0.421569544149194,0.3986203170372876 l -8.648875562154966 -9.305959937931389" fill="#ff900d" stroke="none" /><path d="M 113.48314897796784 116.09983520530334 l 8.110355793040467 9.684339462368602 a33.63187642086855,33.63187642086855 0 0,0 -0.4470314924837082,0.36787648456503214 l -7.942454172012069 -9.822511065790811" fill="#ff8f0d" stroke="none" /><path d="M 112.63410532772338 116.77436683061366 l 6.461406667741907 8.578842971068267 a31.739940542116003,31.739940542116003 0 0,0 -0.4392430361695263,0.32494149734029537 l -6.312778661153817 -8.688794417148332" fill="#ff740a" stroke="none" /><path d="M 111.7513745106137 117.40417183066458 l 5.904244411568562 8.744380002217618 a31.55103235208394,31.55103235208394 0 0,0 -0.4527202061217539,0.30003826653919036 l -5.752849506706843 -8.844716289848126" fill="#ff720a" stroke="none" /><line stroke="#e1ed5e" stroke-width="0.3" x1="143.8653032363475" x2="146.44561519142675" y1="172.8068346515853" y2="177.08958963109032" /><path d="M 144.38136562736335 173.6633856474863 a86.0,86.0 0 0,1 -40.68145358897372,12.25698825130547" fill="none" id="id18" stroke="none" /><text fill="#e1ed5e" style="font-size:6.75px; font-family:Arial;" text-anchor="middle"><textPath startOffset="21.466115282336833" xlink:href="#id18">June</textPath></text><path d="M 109.89434966115114 118.52300852407294 l 4.010811842673728 7.508558368620935 a29.5126412124745,29.5126412124745 0 0,0 -0.45015083194414557,0.2354976398309738 l -3.8809701082030865 -7.576485427396626" fill="#ff5507" stroke="none" /><path d="M 105.88484417918355 120.15858648285463 l 1.5980803169794493 5.474238449733669 a26.70273156514136,26.70273156514136 0 0,0 -0.4423356208562856,0.1250084648250792 l -1.5036135280185579 -5.500935707897267" fill="#ff2d04" stroke="none" /><path d="M 102.34483914955558 120.86867818915974 l 0.952429786515262 8.476466591034253 a29.52980705333722,29.52980705333722 0 0,0 -0.5056169545193344,0.05240926467892753 l -0.8063802353903249 -8.49160522416894" fill="#ff5507" stroke="none" /><path d="M 101.26447882468166 120.96189622390904 l 0.5092899721819647 8.442753912817404 a29.458100845234625,29.458100845234625 0 0,0 -0.5064155184289839,0.02617589781860104 l -0.3638863853395012 -8.450269617398208" fill="#ff5407" stroke="none" /><line stroke="#e1ed5e" stroke-width="0.3" x1="102.19456741930631" x2="102.32365962044197" y1="184.97166512339345" y2="189.96999836594603" /><path d="M 102.22038585953345 185.97133177190398 a86.0,86.0 0 0,1 -42.740103519485714,-10.115201625700543" fill="none" id="id19" stroke="none" /><text fill="#e1ed5e" style="font-size:6.75px; font-family:Arial;" text-anchor="middle"><textPath startOffset="22.20632615414155" xlink:href="#id19">July</textPath></text><path d="M 96.22490169976321 120.6578951692458 l -1.9016158985501248 10.405922908538718 a31.578250072865053,31.578250072865053 0 0,0 -0.5338714976676583,-0.10231774315287756 l 2.0804550107894784 -10.371647967037372" fill="#ff720a" stroke="none" /><path d="M 94.11515582081647 120.15858648285463 l -1.2563776005279597 4.303732731777803 a25.483369280093267,25.483369280093267 0 0,0 -0.42002056397242554,-0.12654875044366753 l 1.330273138940631 -4.28146861222841" fill="#ff1b02" stroke="none" /><line stroke="#e1ed5e" stroke-width="0.3" x1="58.666819895761336" x2="56.23545636021788" y1="174.27360380694188" y2="178.64263932499728" /><path d="M 58.180547188652646 175.14741091055294 a86.0,86.0 0 0,1 -31.652253787137756,-30.449443065178592" fill="none" id="id20" stroke="none" /><text fill="#e1ed5e" style="font-size:6.75px; font-family:Arial;" text-anchor="middle"><textPath startOffset="22.20632615414155" xlink:href="#id20">August</textPath></text><line stroke="#e1ed5e" stroke-width="0.3" x1="26.63291911575756" x2="22.317208475507996" y1="142.92168965132927" y2="145.44649492493687" /><path d="M 25.769776987707644 143.4266507060508 a86.0,86.0 0 0,1 -11.730757126820373,-40.83630448921669" fill="none" id="id21" stroke="none" /><text fill="#e1ed5e" style="font-size:6.75px; font-family:Arial;" text-anchor="middle"><textPath startOffset="21.46611528233685" xlink:href="#id21">September</textPath></text><path d="M 80.58989483394504 108.01547362559985 l -9.718491031988679 4.013286269245212 a31.51453920139901,31.51453920139901 0 0,0 -0.202739612332956,-0.5031830912557991 l 9.786133258579023 -3.8454038101466077" fill="#ff710a" stroke="none" /><path d="M 79.97269907076064 106.31721596034903 l -8.066830371808315 2.5445220878373878 a29.458625473622853,29.458625473622853 0 0,0 -0.14837780447039112,-0.4849072500915512 l 8.109434948784838 -2.4052878651937886" fill="#ff5407" stroke="none" /><path d="M 79.67330655649465 105.27499134158121 l -12.219334592886545 3.171046208597943 a33.62409093558729,33.62409093558729 0 0,0 -0.14056260720279257,-0.5614777436514746 l 12.272108514384396 -2.9602406255490767" fill="#ff8e0d" stroke="none" /><path d="M 79.29508885075956 103.50808413554451 l -8.299585660674252 1.4062192577374162 a29.417872340425532,29.417872340425532 0 0,0 -0.0802943253798429,-0.49999284078720874 l 8.322561740415386 -1.2631471872569937" fill="#ff5407" stroke="none" /><path d="M 79.18660465613746 102.79330883721812 l -10.42505942487901 1.399118699228747 a31.51852637714952,31.51852637714952 0 0,0 -0.06753743417786363,-0.5383398010717875 l 10.447598368303721 -1.219461143869551" fill="#ff710a" stroke="none" /><path d="M 79.07016306316243 101.71520430193888 l -10.634431236941326 0.8714937560823162 a31.670081025939957,31.670081025939957 0 0,0 -0.03984916800403194,-0.5437102371035993 l 10.647856963609692 -0.6883103824819562" fill="#ff730a" stroke="none" /><line stroke="#e1ed5e" stroke-width="0.3" x1="15.007084014347285" x2="10.007500721073583" y1="101.09737516637583" y2="101.16192664675087" /><path d="M 14.007167355692545 101.11028546245083 a86.0,86.0 0 0,1 10.666146001902534,-42.60595125391555" fill="none" id="id22" stroke="none" /><text fill="#e1ed5e" style="font-size:6.75px; font-family:Arial;" text-anchor="middle"><textPath startOffset="22.20632615414155" xlink:href="#id22">October</textPath></text><path d="M 79.00486145842228 99.54816195383935 l -10.529057170620957 -0.2265966766766395 a31.53149519090644,31.53149519090644 0 0,0 0.016348788281378458,-0.5425366908952248 l 10.523596687883932 0.40780351499685874" fill="#ff720a" stroke="none" /><path d="M 79.21141760316559 97.0276538004421 l -12.501339576398523 -1.7874383385059123 a33.62847682891285,33.62847682891285 0 0,0 0.08686412764673833,-0.5723260698835914 l 12.468719555312482 2.0023635207815955" fill="#ff8e0d" stroke="none" /><path d="M 79.3925641242962 95.95851677861259 l -8.277728215573168 -1.6234091371788173 a29.435415913727777,29.435415913727777 0 0,0 0.10179145850904212,-0.4963713021907709 l 8.248557461149133 1.7656560955329907" fill="#ff5407" stroke="none" /><path d="M 79.54389044137918 95.25157060432595 l -12.318208047096459 -2.8593971412423853 a33.645726610317695,33.645726610317695 0 0,0 0.13581209656889617,-0.5630288201150505 l 12.267163150266747 3.0710111930168327" fill="#ff8f0d" stroke="none" /><path d="M 79.81627453868168 94.20196356495316 l -20.176135029192466 -5.795855985153798 a41.992102593995924,41.992102593995924 0 0,0 0.2055495483115702,-0.6930108927525432 l 20.07337958376919 6.142296264652881" fill="#fffc17" stroke="none" /><path d="M 80.14247586403 93.16781622104843 l -11.928266005145701 -4.104041619355432 a33.614542698921596,33.614542698921596 0 0,0 0.19295855058771944,-0.5455198065893577 l 11.855854373748173 4.308759052371402" fill="#ff8e0d" stroke="none" /><path d="M 80.2630227832202 92.82701384747504 l -25.664306139115702 -9.327148252141187 a48.306634800349755,48.306634800349755 0 0,0 0.2907493801758002,-0.7790637873738905 l 25.499952170438277 9.767535176544419" fill="#b6ff1f" stroke="none" /><path d="M 80.65960295795068 91.81776055985345 l -19.55868575866599 -8.274589692447805 a42.237020110754884,42.237020110754884 0 0,0 0.2890405799274763,-0.667145509564305 l 19.413354468895836 8.61003434659871" fill="#ffff18" stroke="none" /><path d="M 81.10775173730289 90.83032412892265 l -34.58638351266358 -16.787092883492615 a59.44508306616147,59.44508306616147 0 0,0 0.45472654160626097,-0.9167009600885307 l 34.292296958103904 17.379953432080107" fill="#3dff2e" stroke="none" /><path d="M 81.6062741919709 89.86733742301443 l -27.609603552546712 -15.209468685250242 a52.52170912270475,52.52170912270475 0 0,0 0.44303902082613245,-0.7881169824272821 l 27.343706890428148 15.682469177612308" fill="#86ff25" stroke="none" /><line stroke="#e1ed5e" stroke-width="0.3" x1="26.266209847984243" x2="21.928928074336255" y1="57.711370442889674" y2="55.22380399835377" /><path d="M 25.398753493254645 57.213857153982495 a86.0,86.0 0 0,1 29.58750427330803,-30.492523968695096" fill="none" id="id23" stroke="none" /><text fill="#e1ed5e" style="font-size:6.75px; font-family:Arial;" text-anchor="middle"><textPath startOffset="21.46611528233685" xlink:href="#id23">November</textPath></text><path d="M 81.78341655067845 89.55222093294921 l -10.954069957742506 -6.2825009487591075 a33.62780530457593,33.62780530457593 0 0,0 0.2923062155783725,-0.49964607487536644 l 10.844304067693809 6.470126435988366" fill="#ff8e0d" stroke="none" /><path d="M 82.34701348167596 88.62581576622439 l -21.22586807932433 -13.676265701865637 a46.25030136986301,46.25030136986301 0 0,0 0.43696263845195293,-0.6655240766457888 l 20.987308805514456 14.039607842489094" fill="#ceff1d" stroke="none" /><path d="M 83.17141714833178 87.43820079747576 l -16.85112840197988 -12.57862846725923 a42.02813407169921,42.02813407169921 0 0,0 0.4377411480460717,-0.5760160393880177 l 16.632111313709704 12.866829282528276" fill="#fffc17" stroke="none" /><path d="M 83.84228863543731 86.58626213691792 l -16.19644089480523 -13.445890174415796 a42.050336345088894,42.050336345088894 0 0,0 0.4671379604098034,-0.5529440022277052 l 15.962592320908303 13.722693126272617" fill="#fffd17" stroke="none" /><path d="M 84.5562425177563 85.77008943001954 l -12.38150929213581 -11.40834865809339 a37.83603847274847,37.83603847274847 0 0,0 0.44544310084030786,-0.47516764235440395 l 12.183298869325046 11.619785717325843" fill="#ffc712" stroke="none" /><path d="M 85.83668400450813 84.49514656593479 l -29.95804407338307 -32.79564493773334 a65.41890061206645,65.41890061206645 0 0,0 0.8379507365808123,-0.7523204449065753 l 29.38908234920629 33.30646439140919" fill="#35ff68" stroke="none" /><path d="M 86.93701828274178 83.55741782278169 l -9.238102379488078 -11.628145918294257 a35.85113844360245,35.85113844360245 0 0,0 0.4864955865190036,-0.37971752194320646 l 9.03657423780965 11.785441829460684" fill="#ffad10" stroke="none" /><path d="M 87.80319425747018 82.90503203632743 l -17.201240912953455 -24.10915353984815 a50.616447682891284,50.616447682891284 0 0,0 0.713616856371281,-0.4999342121370271 l 16.783692916998515 24.401672594749122" fill="#9bff22" stroke="none" /><path d="M 89.00827224532344 82.1063720568725 l -12.471569366557619 -20.30268826637756 a44.82727834450598,44.82727834450598 0 0,0 0.6609631354132929,-0.39822289351951445 l 12.120244164926676 20.514357769355694" fill="#dfff1b" stroke="none" /><line stroke="#e1ed5e" stroke-width="0.3" x1="56.762969772571076" x2="54.21961505331055" y1="26.818313649435495" y2="22.513508569990535" /><path d="M 56.25429882871897 25.957352633546506 a86.0,86.0 0 0,1 42.265352541879196,-11.944610805530505" fill="none" id="id24" stroke="none" /><text fill="#e1ed5e" style="font-size:6.75px; font-family:Arial;" text-anchor="middle"><textPath startOffset="22.20632615414155" xlink:href="#id24">December</textPath></text><path d="M 89.94658935756843 81.56283822128135 l -21.480615223669986 -39.39375323173126 a65.86964033809386,65.86964033809386 0 0,0 1.0001362431047705,-0.5342381441550419 l 20.79933393403691 39.75767010238805" fill="#36ff6d" stroke="none" /><path d="M 91.56875222667455 80.76684994638697 l -8.434952088040198 -19.241600243035755 a42.009226464587584,42.009226464587584 0 0,0 0.6647784893736991,-0.284623455776178 l 8.10248984087619 19.38394322677472" fill="#fffc17" stroke="none" /><path d="M 92.23578459929587 80.48803036053334 l -8.641398139631736 -21.716385937431205 a44.37253045759253,44.37253045759253 0 0,0 0.7121090369415856,-0.2762872430556643 l 8.266305937690474 21.86191588437742" fill="#e5ff1a" stroke="none" /><path d="M 93.59665428221793 80.00007090966166 l -7.7594824645151 -24.235627109288508 a46.447498688429036,46.447498688429036 0 0,0 0.7635407594402355,-0.23723583068404688 l 7.341156332364136 24.36560307485508" fill="#ccff1d" stroke="none" /><path d="M 94.28887869178378 79.79150937346287 l -1.7290165914515765 -6.118030715125804 a27.357656659865928,27.357656659865928 0 0,0 0.45427012491371116,-0.12416918529230207 l 1.623448577314143 6.146886441244402" fill="#ff3605" stroke="none" /><path d="M 94.63758080256005 79.69619591428918 l -11.411596010966274 -43.20788830208439 a65.68944097930631,65.68944097930631 0 0,0 1.0957346324905881,-0.2793271553711596 l 10.666152489790687 43.39791845362441" fill="#36ff6b" stroke="none" /><path d="M 96.75951476605007 79.25152402106235 l -6.844432639319169 -43.82416087521209 a65.35542057709122,65.35542057709122 0 0,0 1.113005985499981,-0.16402815020916273 l 6.089057673390538 43.93548350958222" fill="#35ff67" stroke="none" /><path d="M 98.19473922651362 79.07773832637324 l -2.349940352891001 -27.234883570670608 a48.33607694549694,48.33607694549694 0 0,0 0.8295617304235332,-0.06438995616136163 l 1.8807884331051339 27.27129878902043" fill="#b5ff1f" stroke="none" /><path d="M 98.91598698831166 79.02799685794201 l -0.7702960262596431 -14.902635400908462 a35.92252987467211,35.92252987467211 0 0,0 0.6177976660955341,-0.026603667073988948 l 0.5136575277747849 14.913686794506644" fill="#ffad10" stroke="none" /><path d="M 99.63851952072746 79.00311137660856 l -0.046463238147034985 -2.6988551039290223 a23.69925502768872,23.69925502768872 0 0,0 0.40794371741957003,-0.0035113003682581837 l 6.611268059482786e-16 2.6992550276887215" fill="#ff0000" stroke="none" /></svg>