<?xml version="1.0" encoding="utf-8" ?>
<svg baseProfile="full" height="200mm" version="1.1" viewBox="0,0,200,200" width="200mm" xmlns="http://www.w3.org/2000/svg" xmlns:ev="http://www.w3.org/2001/xml-events" xmlns:xlink="http://www.w3.org/1999/xlink"><defs /><rect fill="#1a1a1a" height="200" width="200" x="0" y="0" /><rect fill="#1a1a1a" height="200" width="180" x="10" y="0" /><text alignment-baseline="middle" fill="#e1ed5e" style="dominant-baseline: central; font-size:9.0px; font-family:Arial;" text-anchor="middle" x="100.0" y="100.0">2021</text><line stroke="#e1ed5e" stroke-width="0.3" x1="100.0" x2="100.0" y1="15.0" y2="10.0" /><path d="M 100.0 14.0 a86.0,86.0 0 0,1 42.46469731375804,11.215312516191453" fill="none" id="id73" stroke="none" /><text fill="#e1ed5e" style="font-size:6.75px; font-family:Arial;" text-anchor="middle"><textPath startOffset="22.20632615414155" xlink:href="#id73">January</textPath></text><path d="M 100.72285384407766 79.0124445844662 l 2.1685615322329816 -62.9626662466014 a84.0,84.0 0 0,0 1.4446366704426739,0.062209093903220936 l -3.2520390350649873 62.916009426173986" fill="red" stroke="none" /><path d="M 103.2404852339499 79.25152402106235 l 5.560649886112459 -35.604238951786044 a57.03585240412389,57.03585240412389 0 0,0 0.9687153693107053,0.15984633620984207 l -6.172694461562039 35.50324635263658" fill="red" stroke="none" /><path d="M 103.95276090670814 79.375362276772 l 5.020498867719447 -26.195859749792817 a47.672616611641004,47.672616611641004 0 0,0 0.8046084131314802,0.1613968783112208 l -5.470673690318053 26.105558915404387" fill="red" stroke="none" /><path d="M 104.66035177308747 79.52364482259891 l 8.093489731198865 -35.56065688382227 a57.47005475781408,57.47005475781408 0 0,0 0.9626954272745581,0.22783890419410208 l -8.704408845435948 35.4160720674873" fill="red" stroke="none" /><path d="M 105.71112130821622 79.79150937346287 l 5.8587494912424685 -20.73086488404182 a42.54283417848107,42.54283417848107 0 0,0 0.70298950598586,0.20522191403879184 l -6.214729214951755 20.62694464108433" fill="red" stroke="none" /><path d="M 106.40334571778207 80.00007090966166 l 8.163604542874047 -25.49784427938046 a47.772831415970344,47.772831415970344 0 0,0 0.781011126439034,0.25748708902690676 l -8.601298491555498 25.353543466094315" fill="red" stroke="none" /><path d="M 107.08798089147638 80.2323363322302 l 8.709089796361216 -24.28877286533073 a46.802959760165294,46.802959760165294 0 0,0 0.7560186265144269,0.2784480404489111 l -9.125890748648219 24.135261557075495" fill="red" stroke="none" /><path d="M 107.76421540070413 80.48803036053334 l 14.166106108726796 -35.60033023785931 a59.31529818921349,59.31529818921349 0 0,0 0.9454184325764032,0.38565991669104543 l -14.776808410891586 35.35120943498469" fill="red" stroke="none" /><path d="M 109.08828744355905 81.06846463323043 l 9.06792457569118 -18.889118095572584 a41.9529482063721,41.9529482063721 0 0,0 0.6483303393614721,0.3181328818569244 l -9.391726182063083 18.73023005358083" fill="red" stroke="none" /><path d="M 110.05341064243156 81.56283822128135 l 15.155208299354758 -27.79345608604344 a52.656856126337885,52.656856126337885 0 0,0 0.7920491616909414,0.44077450094757664 l -15.631381550117734 27.528466187535685" fill="red" stroke="none" /><line stroke="#e1ed5e" stroke-width="0.3" x1="143.23703022742887" x2="145.7803849466894" y1="26.81831364943548" y2="22.513508569990506" /><path d="M 143.74570117128098 25.957352633546492 a86.0,86.0 0 0,1 28.547481713284135,27.462654790039103" fill="none" id="id74" stroke="none" /><text fill="#e1ed5e" style="font-size:6.75px; font-family:Arial;" text-anchor="middle"><textPath startOffset="19.985693538727396" xlink:href="#id74">February</textPath></text><line stroke="#e1ed5e" stroke-width="0.3" x1="172.23445277983987" x2="176.4835382374775" y1="55.19839476539836" y2="52.563006222186495" /><path d="M 173.08426987136738 54.67131705675599 a86.0,86.0 0 0,1 12.851231095245387,41.99856678651699" fill="none" id="id75" stroke="none" /><text fill="#e1ed5e" style="font-size:6.75px; font-family:Arial;" text-anchor="middle"><textPath startOffset="22.20632615414155" xlink:href="#id75">March</textPath></text><line stroke="#e1ed5e" stroke-width="0.3" x1="184.98032266829074" x2="189.97916517819016" y1="98.17113171792111" y2="98.06355123074" /><path d="M 185.9800911702706 98.14961562048488 a86.0,86.0 0 0,1 -9.607161424134198,41.387399972396054" fill="none" id="id76" stroke="none" /><text fill="#e1ed5e" style="font-size:6.75px; font-family:Arial;" text-anchor="middle"><textPath startOffset="21.466115282336823" xlink:href="#id76">April</textPath></text><line stroke="#e1ed5e" stroke-width="0.3" x1="174.80103733775053" x2="179.2010983576182" y1="140.37084112569926" y2="142.7455964860345" /><path d="M 175.68104954172406 140.8457921977663 a86.0,86.0 0 0,1 -30.038265399797805,32.042727171017184" fill="none" id="id77" stroke="none" /><text fill="#e1ed5e" style="font-size:6.75px; font-family:Arial;" text-anchor="middle"><textPath startOffset="22.206326154141568" xlink:href="#id77">May</textPath></text><line stroke="#e1ed5e" stroke-width="0.3" x1="143.8653032363475" x2="146.44561519142675" y1="172.8068346515853" y2="177.08958963109032" /><path d="M 144.38136562736335 173.6633856474863 a86.0,86.0 0 0,1 -40.68145358897372,12.25698825130547" fill="none" id="id78" stroke="none" /><text fill="#e1ed5e" style="font-size:6.75px; font-family:Arial;" text-anchor="middle"><textPath startOffset="21.466115282336833" xlink:href="#id78">June</textPath></text><path d="M 109.57404056367764 118.69057910512821 l 6.762572458156964 13.201990804475136 a35.833237928829604,35.833237928829604 0 0,0 -0.5513986100845324,0.27648270994375945 l -6.534319940389672 -13.316441355328196" fill="red" stroke="none" /><line stroke="#e1ed5e" stroke-width="0.3" x1="102.19456741930631" x2="102.32365962044197" y1="184.97166512339345" y2="189.96999836594603" /><path d="M 102.22038585953345 185.97133177190398 a86.0,86.0 0 0,1 -42.740103519485714,-10.115201625700543" fill="none" id="id79" stroke="none" /><text fill="#e1ed5e" style="font-size:6.75px; font-family:Arial;" text-anchor="middle"><textPath startOffset="22.20632615414155" xlink:href="#id79">July</textPath></text><path d="M 93.76903079525671 120.05430185196036 l -5.684806600099218 18.296483866686533 a40.15928881677115,40.15928881677115 0 0,0 -0.6583802826639245,-0.21079257554492214 l 5.998908227854083 -18.1959184444819" fill="red" stroke="none" /><path d="M 93.08242187328487 119.8279376855182 l -6.455683666796846 18.504004019604583 a40.5978064171297,40.5978064171297 0 0,0 -0.6578399716709619,-0.23587800901608458 l 6.773243199097534 -18.390138469548543" fill="red" stroke="none" /><path d="M 92.40401165467489 119.57807347666478 l -7.956549054323764 20.50739086535171 a42.9968123362948,42.9968123362948 0 0,0 -0.6877010981497552,-0.2736504594869507 l 8.308371228515378 -20.367393561458695" fill="red" stroke="none" /><path d="M 91.7346041902142 119.30500536409082 l -8.608554205568465 20.106500516140766 a42.87186705601009,42.87186705601009 0 0,0 -0.6759042295746067,-0.29629655125118487 l 8.953379109800816 -19.95533941159513" fill="red" stroke="none" /><path d="M 91.07499286063937 119.00905698771935 l -9.856443877172312 20.992891146398357 a44.191614100540264,44.191614100540264 0 0,0 -0.6857851055232357,-0.32921852574338867 l 10.21634165069579 -20.820118344155404" fill="red" stroke="none" /><line stroke="#e1ed5e" stroke-width="0.3" x1="58.666819895761336" x2="56.23545636021788" y1="174.27360380694188" y2="178.64263932499728" /><path d="M 58.180547188652646 175.14741091055294 a86.0,86.0 0 0,1 -31.652253787137756,-30.449443065178592" fill="none" id="id80" stroke="none" /><text fill="#e1ed5e" style="font-size:6.75px; font-family:Arial;" text-anchor="middle"><textPath startOffset="22.20632615414155" xlink:href="#id80">August</textPath></text><line stroke="#e1ed5e" stroke-width="0.3" x1="26.63291911575756" x2="22.317208475507996" y1="142.92168965132927" y2="145.44649492493687" /><path d="M 25.769776987707644 143.4266507060508 a86.0,86.0 0 0,1 -11.730757126820373,-40.83630448921669" fill="none" id="id81" stroke="none" /><text fill="#e1ed5e" style="font-size:6.75px; font-family:Arial;" text-anchor="middle"><textPath startOffset="21.46611528233685" xlink:href="#id81">September</textPath></text><line stroke="#e1ed5e" stroke-width="0.3" x1="15.007084014347285" x2="10.007500721073583" y1="101.09737516637583" y2="101.16192664675087" /><path d="M 14.007167355692545 101.11028546245083 a86.0,86.0 0 0,1 10.666146001902534,-42.60595125391555" fill="none" id="id82" stroke="none" /><text fill="#e1ed5e" style="font-size:6.75px; font-family:Arial;" text-anchor="middle"><textPath startOffset="22.20632615414155" xlink:href="#id82">October</textPath></text><line stroke="#e1ed5e" stroke-width="0.3" x1="26.266209847984243" x2="21.928928074336255" y1="57.711370442889674" y2="55.22380399835377" /><path d="M 25.398753493254645 57.213857153982495 a86.0,86.0 0 0,1 29.58750427330803,-30.492523968695096" fill="none" id="id83" stroke="none" /><text fill="#e1ed5e" style="font-size:6.75px; font-family:Arial;" text-anchor="middle"><textPath startOffset="21.46611528233685" xlink:href="#id83">November</textPath></text><line stroke="#e1ed5e" stroke-width="0.3" x1="56.762969772571076" x2="54.21961505331055" y1="26.818313649435495" y2="22.513508569990535" /><path d="M 56.25429882871897 25.957352633546506 a86.0,86.0 0 0,1 42.265352541879196,-11.944610805530505" fill="none" id="id84" stroke="none" /><text fill="#e1ed5e" style="font-size:6.75px; font-family:Arial;" text-anchor="middle"><textPath startOffset="22.20632615414155" xlink:href="#id84">December</textPath></text></svg>