<?xml version="1.0" encoding="utf-8" ?>
<svg baseProfile="full" height="200mm" version="1.1" viewBox="0,0,200,200" width="200mm" xmlns="http://www.w3.org/2000/svg" xmlns:ev="http://www.w3.org/2001/xml-events" xmlns:xlink="http://www.w3.org/1999/xlink"><defs /><rect fill="#1a1a1a" height="200" width="200" x="0" y="0" /><rect fill="#1a1a1a" height="200" width="180" x="10" y="0" /><text alignment-baseline="middle" fill="#e1ed5e" style="dominant-baseline: central; font-size:9.0px; font-family:Arial;" text-anchor="middle" x="100.0" y="100.0">2024</text><line stroke="#e1ed5e" stroke-width="0.3" x1="100.0" x2="100.0" y1="15.0" y2="10.0" /><path d="M 100.0 14.0 a86.0,86.0 0 0,1 42.35913384403234,11.155469271406648" fill="none" id="id25" stroke="none" /><text fill="#e1ed5e" style="font-size:6.75px; font-family:Arial;" text-anchor="middle"><textPath startOffset="22.145653131862478" xlink:href="#id25">January</textPath></text><path d="M 100.36049292484886 79.00309439819443 l 0.22571238752681763 -13.146615002349336 a34.14855247173162,34.14855247173162 0 0,0 0.5860325549794644,0.015094119815687089 l -0.4513582565770234 13.140803165183604" fill="#ff9e0e" stroke="none" /><path d="M 101.44090949804482 79.04949213459386 l 1.5287078934382492 -22.22707726532758 a43.27958508550603,43.27958508550603 0 0,0 0.7407630844282973,0.057339747647921414 l -1.91003997264178 22.197559750684608" fill="#ecff1a" stroke="none" /><path d="M 102.15924093988457 79.11130261209362 l 2.059349394724335 -19.92233730278588 a41.02849079525278,41.02849079525278 0 0,0 0.6999540601638691,0.07843131240581759 l -2.401039356489001 19.884050229873093" fill="#fff617" stroke="none" /><path d="M 102.87502721639298 79.19773525538626 l 1.8119343410683217 -13.110254277887993 a34.23487337631997,34.23487337631997 0 0,0 0.5814628498111097,0.08545501514930277 l -2.0367222964871137 13.077218189439808" fill="#ff9f0e" stroke="none" /><path d="M 103.94208987418118 79.37332000966035 l 2.9551835052875632 -15.462768841351721 a36.74262779179516,36.74262779179516 0 0,0 0.6185070502489297,0.12371873234999214 l -3.2201870410674496 15.40976071233887" fill="#ffc011" stroke="none" /><path d="M 104.64783097203109 79.52079915486377 l 7.241903533516519 -31.909163189550416 a53.720633585646205,53.720633585646205 0 0,0 0.8975639526630707,0.21182264888854743 l -7.788599639919474 31.780144397015643" fill="#75ff27" stroke="none" /><path d="M 106.04205211174951 79.88797359093562 l 3.0605987399546355 -10.18773779951615 a31.63754041678348,31.63754041678348 0 0,0 0.5187944474010372,0.16072384595559938 l -3.235033820227303 10.133697365753903" fill="#ff7c0b" stroke="none" /><path d="M 106.72888874123014 80.10723608172694 l 4.406955758578995 -13.02838163551791 a34.75354452854874,34.75354452854874 0 0,0 0.5634943482355848,0.19601258513136188 l -4.629955878859598 12.950810617817957" fill="#ffa60f" stroke="none" /><path d="M 107.74402155503746 80.48000691201159 l 5.937044596318094 -14.965230747300964 a37.0998953368844,37.0998953368844 0 0,0 0.5899687875263884,0.23993516982492105 l -6.193067845034922 14.86110832089675" fill="#ffc412" stroke="none" /><path d="M 108.4095320186766 80.7573450057729 l 5.304268508855204 -12.137204387350268 a34.245640594336976,34.245640594336976 0 0,0 0.5366562538199715,0.24003951634169945 l -5.511838165530807 12.044361120098715" fill="#ff9f0e" stroke="none" /><path d="M 109.06512990194946 81.05736502329252 l 16.948627477085296 -35.41611285521449 a60.26266704046351,60.26266704046351 0 0,0 0.9293070034850833,0.4545706235723627 l -17.554094729832446 35.11994848154491" fill="#32ff2f" stroke="none" /><line stroke="#e1ed5e" stroke-width="0.3" x1="143.13028292997686" x2="145.6673583964461" y1="26.7553504044142" y2="22.446841604673864" /><path d="M 143.63769802327073 25.89364864446614 a86.0,86.0 0 0,1 29.32050498858742,28.57503671076993" fill="none" id="id26" stroke="none" /><text fill="#e1ed5e" style="font-size:6.75px; font-family:Arial;" text-anchor="middle"><textPath startOffset="20.669276256404974" xlink:href="#id26">February</textPath></text><path d="M 110.65571695917076 81.90426304109057 l 9.97214191215351 -16.934877085294616 a40.65282870759742,40.65282870759742 0 0,0 0.598307509847616,0.35926646889245084 l -10.261382178558561 16.761196615866243" fill="#fff216" stroke="none" /><path d="M 111.27062007382361 82.28071324371311 l 14.834120303500718 -23.321700998995155 a48.63969722455845,48.63969722455845 0 0,0 0.7006765358618045,0.4541700652118763 l -15.23228247161953 23.063617092079383" fill="#adff20" stroke="none" /><path d="M 112.16784306229584 82.88440491214696 l 7.590902621547712 -10.677555171986153 a34.10083917390898,34.10083917390898 0 0,0 0.47419488576022456,0.3432805284235807 l -7.7730785176819035 10.545673872189496" fill="#ff9d0e" stroke="none" /><path d="M 113.03279911837588 83.53348406188908 l 12.276650752743242 -15.511147179552323 a40.78160358844968,40.78160358844968 0 0,0 0.5452097043397348,0.4391823444461314 l -12.541111227438236 15.298116541312782" fill="#fff316" stroke="none" /><path d="M 113.59037401385872 83.9905735841838 l 25.40955860526151 -29.932396145571744 a60.263138024483695,60.263138024483695 0 0,0 0.7829057460458191,0.6762553367408584 l -25.91964383107019 29.491796676366167" fill="#32ff2f" stroke="none" /><path d="M 114.65682725009322 84.96080404539774 l 9.152091284589869 -9.390851913225571 a34.112927763760396,34.112927763760396 0 0,0 0.4158659588355043,0.4123115702889592 l -9.311949163555337 9.232360332707954" fill="#ff9d0e" stroke="none" /><path d="M 115.16444852881244 85.47280134310134 l 9.47838732413328 -9.080080646724147 a34.12584057564714,34.12584057564714 0 0,0 0.4016191627198868,0.4265056331262509 l -9.632862320589426 8.916033553653401" fill="#ff9d0e" stroke="none" /><path d="M 115.41159269507618 85.73525988315684 l 11.739492575223986 -10.865899067179585 a36.996357349780396,36.996357349780396 0 0,0 0.4274000644539156,0.4697875403060567 l -11.92429034051978 10.662773951315856" fill="#ffc312" stroke="none" /><path d="M 115.8921839302757 86.27271002978787 l 14.875099999933152 -12.84875709536557 a40.65602093262312,40.65602093262312 0 0,0 0.45167955760712486,0.5320773831291037 l -15.09347412104739 12.591512929786914" fill="#fff216" stroke="none" /><path d="M 116.1254893667686 86.54754324733833 l 11.566300217559805 -9.649019011210603 a36.06263152976357,36.06263152976357 0 0,0 0.3924871020358487,0.47877044697361854 l -11.730234138834282 9.449046282538488" fill="#ffb711" stroke="none" /><path d="M 116.35404254752997 86.82634096563983 l 7.4393955239247385 -5.992650426895934 a30.552824969629008,30.552824969629008 0 0,0 0.3255091706875614,0.4112702036180832 l -7.541171125253859 5.864060279363173" fill="#ff6d0a" stroke="none" /><path d="M 116.57777611688842 87.10902102172516 l 21.981708721223498 -17.09310965679996 a48.845464909821516,48.845464909821516 0 0,0 0.5090349243201922,0.6663430561757244 l -22.271895622897997 16.713245687383353" fill="#abff21" stroke="none" /><path d="M 117.01052211995028 87.68569379921539 l 33.973122499859805 -24.59392075739892 a62.94083917390898,62.94083917390898 0 0,0 0.6260662375849319,0.8806405675861442 l -34.3903038359747 24.00710296310327" fill="#32ff4d" stroke="none" /><path d="M 117.42321728460499 88.27688183743584 l 16.61653800918526 -11.180348345109543 a41.027718904775256,41.027718904775256 0 0,0 0.38815262253376326,0.587712542495495 l -16.80601507063975 10.893455924274988" fill="#fff617" stroke="none" /><path d="M 117.62189284568427 88.57770195909679 l 15.491259275040393 -10.041247101996369 a39.46092514718251,39.46092514718251 0 0,0 0.3635709946692781,0.5715939911572111 l -15.661347961335562 9.773839436160484" fill="#ffe315" stroke="none" /><line stroke="#e1ed5e" stroke-width="0.3" x1="172.87174338648825" x2="177.1583165268699" y1="56.24261187166439" y2="53.66864786411523" /><path d="M 173.72905801456457 55.72781907015455 a86.0,86.0 0 0,1 12.242430191666344,42.057860355516425" fill="none" id="id27" stroke="none" /><text fill="#e1ed5e" style="font-size:6.75px; font-family:Arial;" text-anchor="middle"><textPath startOffset="22.145653131862474" xlink:href="#id27">March</textPath></text><path d="M 118.36410011445183 89.81374322990088 l 24.27158222802239 -13.463037516150598 a48.75541538174002,48.75541538174002 0 0,0 0.399689118542965,0.7353829601954348 l -24.499116696180693 13.04439972248056" fill="#acff21" stroke="none" /><path d="M 118.53625476483649 90.13048839642627 l 11.70094225411753 -6.230092692124137 a34.25617232034389,34.25617232034389 0 0,0 0.2719155958859608,0.5214340085265535 l -11.806165918978435 6.028312440493084" fill="#ff9f0e" stroke="none" /><path d="M 118.8641267826498 90.77261029715802 l 12.032061039290985 -5.88548398858483 a34.3943799644893,34.3943799644893 0 0,0 0.25487994914678863,0.5326010649368766 l -12.131320246397687 5.6780704215828495" fill="#ffa10e" stroke="none" /><path d="M 119.4528033332814 92.08871423366111 l 25.822534498075566 -10.501799978407512 a48.87635361181198,48.87635361181198 0 0,0 0.3094136767608826,0.7799245894108703 l -25.999006849802573 10.056974371783076" fill="#aaff21" stroke="none" /><path d="M 119.83427380445688 93.10060997987247 l 30.9321872921797 -10.759820420368749 a53.75017475002336,53.75017475002336 0 0,0 0.2956632750790791,0.8740759368501988 l -31.112335988831145 10.227242809044387" fill="#75ff27" stroke="none" /><path d="M 120.26092885502905 94.47779374421319 l 12.902998635492589 -3.5167696551898135 a34.373669750490606,34.373669750490606 0 0,0 0.15027926030663238,0.5706348291081917 l -12.96146737660395 3.2947543217088233" fill="#ffa10e" stroke="none" /><path d="M 120.35273937422433 94.82641323984039 l 7.65351250831265 -1.9454929507852243 a28.896910569105692,28.896910569105692 0 0,0 0.11808168437964223,0.4818135677425304 l -7.685781719208583 1.813823558434599" fill="#ff5607" stroke="none" /><path d="M 120.43855184770803 95.1765574152323 l 12.742328978130253 -3.0071549432757547 a34.09236146154565,34.09236146154565 0 0,0 0.12953334040387354,0.5707477983247509 l -12.792073180091792 2.7879728110119775" fill="#ff9d0e" stroke="none" /><path d="M 120.592083275326 95.88100663000786 l 32.20967957056475 -6.442837998800148 a53.847733856648915,53.847733856648915 0 0,0 0.1735274191563363,0.9079687827337203 l -32.315533282003244 5.888966651033114" fill="#74ff27" stroke="none" /><path d="M 120.65975698304385 96.23510406497455 l 27.306274247181076 -4.976112787690481 a48.75597794598636,48.75597794598636 0 0,0 0.14298313334038898,0.8246887168182994 l -27.3876721980137 4.50663103795159" fill="#acff21" stroke="none" /><path d="M 120.77682067341334 96.94652285012252 l 15.70016507796323 -2.3073836015830276 a36.8688122605364,36.8688122605364 0 0,0 0.08665133586447055,0.6269659010006466 l -15.737460930382914 2.0375293923822952" fill="#ffc112" stroke="none" /><path d="M 120.82617615685814 97.30363454192243 l 19.465439230837 -2.5201908201018037 a40.62790580319596,40.62790580319596 0 0,0 0.08361206325966825,0.6924278276344665 l -19.505833380356332 2.185669315543924" fill="#fff116" stroke="none" /><path d="M 120.9064616781168 98.02013634271609 l 22.454502361387878 -2.126464719481516 a43.55496682553032,43.55496682553032 0 0,0 0.06410124943320109,0.7449536840943699 l -22.48769723351882 1.7406899880114841" fill="#e9ff1a" stroke="none" /><path d="M 120.96210409425399 98.7389718711861 l 9.179668626760924 -0.5522260694578455 a30.196263900570038,30.196263900570038 0 0,0 0.02668546011164062,0.5176907970878666 l -9.187795676329138 0.39456347899324823" fill="#ff6809" stroke="none" /><path d="M 120.98066250479742 99.09900007780936 l 13.178336898879781 -0.5659344893316748 a34.19048313241753,34.19048313241753 0 0,0 0.020148472880602442,0.586600804006484 l -13.186110058757231 0.339627420761071" fill="#ff9e0e" stroke="none" /><line stroke="#e1ed5e" stroke-width="0.3" x1="184.99686870605535" x2="189.99668451229388" y1="99.2704041080226" y2="99.22748670261217" /><path d="M 185.99683186730306 99.26182062694052 a86.0,86.0 0 0,1 -10.086455211305974,41.156179273409016" fill="none" id="id28" stroke="none" /><text fill="#e1ed5e" style="font-size:6.75px; font-family:Arial;" text-anchor="middle"><textPath startOffset="21.40746469413373" xlink:href="#id28">April</textPath></text><path d="M 120.99922638620191 100.18025310272382 l 27.607333564247572 0.23697575526672968 a48.60835062143725,48.60835062143725 0 0,0 -0.014324576318889323,0.8343347567216086 l -27.599197556330015 -0.7108574279574094" fill="#adff20" stroke="none" /><path d="M 120.99303781780057 100.54070618675476 l 27.59579713279786 0.7107698451093537 a48.60494907018035,48.60494907018035 0 0,0 -0.028642926583135737,0.8339075552936397 l -27.579529519217875 -1.184383664967104" fill="#aeff20" stroke="none" /><path d="M 120.96210409425399 101.26102812881392 l 13.378579908020129 0.8048221453218788 a34.402766096626486,34.402766096626486 0 0,0 -0.04052324562834765,0.5891990978062726 l -13.362792701226715 -1.0343646672824949" fill="#ffa10e" stroke="none" /><path d="M 120.93736805541906 101.62068470465957 l 19.56747473210584 1.5146462976242414 a40.626008784225775,40.626008784225775 0 0,0 -0.059790607417627546,0.6948574897345504 l -19.53859050199047 -1.8503248347344492" fill="#fff116" stroke="none" /><path d="M 120.9064616781168 101.97986365728391 l 19.5434617082127 1.8507861430282684 a40.63090178487992,40.63090178487992 0 0,0 -0.07171858668942392,0.6938122683630623 l -19.50881072904161 -2.186002933674262" fill="#fff116" stroke="none" /><path d="M 120.82617615685814 102.69636545807757 l 27.377997888445282 3.5446299532722927 a48.60650593402485,48.60650593402485 0 0,0 -0.11423798090170668,0.826569122218201 l -27.313115390988365 -4.014087383690579" fill="#adff20" stroke="none" /><path d="M 120.77682067341334 103.0534771498775 l 19.676632263122645 2.8917873406334067 a40.8879936454537,40.8879936454537 0 0,0 -0.1080192798528462,0.6935612644582075 l -19.62409149113153 -3.2291367870230645" fill="#fff417" stroke="none" /><path d="M 120.65975698304385 103.76489593502545 l 20.932890772993172 3.8146700101194737 a42.27763199700962,42.27763199700962 0 0,0 -0.13624210051276484,0.7128762403145988 l -20.86432238019825 -4.1734488154673866" fill="#f8ff18" stroke="none" /><path d="M 120.592083275326 104.11899336999214 l 19.313479304480964 3.86323676643047 a40.6960676572283,40.6960676572283 0 0,0 -0.14290577092812176,0.6838558463624671 l -19.244315822728478 -4.194209064078346" fill="#fff216" stroke="none" /><path d="M 120.51834098615036 104.47187691870673 l 17.915120015007783 3.9045170243076823 a39.33566956359219,39.33566956359219 0 0,0 -0.14945519926340176,0.6585271842894774 l -17.84545395418672 -4.2114785425361765" fill="#ffe115" stroke="none" /><path d="M 120.35273937422433 105.17358676015961 l 12.819366544801987 3.2586328459457423 a34.22704980842912,34.22704980842912 0 0,0 -0.1496382482587731,0.5682008019534048 l -12.761538815738485 -3.4782141522719505" fill="#ff9f0e" stroke="none" /><path d="M 120.26092885502905 105.52220625578681 l 12.889353764862257 3.513050685023467 a34.35952714699561,34.35952714699561 0 0,0 -0.15998697028750689,0.5677373170689022 l -12.82714830250017 -3.733795925995378" fill="#ffa00e" stroke="none" /><path d="M 120.05942366710727 106.21446072829308 l 12.499589685557131 3.8724048362389363 a34.08568918792636,34.08568918792636 0 0,0 -0.17795210581173612,0.5574324369097482 l -12.43127286396814 -4.086406306840068" fill="#ff9d0e" stroke="none" /><path d="M 119.83427380445688 106.89939002012753 l 26.374351119429143 9.174368403638738 a48.9244593963181,48.9244593963181 0 0,0 -0.2827363844299604,0.7908639877624266 l -26.21297456495524 -9.625767347782087" fill="#aaff21" stroke="none" /><path d="M 119.4528033332814 107.91128576633889 l 19.53071634616472 7.942972310395075 a42.08410989627138,42.08410989627138 0 0,0 -0.2779037332523412,0.6668677925037958 l -19.391486768375895 -8.277072612340149" fill="#fbff18" stroke="none" /><path d="M 119.16976305983485 108.57439118712176 l 19.247665040608794 8.609235752248757 a42.08533968787964,42.08533968787964 0 0,0 -0.3006407026206672,0.6569541922344939 l -19.09703987313307 -8.93837892669794" fill="#fbff18" stroke="none" /><path d="M 119.0197475246899 108.90220220490707 l 16.05603682405263 7.51503595048278 a38.72772077375946,38.72772077375946 0 0,0 -0.2869922211587514,0.5997033628161977 l -15.924665344933965 -7.7895518153640815" fill="#ffd914" stroke="none" /><path d="M 118.70294669586154 109.54985784667822 l 15.212580563426066 7.76765202961334 a38.080955050929816,38.080955050929816 0 0,0 -0.30227561584369766,0.5796533499142035 l -15.076996878607419 -8.027651622632048" fill="#ffd113" stroke="none" /><line stroke="#e1ed5e" stroke-width="0.3" x1="174.33088141563837" x2="178.70328620479359" y1="141.23008692659167" y2="143.65538615756765" /><path d="M 175.20536237346943 141.71514677278685 a86.0,86.0 0 0,1 -30.301960400862466,31.631185727798858" fill="none" id="id29" stroke="none" /><text fill="#e1ed5e" style="font-size:6.75px; font-family:Arial;" text-anchor="middle"><textPath startOffset="22.145653131862474" xlink:href="#id29">May</textPath></text><path d="M 118.36410011445183 110.18625677009912 l 17.277069862902433 9.583299413618917 a40.75694234183722,40.75694234183722 0 0,0 -0.34462252874560667,0.6089149872005635 l -17.11001396913545 -9.878471170918605" fill="#fff316" stroke="none" /><path d="M 118.18653347947321 110.5 l 47.8742663079252 27.64022054013643 a76.28044108027288,76.28044108027288 0 0,0 -0.6644618131656833,1.1284014239828335 l -47.39273078462975 -28.45797313241281" fill="#43ffe1" stroke="none" /><path d="M 117.81537515405839 111.11811171558189 l 11.224269038515892 7.004774023382749 a34.230686851696106,34.230686851696106 0 0,0 -0.31538249091892673,0.4958336593639304 l -11.102368855971076 -7.1964213574253515" fill="#ff9f0e" stroke="none" /><path d="M 117.62189284568427 111.42229804090321 l 20.287490261749046 13.150106081162075 a45.17659097280628,45.17659097280628 0 0,0 -0.4274040266271963,0.6471441710793363 l -20.058761796201125 -13.496430130580473" fill="#d5ff1c" stroke="none" /><path d="M 117.423217284605 111.72311816256416 l 16.398024607225082 11.033322776327443 a40.764347257265676,40.764347257265676 0 0,0 -0.39562820681214245,0.5772333772311206 l -16.20620666359762 -11.313190888628608" fill="#fff316" stroke="none" /><path d="M 117.01052211995028 112.31430620078461 l 16.123016157280453 11.67182032631985 a40.90434725726568,40.90434725726568 0 0,0 -0.41663606040813855,0.5652468332158762 l -15.920278077288485 -11.946873468804602" fill="#fff517" stroke="none" /><path d="M 116.79662413953412 112.60449989151573 l 10.578362465982794 7.938200405465079 a34.22561069058966,34.22561069058966 0 0,0 -0.3566765344512822,0.46690103306730446 l -10.440533954177207 -8.118622351773261" fill="#ff9f0e" stroke="none" /><path d="M 116.57777611688842 112.89097897827486 l 15.704895760491155 12.21222193357071 a40.8942734323895,40.8942734323895 0 0,0 -0.4356867505404028,0.5504759765445788 l -15.492942579309192 -12.480017854029972" fill="#fff517" stroke="none" /><path d="M 116.1254893667686 113.45245675266167 l 12.312172539794945 10.27125223028755 a37.03397065694794,37.03397065694794 0 0,0 -0.4114393661516168,0.48467453877703376 l -12.134038610136214 -10.48109355151414" fill="#ffc312" stroke="none" /><path d="M 115.89218393027572 113.72728997021213 l 20.892932394266687 18.046817389129046 a48.60801046631156,48.60801046631156 0 0,0 -0.5508651759032108,0.6267834492522538 l -20.58005615440489 -18.402813116192593" fill="#adff20" stroke="none" /><path d="M 115.6541949942343 113.99807769240083 l 14.679405253550438 13.12641469542949 a40.692325950845714,40.692325950845714 0 0,0 -0.470097706369848,0.5167197282976185 l -14.451909846338712 -13.37647199928478" fill="#fff216" stroke="none" /><path d="M 115.41159269507618 114.26474011684316 l 9.614715785876973 8.899237392035586 a34.10111391458742,34.10111391458742 0 0,0 -0.4013281603374063,0.426196598680429 l -9.460531791803307 -9.062975450660511" fill="#ff9d0e" stroke="none" /><path d="M 115.16444852881244 114.52719865689866 l 10.494650534856817 10.053637813793419 a35.533180076628355,35.533180076628355 0 0,0 -0.4257436716364223,0.4368505130693438 l -10.320520062069587 -10.232311018930499" fill="#ffb010" stroke="none" /><path d="M 114.65682725009322 115.03919595460226 l 19.316669237697997 19.820604343558056 a48.67652555835903,48.67652555835903 0 0,0 -0.6034208997772004,0.5780635720535781 l -18.973575852055486 -20.149280045917216" fill="#adff20" stroke="none" /><path d="M 114.39649973595853 115.28858382429668 l 20.184392199969473 21.43512504785714 a50.44272871694234,50.44272871694234 0 0,0 -0.6355068701042356,0.5882156714017991 l -19.81345555855127 -21.77845846539132" fill="#99ff23" stroke="none" /><path d="M 113.86319453409587 115.77377054828091 l 8.969071870258864 10.205157358540294 a34.586371367161945,34.586371367161945 0 0,0 -0.44932722997639035,0.38811815949647605 l -8.792565160519617 -10.357619650501487" fill="#ffa30f" stroke="none" /><path d="M 113.03279911837588 116.46651593811092 l 12.341532600392954 15.593123274535001 a40.886148958041304,40.886148958041304 0 0,0 -0.5540853045533896,0.43086008417572114 l -12.072037351204333 -15.802684410331516" fill="#fff417" stroke="none" /><path d="M 112.45986205192187 116.90419585922612 l 15.695094750337628 21.293410359057358 a47.452699747687134,47.452699747687134 0 0,0 -0.6598614016831936,0.4776887677583829 l -15.327252338280466 -21.559699898188818" fill="#bbff1f" stroke="none" /><path d="M 111.8722381534696 117.32195027204791 l 7.842555779229523 11.442523259514873 a34.87216708718812,34.87216708718812 0 0,0 -0.49668545799426084,0.3341921425062448 l -7.644974033138259 -11.575465076078238" fill="#ffa70f" stroke="none" /><path d="M 111.27062007382361 117.71928675628689 l 15.534371164381238 24.422611660875816 a49.94444070647603,49.94444070647603 0 0,0 -0.7273715016940726,0.4539336132207675 l -15.112835533897451 -24.68568107093813" fill="#9eff22" stroke="none" /><line stroke="#e1ed5e" stroke-width="0.3" x1="143.1302829299769" x2="145.66735839644613" y1="173.24464959558577" y2="177.55315839532614" /><path d="M 143.63769802327073 174.10635135553383 a86.0,86.0 0 0,1 -40.68552437913181,11.842963189579606" fill="none" id="id30" stroke="none" /><text fill="#e1ed5e" style="font-size:6.75px; font-family:Arial;" text-anchor="middle"><textPath startOffset="21.407464694133747" xlink:href="#id30">June</textPath></text><path d="M 110.34350942703117 118.27599006163325 l 13.7377579985278 24.273302056851353 a48.891202691337256,48.891202691337256 0 0,0 -0.7339636093563079,0.407117241695304 l -13.319050201015397 -24.5055522139798" fill="#aaff21" stroke="none" /><path d="M 110.02825361518725 118.45085714620011 l 9.444657548338753 17.37710611499378 a40.777901130735444,40.777901130735444 0 0,0 -0.6179040099309598,0.32899908170646913 l -9.14496472262124 -17.536675664422816" fill="#fff316" stroke="none" /><path d="M 109.71004243097381 118.62028667847754 l 6.1123995723320945 11.721332130040217 a34.21934398654331,34.21934398654331 0 0,0 -0.5231857068999085,0.26714234978884394 l -5.910286643718604 -11.824532431501899" fill="#ff9e0e" stroke="none" /><path d="M 109.06512990194946 118.94263497670748 l 5.848105819111671 12.220291935669707 a34.547541351275584,34.547541351275584 0 0,0 -0.5371505790086816,0.25141359329879787 l -5.637466526231483 -12.318881760539037" fill="#ffa30f" stroke="none" /><path d="M 108.73861861582097 119.09545874513695 l 5.483066026238773 11.9814888032012 a34.17649752359593,34.17649752359593 0 0,0 -0.5355727272549179,0.2395548686910529 l -5.276579896128228 -12.073847422802103" fill="#ff9e0e" stroke="none" /><path d="M 108.4095320186766 119.2426549942271 l 13.163658965257138 30.12102782503823 a53.8718456219045,53.8718456219045 0 0,0 -0.850572116383662,0.3630586583397401 l -12.644651773703044 -30.342561133037375" fill="#73ff27" stroke="none" /><path d="M 108.07796709384702 119.3841803445677 l 5.091673278593226 12.218162310050188 a34.23663956639567,34.23663956639567 0 0,0 -0.5444368117632701,0.2214177116675323 l -4.881182005639515 -12.303767278297011" fill="#ff9f0e" stroke="none" /><path d="M 107.74402155503746 119.51999308798841 l 9.782544830619724 24.65840340441948 a47.52800485935893,47.52800485935893 0 0,0 -0.7609635020027997,0.2943570299325702 l -9.357809066123394 -24.822700322490093" fill="#baff1f" stroke="none" /><path d="M 107.407793817531 119.65005319985036 l 4.7817340243524304 12.68411760377221 a34.55550883095038,34.55550883095038 0 0,0 -0.5568551932621535,0.20448494021399127 l -4.56328967943615 -12.764333392994923" fill="#ffa30f" stroke="none" /><path d="M 107.06938296918513 119.77432235084164 l 4.41749342748966 12.356515327952858 a34.12241285861134,34.12241285861134 0 0,0 -0.5532611724882804,0.1924529554055053 l -4.204726482956358 -12.430526715926954" fill="#ff9d0e" stroke="none" /><path d="M 106.38641147887787 120.00534299687104 l 5.9921540660099435 18.770337266412234 a40.70359031866181,40.70359031866181 0 0,0 -0.6674601239041457,0.20678085255787038 l -5.669053309234173 -18.87043470677675" fill="#fff216" stroke="none" /><path d="M 106.0420521117495 120.11202640906438 l 5.085502080513926 16.92798245611828 a38.67537613307167,38.67537613307167 0 0,0 -0.6374806769446728,0.1855613343156599 l -4.794161391187647 -17.012787484736457" fill="#ffd914" stroke="none" /><path d="M 105.3480935250658 120.30758222061773 l 5.672710790775325 21.540206852691096 a43.274652836183535,43.274652836183535 0 0,0 -0.7199968875462416,0.18302039328832456 l -5.302108610003686 -21.63441247781469" fill="#ecff1a" stroke="none" /><path d="M 104.9986988182912 120.39639698878246 l 4.678366664569812 19.089332487983693 a40.65425474254742,40.65425474254742 0 0,0 -0.6792509906108533,0.1603013842796032 l -4.349983520219079 -19.16683001590952" fill="#fff216" stroke="none" /><path d="M 104.64783097203109 120.47920084513623 l 2.8978327758709552 12.768385896517728 a34.09309410335482,34.09309410335482 0 0,0 -0.5718509084258139,0.1246322439059267 l -2.6782194508260053 -12.816249598557373" fill="#ff9d0e" stroke="none" /><path d="M 104.29559338865022 120.5559693870025 l 2.677702957336919 12.813777990239348 a34.09056910569106,34.09056910569106 0 0,0 -0.5738636185291196,0.11478879569380142 l -2.457342853276841 -12.857856182596011" fill="#ff9d0e" stroke="none" /><path d="M 102.51750503828377 120.84855314841334 l 1.9059088589959776 15.783659432077213 a36.89831417624521,36.89831417624521 0 0,0 -0.629492440990616,0.0705359410085819 l -1.6346805164045624 -15.814051133592766" fill="#ffc212" stroke="none" /><path d="M 102.15924093988457 120.88869738790638 l 1.899896617844155 18.379776330368678 a39.477710494346326,39.477710494346326 0 0,0 -0.6746936920467077,0.06389419411321039 l -1.5841033624124319 -18.40968227998707" fill="#ffe315" stroke="none" /><path d="M 101.44090949804482 120.95050786540614 l 0.9026808994598147 13.124782166920332 a34.15578730959723,34.15578730959723 0 0,0 -0.5852929986057541,0.03520977338539396 l -0.6772435487215954 -13.138343918130417" fill="#ff9e0e" stroke="none" /><path d="M 101.08105385017728 120.97215588758144 l 1.4836552355434625 28.782515207860598 a49.82072890384076,49.82072890384076 0 0,0 -0.8544830066311006,0.036695176918827836 l -0.9893464683115323 -28.80374295320526" fill="#a0ff22" stroke="none" /><path d="M 100.72087961077811 120.9876233191556 l 0.4952025034585119 14.417280574868606 a35.42578263713672,35.42578263713672 0 0,0 -0.607951447668947,0.01565867273970322 l -0.24763774171882103 -14.423656964958354" fill="#ffae10" stroke="none" /><line stroke="#e1ed5e" stroke-width="0.3" x1="101.45913802915013" x2="101.54496967792366" y1="184.9874750549273" y2="189.98673829345242" /><path d="M 101.47630435890484 185.9873277026323 a86.0,86.0 0 0,1 -42.54439059252881,-10.42667462771756" fill="none" id="id31" stroke="none" /><text fill="#e1ed5e" style="font-size:6.75px; font-family:Arial;" text-anchor="middle"><textPath startOffset="22.145653131862474" xlink:href="#id31">July</textPath></text><path d="M 100.0 121.0 l 1.6057695632462288e-15 13.112103541725077 a34.11210354172508,34.11210354172508 0 0,0 -0.5855796180239696,-0.0050264967432328955 l 0.22508669317511584 -13.110171443176279" fill="#ff9d0e" stroke="none" /><path d="M 98.55909050195518 120.95050786540614 l -0.8991853373096221 13.073957460426929 a34.104842538080554,34.104842538080554 0 0,0 -0.5837303731664086,-0.045184422651975385 l 1.1234847052512669 -13.0565952707799" fill="#ff9d0e" stroke="none" /><path d="M 98.19965949673042 120.92268563240118 l -1.1218236117177387 13.037290846008638 a34.08546677880572,34.08546677880572 0 0,0 -0.5825375671018538,-0.055166913266570826 l 1.3454607422046079 -13.016112177236884" fill="#ff9d0e" stroke="none" /><path d="M 97.48249496171623 120.84855314841334 l -1.7596154908054966 14.572140481529669 a35.6779945799458,35.6779945799458 0 0,0 -0.6074130634662224,-0.07864178189888464 l 2.0095063761625127 -14.539787103430386" fill="#ffb210" stroke="none" /><path d="M 97.12497278360702 120.80226474461374 l -1.793933516519368 12.980009278552501 a34.10339033735165,34.10339033735165 0 0,0 -0.579229673666419,-0.08512681515967799 l 2.0164882957934718 -12.94730139009394" fill="#ff9d0e" stroke="none" /><path d="M 96.05791012581884 120.62667999033965 l -1.4335734067820942 7.501061834745045 a28.63682272684796,28.63682272684796 0 0,0 -0.4820579751032231,-0.09642509584162379 l 1.5621278674162753 -7.47534734224056" fill="#ff5207" stroke="none" /><path d="M 95.70440661134978 120.55596938700252 l -2.5472227861065515 12.189383136548363 a33.45268666479768,33.45268666479768 0 0,0 -0.5611092146859799,-0.1222911417507671 l 2.756094417411668 -12.143860536663876" fill="#ff940d" stroke="none" /><path d="M 94.6519064749342 120.30758222061772 l -4.082566306094235 15.502169239105086 a37.0307391832539,37.0307391832539 0 0,0 -0.6133323726224792,-0.16716646552616857 l 4.348080079651409 -15.429802279434773" fill="#ffc312" stroke="none" /><path d="M 94.30408787586889 120.21278271476187 l -3.594288572903489 12.75486214586435 a34.25161947481544,34.25161947481544 0 0,0 -0.5645645305201206,-0.1643365067827811 l 3.812713115805216 -12.691281944779051" fill="#ff9f0e" stroke="none" /><path d="M 93.61358852112213 120.00534299687104 l -3.98067018818174 12.4693926683827 a34.0893654798617,34.0893654798617 0 0,0 -0.5559444078508833,-0.18274996931964588 l 4.1941373336803665 -12.399221777661031" fill="#ff9d0e" stroke="none" /><path d="M 93.27111125876986 119.89276391827306 l -9.265564305358549 27.391994485909656 a49.916639566395666,49.916639566395666 0 0,0 -0.80934893577461,-0.2815335729120294 l 9.73441901317818 -27.228902480429035" fill="#9fff22" stroke="none" /><path d="M 92.93061703081489 119.77432235084164 l -4.415520351097919 12.350996282123395 a34.116551724137935,34.116551724137935 0 0,0 -0.5497814862667454,-0.20188737702422505 l 4.626890989018783 -12.27337805609045" fill="#ff9d0e" stroke="none" /><path d="M 92.59220618246901 119.65005319985036 l -4.627606316584253 12.275275547443888 a34.118579572002616,34.118579572002616 0 0,0 -0.5462672769728079,-0.21130791789075354 l 4.837645856050589 -12.194027741415095" fill="#ff9d0e" stroke="none" /><path d="M 92.25597844496254 119.51999308798841 l -4.924573420688576 12.413141989590887 a34.35430707410522,34.35430707410522 0 0,0 -0.5463079802995771,-0.22217869962150907 l 5.136935862178594 -12.326776033390086" fill="#ffa00e" stroke="none" /><path d="M 91.92203290615298 119.3841803445677 l -2.0665484543395647 4.958963989865489 a26.372331557798336,26.372331557798336 0 0,0 -0.41638762526389866,-0.17773111728646515 l 2.1513711547738947 -4.9227582229196205" fill="#ff3204" stroke="none" /><path d="M 90.93487009805054 118.94263497670748 l -7.687573526568149 16.06407197088968 a38.80879543967853,38.80879543967853 0 0,0 -0.5984681257916588,-0.29274074994493055 l 7.962201901621877 -15.929737470847531" fill="#ffda14" stroke="none" /><path d="M 90.6110303473126 118.78422872680471 l -10.560743949534144 21.12856226098116 a44.620869077656295,44.620869077656295 0 0,0 -0.6822164954436957,-0.34834460355853214 l 10.921887666691424 -20.94415970574979" fill="#dcff1b" stroke="none" /><path d="M 90.28995756902619 118.62028667847754 l -9.212402378304823 17.665996261184283 a40.92374918231941,40.92374918231941 0 0,0 -0.6201140328456943,-0.33017579442852896 l 9.51430522693708 -17.505249999033182" fill="#fff517" stroke="none" /><path d="M 89.97174638481275 118.45085714620012 l -8.1908618874862 15.070263316973461 a38.1523483786562,38.1523483786562 0 0,0 -0.572749979136403,-0.31769475858830754 l 8.448356054778706 -14.927435642952005" fill="#ffd213" stroke="none" /><line stroke="#e1ed5e" stroke-width="0.3" x1="58.13341422392154" x2="55.67067388415222" y1="173.97424548756322" y2="178.32567169271397" /><path d="M 57.64086615596768 174.84453072859336 a86.0,86.0 0 0,1 -31.369924170532247,-30.572349798747897" fill="none" id="id32" stroke="none" /><text fill="#e1ed5e" style="font-size:6.75px; font-family:Arial;" text-anchor="middle"><textPath startOffset="22.145653131862474" xlink:href="#id32">August</textPath></text><path d="M 88.72937992617639 117.7192867562869 l -8.575922700087991 13.482774907437411 a36.979101018596396,36.979101018596396 0 0,0 -0.5327004459211837,-0.3452899931419125 l 8.806108778266184 -13.333571072591605" fill="#ffc312" stroke="none" /><path d="M 88.1277618465304 117.32195027204791 l -7.399514901185204 10.796113378011166 a34.08850200915802,34.08850200915802 0 0,0 -0.4798442156400034,-0.33496852909652536 l 7.583754207998973 -10.66750003310951" fill="#ff9d0e" stroke="none" /><path d="M 87.83215693770417 117.11559508785305 l -7.601780642165339 10.692856470276704 a34.119613120269136,34.119613120269136 0 0,0 -0.4744559499910752,-0.3434695187940158 l 7.784217602530369 -10.560786180109623" fill="#ff9d0e" stroke="none" /><path d="M 87.2517909369889 116.68781488649013 l -12.118276066068898 15.863212372371912 a40.962317540416784,40.962317540416784 0 0,0 -0.5551175341284081,-0.4316627521366368 l 12.388803544832534 -15.652848568614482" fill="#fff517" stroke="none" /><path d="M 86.68645165197938 116.24036423190432 l -19.588553837881353 23.89485062791376 a51.89782076441455,51.89782076441455 0 0,0 -0.6841261327931337,-0.5707223517650996 l 19.995854304836378 -23.55506609223679" fill="#89ff24" stroke="none" /><path d="M 85.86807049272751 115.53346607816431 l -2.6472044982635135 2.9097414655641454 a24.933737033922064,24.933737033922064 0 0,0 -0.31412973852676973,-0.2907537962956881 l 2.6967640081042505 -2.86386992313608" fill="#ff1d02" stroke="none" /><path d="M 85.60350026404147 115.28858382429668 l -6.376676701101855 6.771809679663388 a30.301581160639195,30.301581160639195 0 0,0 -0.3756350141856963,-0.3598498463821097 l 6.4919842011528655 -6.661347702975696" fill="#ff6909" stroke="none" /><path d="M 85.08716467003676 114.78537596483092 l -19.604067806689805 19.436512678415088 a48.60611344734137,48.60611344734137 0 0,0 -0.5823780803862961,-0.597571215184988 l 19.93483268822691 -19.097118771162364" fill="#adff20" stroke="none" /><path d="M 84.83555147118756 114.52719865689866 l -32.6213773561045 31.25054158173846 a66.17466778805719,66.17466778805719 0 0,0 -0.7787944332504682,-0.8270526998243746 l 33.15302762309122 -30.685947421969594" fill="#37ff73" stroke="none" /><path d="M 84.1078160697243 113.72728997021213 l -12.382656266226396 10.695843561445928 a37.36249509391646,37.36249509391646 0 0,0 -0.4150892012547409,-0.4889740353511333 l 12.56444003098825 -10.481702743645242" fill="#ffc812" stroke="none" /><path d="M 83.64595745247003 113.17365903436017 l -21.510494628369894 17.327331824594044 a48.62132884777124,48.62132884777124 0 0,0 -0.5180106404791556,-0.654489522172892 l 21.804771699490612 -16.95552235850647" fill="#adff20" stroke="none" /><path d="M 83.4222238831116 112.89097897827486 l -23.250001803167393 18.07934202852167 a50.4520829828988,50.4520829828988 0 0,0 -0.525778028531639,-0.6882603170493655 l 23.556931809053328 -17.677560798231433" fill="#99ff23" stroke="none" /><path d="M 83.20337586046588 112.60449989151573 l -23.142611941015623 17.366647445146253 a49.93407905803196,49.93407905803196 0 0,0 -0.5086094602121135,-0.6900264140528495 l 23.43732342081157 -16.966814721824523" fill="#9eff22" stroke="none" /><path d="M 82.98947788004972 112.3143062007846 l -6.373443060899941 4.613881270178034 a28.868206709653304,28.868206709653304 0 0,0 -0.28714916734107904,-0.40391126454064946 l 6.451707326770981 -4.503792778927881" fill="#ff5507" stroke="none" /><path d="M 82.576782715395 111.72311816256416 l -13.79354588254516 9.28091325617037 a37.62519951406411,37.62519951406411 0 0,0 -0.35596226781791845,-0.5389722426351365 l 13.950832589283804 -9.042761135196173" fill="#ffcb12" stroke="none" /><path d="M 82.37810715431573 111.42229804090323 l -15.730620163252992 10.196397937859567 a39.74617138585179,39.74617138585179 0 0,0 -0.3661990947032193,-0.5757258009263796 l 15.9033369495821 -9.924858462254516" fill="#ffe615" stroke="none" /><path d="M 81.99639281039703 110.81064883170644 l -23.690779748368552 14.225632547505235 a48.63370526119054,48.63370526119054 0 0,0 -0.4236372983843747,-0.7194287486163926 l 23.9314907568827 -13.816852630595283" fill="#adff20" stroke="none" /><line stroke="#e1ed5e" stroke-width="0.3" x1="26.387840678322732" x2="22.057713659400548" y1="142.50000000000003" y2="145.00000000000006" /><path d="M 25.521815274538298 143.00000000000003 a86.0,86.0 0 0,1 -11.493303480769221,-40.785679425670985" fill="none" id="id33" stroke="none" /><text fill="#e1ed5e" style="font-size:6.75px; font-family:Arial;" text-anchor="middle"><textPath startOffset="21.40746469413373" xlink:href="#id33">September</textPath></text><path d="M 81.63589988554817 110.18625677009913 l -12.15148208576272 6.740222275603381 a34.895650873750114,34.895650873750114 0 0,0 -0.2860689798150461,-0.5263347022389835 l 12.265396415193095 -6.5306327398898105" fill="#ffa70f" stroke="none" /><path d="M 81.4637452351635 109.86951160357371 l -7.348828491706881 3.912837247422994 a29.325597607700217,29.325597607700217 0 0,0 -0.232778118747198,-0.4463827356431894 l 7.414914679429028 -3.786108268675302" fill="#ff5c08" stroke="none" /><path d="M 81.29705330413844 109.54985784667822 l -11.661706439717745 5.954550401068034 a34.093970656947945,34.093970656947945 0 0,0 -0.2616794833068268,-0.5235342587501658 l 11.762205836236308 -5.753484286154116" fill="#ff9d0e" stroke="none" /><path d="M 80.9802524753101 108.90220220490708 l -11.849475113779377 5.546152668322456 a34.08319035604149,34.08319035604149 0 0,0 -0.2434765733670741,-0.5320402533325934 l 11.942936152001508 -5.341923432775174" fill="#ff9d0e" stroke="none" /><path d="M 80.83023694016515 108.57439118712176 l -57.50928917950453 25.7231735613653 a84.0,84.0 0 0,0 -0.577464471932128,-1.3213517208966026 l 57.942387533453626 -24.73215977069285" fill="#4dd2ff" stroke="none" /><path d="M 80.5471966667186 107.91128576633889 l -7.279201074862453 2.96038770696624 a28.858159050556022,28.858159050556022 0 0,0 -0.1826877096294879,-0.4604923687109746 l 7.328947459458066 -2.8349943210417003" fill="#ff5507" stroke="none" /><path d="M 80.41425534168474 107.57618678355246 l -9.962575183537503 3.853738101482893 a31.681956826464816,31.681956826464816 0 0,0 -0.19185584690676635,-0.5089204277660108 l 10.027261714258705 -3.6821493935227374" fill="#ff7c0b" stroke="none" /><path d="M 80.16572619554312 106.89939002012753 l -7.782563001410131 2.707179402296908 a29.239970096252687,29.239970096252687 0 0,0 -0.16084013423358168,-0.4754952774426609 l 7.82788855721608 -2.5731824503800853" fill="#ff5a08" stroke="none" /><path d="M 80.05021161711548 106.5578916946017 l -18.666993934787662 6.1362116799769355 a40.649675731240066,40.649675731240066 0 0,0 -0.21222089296937766,-0.664778924595779 l 18.769579543534295 -5.814863721689765" fill="#fff116" stroke="none" /><path d="M 79.83685265289637 105.86919833188381 l -26.582091554417563 7.737659439937648 a48.6853565087375,48.6853565087375 0 0,0 -0.22669178920529784,-0.8044491871661728 l 26.711001835697438 -7.280202328868479" fill="#adff20" stroke="none" /><path d="M 79.73907114497094 105.5222062557868 l -9.677129063325284 2.6375445584908013 a31.030128025418186,31.030128025418186 0 0,0 -0.13566153165282197,-0.5151289324508881 l 9.720980075782839 -2.4710351216671107" fill="#ff730a" stroke="none" /><path d="M 79.56144815229197 104.8234425847677 l -7.652943027986429 1.8060737167212904 a28.863169797215214,28.863169797215214 0 0,0 -0.10966511670640888,-0.483204738780426 l 7.682819006250504 -1.674434644001838" fill="#ff5507" stroke="none" /><path d="M 79.48165901384964 104.47187691870673 l -12.859630375439142 2.8026965873041387 a34.1615045322867,34.1615045322867 0 0,0 -0.11995940694736142,-0.5740491880372814 l 12.90584749321087 -2.581530947981448" fill="#ff9e0e" stroke="none" /><path d="M 79.407916724674 104.11899336999214 l -7.7010658280711315 1.540428846541552 a28.85361928791702,28.85361928791702 0 0,0 -0.0929824475377341,-0.48652345615984277 l 7.726374567891023 -1.4080028253483947" fill="#ff5507" stroke="none" /><path d="M 79.34024301695615 103.76489593502545 l -9.672290325917029 1.7626134983251835 a30.831582095131296,30.831582095131296 0 0,0 -0.09041755287294388,-0.5215044174414927 l 9.701122696282207 -1.596316047963098" fill="#ff700a" stroke="none" /><path d="M 79.13060592940153 102.33845913500099 l -8.022992594136982 0.8989930545341813 a29.07320250443884,29.07320250443884 0 0,0 -0.051317812368361054,-0.4964532828973486 l 8.037242798987009 -0.7611352493539013" fill="#ff5808" stroke="none" /><path d="M 79.0935383218832 101.97986365728391 l -14.991918625853005 1.4197502809073055 a36.05899448649659,36.05899448649659 0 0,0 -0.053069185178083234,-0.6167443748736487 l 15.01408143372883 -1.1621848586579948" fill="#ffb711" stroke="none" /><path d="M 79.03789590574601 101.26102812881392 l -19.863518240769313 1.1949399318976093 a40.89942809083263,40.89942809083263 0 0,0 -0.03614420845243124,-0.7011879879742776 l 19.88110403867832 -0.8537801505466008" fill="#fff517" stroke="none" /><path d="M 79.01933749520258 100.90099992219065 l -19.8365978206745 0.8518688620470469 a40.8548808522568,40.8548808522568 0 0,0 -0.024075806583483513,-0.7009408396689245 l 19.84829831425483 -0.5112217578140025" fill="#fff417" stroke="none" /><path d="M 79.00696218219943 100.54070618675478 l -13.270532112218838 0.34180183339260645 a34.274933183814596,34.274933183814596 0 0,0 -0.010100608021866103,-0.5883097795743161 l 13.27444415183937 -0.113945137849238" fill="#ff9f0e" stroke="none" /><line stroke="#e1ed5e" stroke-width="0.3" x1="15.003131293944662" x2="10.003315487706104" y1="100.72959589197737" y2="100.7725132973878" /><path d="M 14.003168132696942 100.73817937305945 a86.0,86.0 0 0,1 10.791469493833604,-42.45332614584628" fill="none" id="id34" stroke="none" /><text fill="#e1ed5e" style="font-size:6.75px; font-family:Arial;" text-anchor="middle"><textPath startOffset="22.145653131862435" xlink:href="#id34">October</textPath></text><path d="M 79.00077361379809 99.81974689727619 l -26.595893393798434 -0.22829375786404996 a47.59687318942155,47.59687318942155 0 0,0 0.014026500258207347,-0.816973320540806 l 26.58805546194156 0.6848139943739082" fill="#b9ff1f" stroke="none" /><path d="M 79.00696218219943 99.45929381324524 l -13.512825367436463 -0.3480424481736617 a34.51730679375759,34.51730679375759 0 0,0 0.020341070266594766,-0.5922080667575506 l 13.504859610173018 0.5799567794953507" fill="#ffa20f" stroke="none" /><path d="M 79.03789590574601 98.7389718711861 l -13.873304631194053 -0.8345835561581588 a34.898385197645084,34.898385197645084 0 0,0 0.04110703864407205,-0.5976873201299249 l 13.856933631384917 1.0726143004424087" fill="#ffa70f" stroke="none" /><path d="M 79.06263194458094 98.37931529534042 l -16.377048462030732 -1.2676871266545047 a37.42603868797309,37.42603868797309 0 0,0 0.05508110821996948,-0.6401259703249252 l 16.352873731113018 1.5486341443551106" fill="#ffc912" stroke="none" /><path d="M 79.13060592940154 97.66154086499901 l -13.110605418092254 -1.469070683203221 a34.19265489206616,34.19265489206616 0 0,0 0.07036834331801169,-0.5827508280307275 l 13.083454988514573 1.6939151881573848" fill="#ff9e0e" stroke="none" /><path d="M 79.22317932658666 96.9465228501225 l -15.682444947444642 -2.3047793526230063 a36.850901784879916,36.850901784879916 0 0,0 0.09735395449449484,-0.6250822248694119 l 15.64056950081188 2.5736497594238683" fill="#ffc112" stroke="none" /><path d="M 79.2786578344484 96.59031103205396 l -20.86081410322511 -3.4326390222149166 a42.141347537613306,42.141347537613306 0 0,0 0.12358488472509987,-0.7128047736892796 l 20.798814401007775 3.790236828824789" fill="#faff18" stroke="none" /><path d="M 79.407916724674 95.88100663000787 l -38.88096804661664 -7.777282534341074 a60.65117652555836,60.65117652555836 0 0,0 0.21297888562810002,-1.0191810669549584 l 38.74173145016417 8.443580052581442" fill="#30ff31" stroke="none" /><path d="M 79.64726062577567 94.8264132398404 l -7.734966576617806 -1.966198256424733 a28.980955050929822,28.980955050929822 0 0,0 0.12670269190479888,-0.4811107586976265 l 7.700074403908282 2.098689519495144" fill="#ff5708" stroke="none" /><path d="M 79.73907114497095 94.47779374421319 l -15.275868145257533 -4.163505791758266 a36.83309597233903,36.83309597233903 0 0,0 0.1715045555112833,-0.6086091638343564 l 15.202145097671668 4.425122879495635" fill="#ffc111" stroke="none" /><path d="M 80.05021161711548 93.44210830539832 l -26.690148433058173 -8.77358192365601 a49.09519110363517,49.09519110363517 0 0,0 0.2700576334838378,-0.7983774072982118 l 26.535605378001968 9.230461005428385" fill="#a8ff21" stroke="none" /><path d="M 80.41425534168474 92.42381321644754 l -7.324408383974222 -2.8332385091340995 a28.853292215680778,28.853292215680778 0 0,0 0.18265689994009562,-0.46041470816732755 l 7.274692809067996 2.95855423451501" fill="#ff5507" stroke="none" /><path d="M 80.9802524753101 91.09779779509293 l -53.528808212334795 -25.05418507134804 a80.10199233716475,80.10199233716475 0 0,0 0.5935967374475992,-1.2403888794154363 l 53.09083221692729 25.969386452828562" fill="#48f7ff" stroke="none" /><path d="M 81.46374523516351 90.13048839642627 l -4.4170481053335395 -2.351829324866169 a26.004139800018688,26.004139800018688 0 0,0 0.21317779027741732,-0.3922231233955329 l 4.376024965440772 2.4273072817363217" fill="#ff2c04" stroke="none" /><line stroke="#e1ed5e" stroke-width="0.3" x1="26.387840678322718" x2="22.05771365940052" y1="57.49999999999999" y2="54.99999999999999" /><path d="M 25.521815274538284 56.99999999999999 a86.0,86.0 0 0,1 29.574782752854787,-30.34633250058573" fill="none" id="id35" stroke="none" /><text fill="#e1ed5e" style="font-size:6.75px; font-family:Arial;" text-anchor="middle"><textPath startOffset="21.40746469413373" xlink:href="#id35">November</textPath></text><path d="M 81.81346652052679 89.5 l -9.092779544808023 -5.249718717876836 a31.49943743575367,31.49943743575367 0 0,0 0.2743845344343598,-0.4659649256584083 l 9.001321300243884 5.405034811828817" fill="#ff7a0b" stroke="none" /><path d="M 82.37810715431573 88.57770195909679 l -7.146277790018538 -4.632130924611196 a29.516215306980655,29.516215306980655 0 0,0 0.2792452684309975,-0.42281292760078043 l 7.065708082666811 4.754123730551037" fill="#ff5e08" stroke="none" /><path d="M 82.576782715395 88.27688183743585 l -13.305307204875454 -8.952404484434306 a37.03673114662181,37.03673114662181 0 0,0 0.3594507582139749,-0.5244493985502425 l 13.149666709846166 9.179488618054583" fill="#ffc412" stroke="none" /><path d="M 82.98947788004972 87.6856937992154 l -3.1947014221462746 -2.3127174612854398 a24.943954770582188,24.943954770582188 0 0,0 0.2540695975723857,-0.3446942045859899 l 3.1545298049900703 2.367217975140293" fill="#ff1d02" stroke="none" /><path d="M 83.64595745247003 86.82634096563983 l -43.328650860208484 -34.90249405872024 a76.63772170825156,76.63772170825156 0 0,0 0.8340854791774094,-1.0174486641945912 l 42.72311856179245 35.64114500461332" fill="#44ffe5" stroke="none" /><path d="M 84.83555147118756 85.47280134310135 l -11.440322984961544 -10.959570629017469 a36.84276422764228,36.84276422764228 0 0,0 0.44143456008399323,-0.45295074690838144 l 11.250501623726748 11.15434406799358" fill="#ffc111" stroke="none" /><path d="M 85.08716467003674 85.21462403516908 l -7.670492082745081 -7.604932715295023 a31.801455938697316,31.801455938697316 0 0,0 0.3876871272350979,-0.3843735819558784 l 7.538813035380008 7.735486307479575" fill="#ff7e0b" stroke="none" /><path d="M 85.86807049272753 84.46653392183569 l -7.134962623958948 -7.8425737852146495 a31.60253060461639,31.60253060461639 0 0,0 0.4044145340164058,-0.36162997006123554 l 6.999283063119151 7.963899285159287" fill="#ff7b0b" stroke="none" /><path d="M 86.68645165197937 83.75963576809568 l -4.606057255774411 -5.61864091761108 a28.265320998037566,28.265320998037566 0 0,0 0.37787938551717853,-0.30439288429445066 l 4.508927099901988 5.696882095698929" fill="#ff4d07" stroke="none" /><line stroke="#e1ed5e" stroke-width="0.3" x1="56.869717070023135" x2="54.33264160355391" y1="26.7553504044142" y2="22.446841604673864" /><path d="M 56.362301976729285 25.89364864446614 a86.0,86.0 0 0,1 42.16139366436587,-11.88097634709845" fill="none" id="id36" stroke="none" /><text fill="#e1ed5e" style="font-size:6.75px; font-family:Arial;" text-anchor="middle"><textPath startOffset="22.145653131862474" xlink:href="#id36">December</textPath></text><path d="M 89.34428304082924 81.90426304109057 l -1.004882935090524 -1.7065109121770532 a22.9803962246519,22.9803962246519 0 0,0 0.34165013299470276,-0.19725179625316203 l 0.9754403342354214 1.7235096057063892" fill="#ff0000" stroke="none" /><path d="M 89.65649057296885 81.72400993836675 l -5.152300422664128 -9.103621162956262 a31.46050275675171,31.46050275675171 0 0,0 0.47229077798080626,-0.2619717331466973 l 4.9952654565272185 9.190725811536106" fill="#ff790b" stroke="none" /><path d="M 90.93487009805054 81.0573650232925 l -1.6959527206525384 -3.5438889097624897 a24.92879170171012,24.92879170171012 0 0,0 0.38759675429306134,-0.18141485191658666 l 1.6348672524879544 3.572479993249619" fill="#ff1d02" stroke="none" /><path d="M 91.5904679813234 80.7573450057729 l -11.208423779198439 -25.647067082116664 a48.98929819643024,48.98929819643024 0 0,0 0.7734825225691774,-0.33015369477093914 l 10.76650618145883 25.835695426547005" fill="#a9ff21" stroke="none" /><path d="M 91.92203290615298 80.6158196554323 l -3.198082848788023 -7.674234615909145 a29.313940753200633,29.313940753200633 0 0,0 0.4661552256885276,-0.1895812721030616 l 3.0658731619090545 7.728003144591499" fill="#ff5b08" stroke="none" /><path d="M 92.592206182469 80.34994680014964 l -5.647017322630061 -14.97938435429368 a37.00845902252126,37.00845902252126 0 0,0 0.5963840006564236,-0.21900046582020108 l 5.389044170319511 15.074115669122603" fill="#ffc312" stroke="none" /><path d="M 92.93061703081487 80.22567764915836 l -5.73656105819075 -16.046182254435816 a38.04077749743014,38.04077749743014 0 0,0 0.6167935792759642,-0.21455282443358553 l 5.460261706869781 16.142293511437988" fill="#ffd013" stroke="none" /><path d="M 93.61358852112211 79.99465700312896 l -6.048428809153742 -18.9466170977973 a40.88863470703673,40.88863470703673 0 0,0 0.6704944938313733,-0.2077209081178306 l 5.7222936824507515 19.047654593721774" fill="#fff417" stroke="none" /><path d="M 93.95794788825049 79.88797359093562 l -8.02283565490556 -26.70541060929756 a48.884491169049625,48.884491169049625 0 0,0 0.8057560556183541,-0.2345438445759284 l 7.563219586905581 26.839198148176006" fill="#aaff21" stroke="none" /><path d="M 95.00130118170881 79.60360301121753 l -2.5640959730997985 -10.462386570143515 a31.772006354546306,31.772006354546306 0 0,0 0.5308464495705564,-0.12527831667870723 l 2.3841173697893363 10.504861030468454" fill="#ff7d0b" stroke="none" /><path d="M 95.70440661134978 79.44403061299748 l -1.606348273704818 -7.686957994298514 a28.853004392112886,28.853004392112886 0 0,0 0.4856970693143843,-0.09715301660263216 l 1.474154718859457 7.713400407564013" fill="#ff5507" stroke="none" /><path d="M 96.41257539226777 79.30868818359171 l -9.71312728937833 -56.02273704200255 a77.85852537146062,77.85852537146062 0 0,0 1.3188585263686499,-0.2170176686294342 l 8.749991259956605 56.18122070912765" fill="#45fff1" stroke="none" /><path d="M 97.84075906011542 79.11130261209362 l -0.8080604253992496 -7.817251602412701 a28.85890477525465,28.85890477525465 0 0,0 0.493213024955674,-0.04670778625495127 l 0.67374783705856 7.829971144172836" fill="#ff5507" stroke="none" /><path d="M 98.5590905019552 79.04949213459386 l -1.8174328888615012 -26.425075332355522 a47.487500233623024,47.487500233623024 0 0,0 0.813745007722821,-0.048952878957491265 l 1.3635435290061966 26.452380189137706" fill="#baff1f" stroke="none" /><path d="M 98.9189461498227 79.02784411241856 l -1.4348231074177866 -27.835184967830084 a48.87214092140921,48.87214092140921 0 0,0 0.8382136278180047,-0.035996499789769494 l 0.9567837189989619 27.855714036045683" fill="#aaff21" stroke="none" /><path d="M 99.63950707515114 79.00309439819443 l -0.13486385842917395 -7.855143636230538 a28.856301280254183,28.856301280254183 0 0,0 0.4953567832780242,-0.004252042218080398 l 1.9242388432001074e-15 7.856301280254183" fill="#ff5507" stroke="none" /></svg>