<?xml version="1.0" encoding="utf-8" ?>
<svg baseProfile="full" height="200mm" version="1.1" viewBox="0,0,200,200" width="200mm" xmlns="http://www.w3.org/2000/svg" xmlns:ev="http://www.w3.org/2001/xml-events" xmlns:xlink="http://www.w3.org/1999/xlink"><defs /><rect fill="#1a1a1a" height="200" width="200" x="0" y="0" /><rect fill="#1a1a1a" height="200" width="180" x="10" y="0" /><text alignment-baseline="middle" fill="#e1ed5e" style="dominant-baseline: central; font-size:9.0px; font-family:Arial;" text-anchor="middle" x="100.0" y="100.0">2020</text><line stroke="#e1ed5e" stroke-width="0.3" x1="100.0" x2="100.0" y1="15.0" y2="10.0" /><path d="M 100.0 14.0 a86.0,86.0 0 0,1 42.35913384403234,11.155469271406648" fill="none" id="id61" stroke="none" /><text fill="#e1ed5e" style="font-size:6.75px; font-family:Arial;" text-anchor="middle"><textPath startOffset="22.145653131862478" xlink:href="#id61">January</textPath></text><path d="M 100.36049292484886 79.00309439819443 l 0.6384503526128965 -37.186532276252116 a58.19201260466408,58.19201260466408 0 0,0 0.9986488842927873,0.02572165280791572 l -1.2767125509764252 37.170092906094155" fill="red" stroke="none" /><path d="M 102.15924093988457 79.11130261209362 l 3.840336051040889 -37.15176762179628 a58.34972581437346,58.34972581437346 0 0,0 0.9954577100346299,0.11154311273546634 l -4.477529662676315 37.080368748553845" fill="red" stroke="none" /><path d="M 103.23170211078529 79.25015418208739 l 5.753160695030444 -36.93941870110927 a58.38474972443582,58.38474972443582 0 0,0 0.9889889978856126,0.1627377632476263 l -6.3864271959691274 36.835214939365976" fill="red" stroke="none" /><path d="M 104.29559338865022 79.4440306129975 l 7.920419336250702 -37.90207374803503 a59.7207985049836,59.7207985049836 0 0,0 1.0017099877605262,0.21831802953893234 l -8.569891740630363 37.760524260362374" fill="red" stroke="none" /><path d="M 105.3480935250658 79.69241777938227 l 9.485797360087869 -36.01911763794983 a58.24724401849241,58.24724401849241 0 0,0 0.9647368959012916,0.26294333097231704 l -10.102715656923852 35.850973812833374" fill="red" stroke="none" /><path d="M 107.06938296918511 80.22567764915836 l 12.930511956621848 -36.168943273577675 a59.41081354238179,59.41081354238179 0 0,0 0.9573935148474304,0.35156815993394824 l -13.549494623123403 35.941644264635" fill="red" stroke="none" /><path d="M 108.4095320186766 80.7573450057729 l 15.80760466153336 -36.17089299517183 a60.474217727568735,60.474217727568735 0 0,0 0.9476787869968206,0.42388466743614356 l -16.42619685138581 35.894204576825835" fill="red" stroke="none" /><line stroke="#e1ed5e" stroke-width="0.3" x1="143.13028292997686" x2="145.6673583964461" y1="26.7553504044142" y2="22.446841604673864" /><path d="M 143.63769802327073 25.89364864446614 a86.0,86.0 0 0,1 29.32050498858742,28.57503671076993" fill="none" id="id62" stroke="none" /><text fill="#e1ed5e" style="font-size:6.75px; font-family:Arial;" text-anchor="middle"><textPath startOffset="20.669276256404974" xlink:href="#id62">February</textPath></text><line stroke="#e1ed5e" stroke-width="0.3" x1="172.87174338648825" x2="177.1583165268699" y1="56.24261187166439" y2="53.66864786411523" /><path d="M 173.72905801456457 55.72781907015455 a86.0,86.0 0 0,1 12.242430191666344,42.057860355516425" fill="none" id="id63" stroke="none" /><text fill="#e1ed5e" style="font-size:6.75px; font-family:Arial;" text-anchor="middle"><textPath startOffset="22.145653131862474" xlink:href="#id63">March</textPath></text><line stroke="#e1ed5e" stroke-width="0.3" x1="184.99686870605535" x2="189.99668451229388" y1="99.2704041080226" y2="99.22748670261217" /><path d="M 185.99683186730306 99.26182062694052 a86.0,86.0 0 0,1 -10.086455211305974,41.156179273409016" fill="none" id="id64" stroke="none" /><text fill="#e1ed5e" style="font-size:6.75px; font-family:Arial;" text-anchor="middle"><textPath startOffset="21.40746469413373" xlink:href="#id64">April</textPath></text><line stroke="#e1ed5e" stroke-width="0.3" x1="174.33088141563837" x2="178.70328620479359" y1="141.23008692659167" y2="143.65538615756765" /><path d="M 175.20536237346943 141.71514677278685 a86.0,86.0 0 0,1 -30.301960400862466,31.631185727798858" fill="none" id="id65" stroke="none" /><text fill="#e1ed5e" style="font-size:6.75px; font-family:Arial;" text-anchor="middle"><textPath startOffset="22.145653131862474" xlink:href="#id65">May</textPath></text><line stroke="#e1ed5e" stroke-width="0.3" x1="143.1302829299769" x2="145.66735839644613" y1="173.24464959558577" y2="177.55315839532614" /><path d="M 143.63769802327073 174.10635135553383 a86.0,86.0 0 0,1 -40.68552437913181,11.842963189579606" fill="none" id="id66" stroke="none" /><text fill="#e1ed5e" style="font-size:6.75px; font-family:Arial;" text-anchor="middle"><textPath startOffset="21.407464694133747" xlink:href="#id66">June</textPath></text><path d="M 109.06512990194946 118.94263497670748 l 8.682417417280469 18.14291307790111 a41.11342007616234,41.11342007616234 0 0,0 -0.6392378888670859,0.29919560900299097 l -8.369690814541876 -18.289284918474632" fill="red" stroke="none" /><path d="M 108.4095320186766 119.2426549942271 l 8.128318049428877 18.599182399346297 a41.29776195142766,41.29776195142766 0 0,0 -0.6520423493835495,0.27831810611706376 l -7.8078406248748955 -18.735975155122766" fill="red" stroke="none" /><path d="M 107.407793817531 119.65005319985036 l 7.21151659150929 19.129404538690537 a41.44358308992061,41.44358308992061 0 0,0 -0.6678551481882242,0.24524566117242497 l -6.882072291666939 -19.25038104887168" fill="red" stroke="none" /><path d="M 106.72888874123015 119.89276391827305 l 6.519444359827929 19.273578820485074 a41.34635090895522,41.34635090895522 0 0,0 -0.6742945270264333,0.22165400422471257 l -6.187627095153761 -19.382653746111806" fill="red" stroke="none" /><line stroke="#e1ed5e" stroke-width="0.3" x1="101.45913802915013" x2="101.54496967792366" y1="184.9874750549273" y2="189.98673829345242" /><path d="M 101.47630435890484 185.9873277026323 a86.0,86.0 0 0,1 -42.54439059252881,-10.42667462771756" fill="none" id="id67" stroke="none" /><text fill="#e1ed5e" style="font-size:6.75px; font-family:Arial;" text-anchor="middle"><textPath startOffset="22.145653131862474" xlink:href="#id67">July</textPath></text><line stroke="#e1ed5e" stroke-width="0.3" x1="58.13341422392154" x2="55.67067388415222" y1="173.97424548756322" y2="178.32567169271397" /><path d="M 57.64086615596768 174.84453072859336 a86.0,86.0 0 0,1 -31.369924170532247,-30.572349798747897" fill="none" id="id68" stroke="none" /><text fill="#e1ed5e" style="font-size:6.75px; font-family:Arial;" text-anchor="middle"><textPath startOffset="22.145653131862474" xlink:href="#id68">August</textPath></text><line stroke="#e1ed5e" stroke-width="0.3" x1="26.387840678322732" x2="22.057713659400548" y1="142.50000000000003" y2="145.00000000000006" /><path d="M 25.521815274538298 143.00000000000003 a86.0,86.0 0 0,1 -11.493303480769221,-40.785679425670985" fill="none" id="id69" stroke="none" /><text fill="#e1ed5e" style="font-size:6.75px; font-family:Arial;" text-anchor="middle"><textPath startOffset="21.40746469413373" xlink:href="#id69">September</textPath></text><path d="M 79.64726062577567 105.17358676015961 l -19.775677633862152 5.026899922341922 a41.40458646254996,41.40458646254996 0 0,0 -0.16919190371054285,-0.6903607040177236 l 19.85905706408899 -4.686683393716098" fill="red" stroke="none" /><path d="M 79.48165901384964 104.47187691870673 l -19.87543189473181 4.331757874546096 a41.341998900939274,41.341998900939274 0 0,0 -0.14517398276437016,-0.6947100611008651 l 19.946863588320547 -3.9899313621598216" fill="red" stroke="none" /><path d="M 79.34024301695615 103.76489593502545 l -24.990542261958424 4.554109278891774 a46.402108453252815,46.402108453252815 0 0,0 -0.13608011037327197,-0.7848739147509363 l 25.06503718982393 -4.124442331220245" fill="red" stroke="none" /><path d="M 79.22317932658666 103.0534771498775 l -20.20385400936961 2.969270781453774 a41.42087867368874,41.42087867368874 0 0,0 -0.09734988055465689,-0.7043752409047609 l 20.251848406479482 -2.622007232348927" fill="red" stroke="none" /><path d="M 79.13060592940153 102.33845913500099 l -20.534496515144962 2.3009331653829626 a41.66300657121465,41.66300657121465 0 0,0 -0.07354037979121678,-0.7114364640254327 l 20.570969287417846 -1.9480921790745984" fill="red" stroke="none" /><path d="M 79.06263194458094 101.62068470465958 l -25.374348730792217 1.9641350703604448 a46.45025343855099,46.45025343855099 0 0,0 -0.054714060616596186,-0.795530433279628 l 25.40432675257388 -1.5282612129264734" fill="red" stroke="none" /><path d="M 79.01933749520258 100.90099992219065 l -21.351143008572244 0.9169099491022368 a42.37082196891982,42.37082196891982 0 0,0 -0.024969151622200297,-0.7269496057462274 l 21.36373684719129 -0.5502540787918896" fill="red" stroke="none" /><line stroke="#e1ed5e" stroke-width="0.3" x1="15.003131293944662" x2="10.003315487706104" y1="100.72959589197737" y2="100.7725132973878" /><path d="M 14.003168132696942 100.73817937305945 a86.0,86.0 0 0,1 10.791469493833604,-42.45332614584628" fill="none" id="id70" stroke="none" /><text fill="#e1ed5e" style="font-size:6.75px; font-family:Arial;" text-anchor="middle"><textPath startOffset="22.145653131862435" xlink:href="#id70">October</textPath></text><path d="M 79.17382384314186 97.30363454192245 l -25.55252325735746 -3.308285715002626 a46.76579513987264,46.76579513987264 0 0,0 0.10991182989564399,-0.7952672486080478 l 25.49196691090661 3.746441271810741" fill="red" stroke="none" /><path d="M 79.2786578344484 96.59031103205396 l -31.348440436119347 -5.158373944282786 a52.77001006493354,52.77001006493354 0 0,0 0.15475479527550304,-0.8925845346626115 l 31.255270823351612 5.69575151186599" fill="red" stroke="none" /><path d="M 79.407916724674 95.88100663000787 l -22.57100113284079 -4.514832364322025 a44.0181190242954,44.0181190242954 0 0,0 0.15457127914557298,-0.739679526144505 l 22.49017214287085 4.901628341751939" fill="red" stroke="none" /><path d="M 79.56144815229197 95.17655741523228 l -26.1747615450042 -6.177172454440383 a47.8937836956745,47.8937836956745 0 0,0 0.1957087639723437,-0.7985585427866251 l 26.064865254515556 6.6255868218351255" fill="red" stroke="none" /><path d="M 79.73907114497095 94.47779374421319 l -60.782786565087164 -16.56661876736044 a84.0,84.0 0 0,0 0.3911260317016718,-1.3879683043879474 l 60.48944204131091 17.607594995651397" fill="red" stroke="none" /><path d="M 79.94057633289273 93.78553927170692 l -24.492905166601826 -7.587964629773611 a46.64136522735959,46.64136522735959 0 0,0 0.2435018730113487,-0.7627661490468965 l 24.35903857781322 8.0072998125119" fill="red" stroke="none" /><path d="M 80.16572619554312 93.10060997987247 l -29.483837015361225 -10.256009010682297 a52.21670011349023,52.21670011349023 0 0,0 0.30176237364950403,-0.8440830657938241 l 29.303434471667778 10.760627032857041" fill="red" stroke="none" /><path d="M 80.5471966667186 92.08871423366112 l -31.77278874782397 -12.921716580946402 a55.29986682499153,55.29986682499153 0 0,0 0.36517439662861473,-0.8762856148373684 l 31.546288506658875 13.465234705225035" fill="red" stroke="none" /><path d="M 80.83023694016515 91.42560881287825 l -20.191439196108227 -9.031373927681003 a43.11922086855077,43.11922086855077 0 0,0 0.3080263330299562,-0.6730931275728576 l 20.033428398223226 9.376656037468532" fill="red" stroke="none" /><path d="M 81.1358732173502 90.77261029715801 l -28.28321396324818 -13.834737239350419 a52.48555456987769,52.48555456987769 0 0,0 0.4028393447953635,-0.8059485409696955 l 28.041554705241072 14.318217636483885" fill="red" stroke="none" /><path d="M 81.46374523516351 90.13048839642627 l -27.995479692219472 -14.906016084442287 a52.71649726415458,52.71649726415458 0 0,0 0.4321614360006599,-0.7951283668842573 l 27.735472906603462 15.384399284801164" fill="red" stroke="none" /><line stroke="#e1ed5e" stroke-width="0.3" x1="26.387840678322718" x2="22.05771365940052" y1="57.49999999999999" y2="54.99999999999999" /><path d="M 25.521815274538284 56.99999999999999 a86.0,86.0 0 0,1 29.574782752854787,-30.34633250058573" fill="none" id="id71" stroke="none" /><text fill="#e1ed5e" style="font-size:6.75px; font-family:Arial;" text-anchor="middle"><textPath startOffset="21.40746469413373" xlink:href="#id71">November</textPath></text><path d="M 81.99639281039701 89.18935116829357 l -16.696572335770654 -10.025811956141732 a40.475431526503755,40.475431526503755 0 0,0 0.3627987078942934,-0.5926044239639254 l 16.522005663420966 10.310953496230201" fill="red" stroke="none" /><path d="M 82.37810715431573 88.57770195909679 l -22.241030769048983 -14.416367435987073 a47.5046241195602,47.5046241195602 0 0,0 0.4494289452768329,-0.6804927051001559 l 21.99027738485142 14.79604001942629" fill="red" stroke="none" /><path d="M 82.78059297857968 87.97951657250589 l -21.083258413977397 -14.717751781320482 a46.71217615930458,46.71217615930458 0 0,0 0.4646413483089007,-0.653576245026681 l 20.827501967138527 15.077505253056684" fill="red" stroke="none" /><path d="M 83.42222388311158 87.10902102172516 l -25.499511234309654 -19.828574168214033 a53.30166290971796,53.30166290971796 0 0,0 0.5678748235967374,-0.7174912886076067 l 25.155369980071352 20.263385400736322" fill="red" stroke="none" /><path d="M 83.8745106332314 86.54754324733833 l -26.047349615485032 -21.729625455328932 a54.92110028315985,54.92110028315985 0 0,0 0.6101614892491498,-0.7187687001062565 l 25.67049356272877 22.173560937884748" fill="red" stroke="none" /><path d="M 84.34580500576568 86.00192230759919 l -24.719234936704105 -22.104092306767484 a54.160691677980275,54.160691677980275 0 0,0 0.625690872622516,-0.68774387392021 l 24.336146363239724 22.52517375624535" fill="red" stroke="none" /><path d="M 85.08716467003674 85.21462403516908 l -16.48567975196636 -16.344777352894152 a44.21485265083703,44.21485265083703 0 0,0 0.5390171204227051,-0.5344101641702936 l 16.202670711413678 16.62536752729312" fill="red" stroke="none" /><path d="M 85.60350026404147 84.71141617570332 l -16.025254842720944 -17.018265304913225 a44.375845370008854,44.375845370008854 0 0,0 0.5590727408418995,-0.517469382451876 l 15.730752330565092 17.290852433497466" fill="red" stroke="none" /><path d="M 86.40962598614128 83.9905735841838 l -14.459991665698817 -17.03383382306135 a43.34374305446042,43.34374305446042 0 0,0 0.5713647871888636,-0.4766528267657918 l 14.165452544348046 17.279548833739025" fill="red" stroke="none" /><path d="M 86.96720088162412 83.53348406188908 l -13.447637525165637 -16.99065071338822 a42.66843710729047,42.66843710729047 0 0,0 0.5782387085091132,-0.4496419171822481 l 13.15398887202128 17.21899368219127" fill="red" stroke="none" /><path d="M 87.54013794807813 83.09580414077388 l -12.752933451861454 -17.30180349923623 a42.493946030307924,42.493946030307924 0 0,0 0.5909066278568409,-0.42777082914862335 l 12.454045813630644 17.51817509975793" fill="red" stroke="none" /><path d="M 88.12776184653039 82.6780497279521 l -14.74815654336347 -21.518001150765407 a47.087017747375725,47.087017747375725 0 0,0 0.6706619900325247,-0.45125131758752546 l 14.376598265233955 21.76800214241004" fill="red" stroke="none" /><path d="M 89.03521579738668 82.08984904055464 l -12.421586998420365 -20.289728843415713 a44.79010130492641,44.79010130492641 0 0,0 0.6591977687536607,-0.39582931984628617 l 12.071456473109269 20.49997216379792" fill="red" stroke="none" /><line stroke="#e1ed5e" stroke-width="0.3" x1="56.869717070023135" x2="54.33264160355391" y1="26.7553504044142" y2="22.446841604673864" /><path d="M 56.362301976729285 25.89364864446614 a86.0,86.0 0 0,1 42.16139366436587,-11.88097634709845" fill="none" id="id72" stroke="none" /><text fill="#e1ed5e" style="font-size:6.75px; font-family:Arial;" text-anchor="middle"><textPath startOffset="22.145653131862474" xlink:href="#id72">December</textPath></text><path d="M 89.65649057296885 81.72400993836675 l -10.211597536146826 -18.042914389993907 a41.73218473593386,41.73218473593386 0 0,0 0.6264911323307778,-0.347504070351339 l 9.900362215659944 18.21555137577839" fill="red" stroke="none" /><path d="M 90.28995756902619 81.37971332152246 l -12.751764159452899 -24.453189158879415 a48.57836016187774,48.57836016187774 0 0,0 0.7427232886558246,-0.37923980330062096 l 12.330113649083492 24.668486913852867" fill="red" stroke="none" /><path d="M 91.26138138417902 80.90454125486306 l -10.991082927678944 -24.017499771633464 a47.41295513954334,47.41295513954334 0 0,0 0.7429984794015009,-0.33233376927716846 l 10.577171045421824 24.20263729182048" fill="red" stroke="none" /><path d="M 91.92203290615298 80.6158196554323 l -9.339868875944795 -22.412285242388627 a45.28052059586106,45.28052059586106 0 0,0 0.7200584689505791,-0.2928415107448474 l 8.953755945803774 22.569314009712762" fill="red" stroke="none" /><path d="M 92.592206182469 80.34994680014964 l -11.40589923749786 -30.255502829811018 a53.33403762137752,53.33403762137752 0 0,0 0.8594674722457654,-0.3156083606735938 l 10.884842613597968 30.446842039493333" fill="red" stroke="none" /><path d="M 93.95794788825049 79.88797359093562 l -7.385344011593499 -24.583408261632012 a46.66879950304761,46.66879950304761 0 0,0 0.769235127721398,-0.22391313472683044 l 6.962248871490477 24.706565090661364" fill="red" stroke="none" /><path d="M 94.6519064749342 79.69241777938228 l -8.218346509273617 -31.206400313006313 a53.270429805660946,53.270429805660946 0 0,0 0.8863050572241421,-0.22529527967741297 l 7.681436158824098 31.34288082451899" fill="red" stroke="none" /><path d="M 95.35216902796891 79.52079915486377 l -5.660268322984093 -24.940186620663155 a46.57443149244344,46.57443149244344 0 0,0 0.7812031045827003,-0.17025958066314803 l 5.231302801782275 25.033677659460018" fill="red" stroke="none" /><path d="M 96.41257539226777 79.30868818359171 l -4.911766225889588 -28.329762339850223 a49.7524065373698,49.7524065373698 0 0,0 0.8427642991710385,-0.13867654471916777 l 4.424724423665476 28.40990488306506" fill="red" stroke="none" /><path d="M 97.12497278360702 79.19773525538626 l -3.5375224206508826 -25.595750021007035 a46.83904959580536,46.83904959580536 0 0,0 0.7974285253360693,-0.10324308768001801 l 3.0976160734240192 25.652704704887448" fill="red" stroke="none" /><path d="M 97.84075906011542 79.11130261209362 l -2.138587256390865 -20.68889173561599 a41.79912971018828,41.79912971018828 0 0,0 0.7143679001482354,-0.06765138286954378 l 1.7831197928576143 20.722554873990717" fill="red" stroke="none" /><path d="M 98.9189461498227 79.02784411241856 l -1.3114021730743497 -25.44085181373511 a46.474628881849746,46.474628881849746 0 0,0 0.7970935289942568,-0.03423062581738196 l 0.8744828834792729 25.45961500797832" fill="red" stroke="none" /><path d="M 99.63950707515114 79.00309439819443 l -0.7149523150840921 -41.6423880604785 a62.648525066229254,62.648525066229254 0 0,0 1.075445239932934,-0.009231403945188097 l 1.0200946582313193e-14 41.648525066229254" fill="red" stroke="none" /></svg>