<?xml version="1.0" encoding="utf-8" ?>
<svg baseProfile="full" height="200mm" version="1.1" viewBox="0,0,200,200" width="200mm" xmlns="http://www.w3.org/2000/svg" xmlns:ev="http://www.w3.org/2001/xml-events" xmlns:xlink="http://www.w3.org/1999/xlink"><defs /><rect fill="#1a1a1a" height="200" width="200" x="0" y="0" /><rect fill="#1a1a1a" height="200" width="180" x="10" y="0" /><text alignment-baseline="middle" fill="#e1ed5e" style="dominant-baseline: central; font-size:9.0px; font-family:Arial;" text-anchor="middle" x="100.0" y="100.0">2017</text><line stroke="#e1ed5e" stroke-width="0.3" x1="100.0" x2="100.0" y1="15.0" y2="10.0" /><path d="M 100.0 14.0 a86.0,86.0 0 0,1 42.46469731375804,11.215312516191453" fill="none" id="id25" stroke="none" /><text fill="#e1ed5e" style="font-size:6.75px; font-family:Arial;" text-anchor="middle"><textPath startOffset="22.20632615414155" xlink:href="#id25">January</textPath></text><path d="M 100.36148047927253 79.00311137660856 l 1.084441437817585 -62.990665870174325 a84.0,84.0 0 0,0 1.4454934592205289,0.03733283143056143 l -2.1685615322329816 62.9626662466014" fill="#4dd2ff" stroke="none" /><path d="M 106.0581310904928 79.89281104454417 l 1.8015307805214145 -5.9793555589876375 a27.24485436611315,27.24485436611315 0 0,0 0.44787248788326245,0.1391561621168889 l -1.9041886411153952 5.947459261988228" fill="#ff0300" stroke="none" /><line stroke="#e1ed5e" stroke-width="0.3" x1="143.23703022742887" x2="145.7803849466894" y1="26.81831364943548" y2="22.513508569990506" /><path d="M 143.74570117128098 25.957352633546492 a86.0,86.0 0 0,1 28.547481713284135,27.462654790039103" fill="none" id="id26" stroke="none" /><text fill="#e1ed5e" style="font-size:6.75px; font-family:Arial;" text-anchor="middle"><textPath startOffset="19.985693538727396" xlink:href="#id26">February</textPath></text><path d="M 113.34407831869373 83.78471172551755 l 14.623279421990246 -17.769731687927553 a44.01311941729195,44.01311941729195 0 0,0 0.5808525867343233,0.48644733696386083 l -14.926989545683686 17.51538319356987" fill="#fff817" stroke="none" /><path d="M 114.16331599549186 84.49514656593476 l 13.993686468791628 -15.319156740549818 a41.74848968547771,41.74848968547771 0 0,0 0.5264129015326977,0.4892434214241066 l -14.255307254119172 15.076008733051072" fill="#ffd914" stroke="none" /><path d="M 114.94478906791727 85.2469230424477 l 14.606655363734712 -14.419280840586246 a41.524863967262185,41.524863967262185 0 0,0 0.49777581930604675,0.5130017375247017 l -14.852695446743867 14.16571490751143" fill="#ffd614" stroke="none" /><path d="M 115.4437574822437 85.77008943001954 l 15.474190989773508 -14.25795206771688 a42.04138265307914,42.04138265307914 0 0,0 0.48579089800306363,0.5364224429155661 l -15.717325528392607 13.989476837531766" fill="#ffdd14" stroke="none" /><path d="M 117.45458315368197 88.32363383020206 l 17.211888002287825 -11.514013541244058 a41.708008026636726,41.708008026636726 0 0,0 0.3940480535715905,0.6001622196725619 l -17.40753269121734 11.216033257593821" fill="#ffd914" stroke="none" /><line stroke="#e1ed5e" stroke-width="0.3" x1="172.23445277983987" x2="176.4835382374775" y1="55.19839476539836" y2="52.563006222186495" /><path d="M 173.08426987136738 54.67131705675599 a86.0,86.0 0 0,1 12.851231095245387,41.99856678651699" fill="none" id="id27" stroke="none" /><text fill="#e1ed5e" style="font-size:6.75px; font-family:Arial;" text-anchor="middle"><textPath startOffset="22.20632615414155" xlink:href="#id27">March</textPath></text><line stroke="#e1ed5e" stroke-width="0.3" x1="184.98032266829074" x2="189.97916517819016" y1="98.17113171792111" y2="98.06355123074" /><path d="M 185.9800911702706 98.14961562048488 a86.0,86.0 0 0,1 -9.607161424134198,41.387399972396054" fill="none" id="id28" stroke="none" /><text fill="#e1ed5e" style="font-size:6.75px; font-family:Arial;" text-anchor="middle"><textPath startOffset="21.466115282336823" xlink:href="#id28">April</textPath></text><line stroke="#e1ed5e" stroke-width="0.3" x1="174.80103733775053" x2="179.2010983576182" y1="140.37084112569926" y2="142.7455964860345" /><path d="M 175.68104954172406 140.8457921977663 a86.0,86.0 0 0,1 -30.038265399797805,32.042727171017184" fill="none" id="id29" stroke="none" /><text fill="#e1ed5e" style="font-size:6.75px; font-family:Arial;" text-anchor="middle"><textPath startOffset="22.206326154141568" xlink:href="#id29">May</textPath></text><path d="M 117.94076556474637 110.91462005526583 l 8.813781556885711 5.362038570558448 a31.31669535096657,31.31669535096657 0 0,0 -0.284139896814526,0.45812398577776253 l -8.720177020403224 -5.512958887701484" fill="#ff4206" stroke="none" /><path d="M 116.93607887273984 112.41649034213515 l 10.706997495160946 7.849711375985348 a34.27621045508305,34.27621045508305 0 0,0 -0.3529449681571239,0.47282746228884387 l -10.57029126030873 -8.032851717783506" fill="#ff6f0a" stroke="none" /><path d="M 116.0416608686014 113.55231037782055 l 11.74979764778667 9.926459978409577 a36.3815588438526,36.3815588438526 0 0,0 -0.40826604071644496,0.4749056403477353 l -11.577189097499446 -10.12724271791884" fill="#ff8e0d" stroke="none" /><path d="M 115.32070863581623 114.36230785411682 l 7.4714225559491005 7.004040962300854 a31.24103240943672,31.24103240943672 0 0,0 -0.3711634721100907,0.38916341661542364 l -7.3497525324600455 -7.131611495498785" fill="#ff4106" stroke="none" /><path d="M 113.75828350139079 115.86535959552629 l 8.156298392619929 9.405432513020045 a33.44939212276764,33.44939212276764 0 0,0 -0.4382420266897688,0.3734793626027477 l -7.993190889353113 -9.54443626584574" fill="#ff6209" stroke="none" /><line stroke="#e1ed5e" stroke-width="0.3" x1="143.8653032363475" x2="146.44561519142675" y1="172.8068346515853" y2="177.08958963109032" /><path d="M 144.38136562736335 173.6633856474863 a86.0,86.0 0 0,1 -40.68145358897372,12.25698825130547" fill="none" id="id30" stroke="none" /><text fill="#e1ed5e" style="font-size:6.75px; font-family:Arial;" text-anchor="middle"><textPath startOffset="21.466115282336833" xlink:href="#id30">June</textPath></text><path d="M 109.57404056367764 118.69057910512821 l 6.321617592856817 12.341152401204603 a34.86603373643938,34.86603373643938 0 0,0 -0.5365153598348298,0.2690199392973517 l -6.108248325339226 -12.448140181411256" fill="#ff770b" stroke="none" /><path d="M 108.92500713936063 119.00905698771935 l 6.445326862836233 13.727673684405525 a36.16546284009553,36.16546284009553 0 0,0 -0.5657862852788332,0.2597247335066178 l -6.208072581789981 -13.836585488246216" fill="#ff8a0c" stroke="none" /><path d="M 108.2653958097858 119.30500536409082 l 6.80695893258673 15.898618980975119 a38.29453021657844,38.29453021657844 0 0,0 -0.608205655826942,0.25423001346260093 l -6.532281817262327 -16.013434037457692" fill="#ffa90f" stroke="none" /><path d="M 106.57524785965236 119.94407469862006 l 6.781310651529763 20.569105389710437 a42.658122510632495,42.658122510632495 0 0,0 -0.6993467161384016,0.22390873386611956 l -6.426242590300421 -20.682786970236265" fill="#ffe515" stroke="none" /><line stroke="#e1ed5e" stroke-width="0.3" x1="102.19456741930631" x2="102.32365962044197" y1="184.97166512339345" y2="189.96999836594603" /><path d="M 102.22038585953345 185.97133177190398 a86.0,86.0 0 0,1 -42.740103519485714,-10.115201625700543" fill="none" id="id31" stroke="none" /><text fill="#e1ed5e" style="font-size:6.75px; font-family:Arial;" text-anchor="middle"><textPath startOffset="22.20632615414155" xlink:href="#id31">July</textPath></text><line stroke="#e1ed5e" stroke-width="0.3" x1="58.666819895761336" x2="56.23545636021788" y1="174.27360380694188" y2="178.64263932499728" /><path d="M 58.180547188652646 175.14741091055294 a86.0,86.0 0 0,1 -31.652253787137756,-30.449443065178592" fill="none" id="id32" stroke="none" /><text fill="#e1ed5e" style="font-size:6.75px; font-family:Arial;" text-anchor="middle"><textPath startOffset="22.20632615414155" xlink:href="#id32">August</textPath></text><path d="M 86.24171649860922 115.8653595955263 l -3.977677914099038 4.5868578341175255 a27.071341398629844,27.071341398629844 0 0,0 -0.34942352872262333,-0.3083256373206695 l 4.056043795728249 -4.517709055024567" fill="#ff0000" stroke="none" /><path d="M 84.19399662182784 113.82643327865904 l -7.922529918731 6.930299121078738 a31.525945383708418,31.525945383708418 0 0,0 -0.353777389168258,-0.4115230285836816 l 8.040649817470037 -6.792898993333526" fill="#ff4506" stroke="none" /><path d="M 82.44556493220864 111.52570212397912 l -8.733750105847497 5.734311685709765 a31.44800083366472,31.44800083366472 0 0,0 -0.2932078866545793,-0.45506515138109505 l 8.831162855879121 -5.583124934407222" fill="#ff4406" stroke="none" /><line stroke="#e1ed5e" stroke-width="0.3" x1="26.63291911575756" x2="22.317208475507996" y1="142.92168965132927" y2="145.44649492493687" /><path d="M 25.769776987707644 143.4266507060508 a86.0,86.0 0 0,1 -11.730757126820373,-40.83630448921669" fill="none" id="id33" stroke="none" /><text fill="#e1ed5e" style="font-size:6.75px; font-family:Arial;" text-anchor="middle"><textPath startOffset="21.46611528233685" xlink:href="#id33">September</textPath></text><path d="M 79.50377843672027 104.57218783832718 l -10.84367309868275 2.41894878582974 a32.11020069573737,32.11020069573737 0 0,0 -0.11569758106638568,-0.5405005810341258 l 10.883704718473576 -2.2319343853794504" fill="#ff4e07" stroke="none" /><path d="M 79.35854240842038 103.8639653848113 l -11.109509925745073 2.079638107185212 a32.30248226926657,32.30248226926657 0 0,0 -0.0976051152981067,-0.5474213211621334 l 11.143661483382369 -1.8880980352898646" fill="#ff5107" stroke="none" /><line stroke="#e1ed5e" stroke-width="0.3" x1="15.007084014347285" x2="10.007500721073583" y1="101.09737516637583" y2="101.16192664675087" /><path d="M 14.007167355692545 101.11028546245083 a86.0,86.0 0 0,1 10.666146001902534,-42.60595125391555" fill="none" id="id34" stroke="none" /><text fill="#e1ed5e" style="font-size:6.75px; font-family:Arial;" text-anchor="middle"><textPath startOffset="22.20632615414155" xlink:href="#id34">October</textPath></text><path d="M 81.43458229118936 90.18545643968196 l -9.358187721754247 -4.947173421107718 a31.585376813987615,31.585376813987615 0 0,0 0.2582358753378258,-0.47847185776852647 l 9.27164374719795 5.107526262208717" fill="#ff4606" stroke="none" /><line stroke="#e1ed5e" stroke-width="0.3" x1="26.266209847984243" x2="21.928928074336255" y1="57.711370442889674" y2="55.22380399835377" /><path d="M 25.398753493254645 57.213857153982495 a86.0,86.0 0 0,1 29.58750427330803,-30.492523968695096" fill="none" id="id35" stroke="none" /><text fill="#e1ed5e" style="font-size:6.75px; font-family:Arial;" text-anchor="middle"><textPath startOffset="21.46611528233685" xlink:href="#id35">November</textPath></text><path d="M 81.78341655067845 89.55222093294921 l -9.171665243630569 -5.260236224261337 a31.57305672340086,31.57305672340086 0 0,0 0.274445526297928,-0.46911636726759254 l 9.079760042862317 5.417332003882821" fill="#ff4606" stroke="none" /><line stroke="#e1ed5e" stroke-width="0.3" x1="56.762969772571076" x2="54.21961505331055" y1="26.818313649435495" y2="22.513508569990535" /><path d="M 56.25429882871897 25.957352633546506 a86.0,86.0 0 0,1 42.265352541879196,-11.944610805530505" fill="none" id="id36" stroke="none" /><text fill="#e1ed5e" style="font-size:6.75px; font-family:Arial;" text-anchor="middle"><textPath startOffset="22.20632615414155" xlink:href="#id36">December</textPath></text></svg>