<?xml version="1.0" encoding="utf-8" ?>
<svg baseProfile="full" height="200mm" version="1.1" viewBox="0,0,200,200" width="200mm" xmlns="http://www.w3.org/2000/svg" xmlns:ev="http://www.w3.org/2001/xml-events" xmlns:xlink="http://www.w3.org/1999/xlink"><defs /><rect fill="#1a1a1a" height="200" width="200" x="0" y="0" /><rect fill="#1a1a1a" height="200" width="180" x="10" y="0" /><text alignment-baseline="middle" fill="#e1ed5e" style="dominant-baseline: central; font-size:9.0px; font-family:Arial;" text-anchor="middle" x="100.0" y="100.0">2022</text><line stroke="#e1ed5e" stroke-width="0.3" x1="100.0" x2="100.0" y1="15.0" y2="10.0" /><path d="M 100.0 14.0 a86.0,86.0 0 0,1 42.46469731375804,11.215312516191453" fill="none" id="id1" stroke="none" /><text fill="#e1ed5e" style="font-size:6.75px; font-family:Arial;" text-anchor="middle"><textPath startOffset="22.20632615414155" xlink:href="#id1">January</textPath></text><line stroke="#e1ed5e" stroke-width="0.3" x1="143.23703022742887" x2="145.7803849466894" y1="26.81831364943548" y2="22.513508569990506" /><path d="M 143.74570117128098 25.957352633546492 a86.0,86.0 0 0,1 28.547481713284135,27.462654790039103" fill="none" id="id2" stroke="none" /><text fill="#e1ed5e" style="font-size:6.75px; font-family:Arial;" text-anchor="middle"><textPath startOffset="19.985693538727396" xlink:href="#id2">February</textPath></text><line stroke="#e1ed5e" stroke-width="0.3" x1="172.23445277983987" x2="176.4835382374775" y1="55.19839476539836" y2="52.563006222186495" /><path d="M 173.08426987136738 54.67131705675599 a86.0,86.0 0 0,1 12.851231095245387,41.99856678651699" fill="none" id="id3" stroke="none" /><text fill="#e1ed5e" style="font-size:6.75px; font-family:Arial;" text-anchor="middle"><textPath startOffset="22.20632615414155" xlink:href="#id3">March</textPath></text><line stroke="#e1ed5e" stroke-width="0.3" x1="184.98032266829074" x2="189.97916517819016" y1="98.17113171792111" y2="98.06355123074" /><path d="M 185.9800911702706 98.14961562048488 a86.0,86.0 0 0,1 -9.607161424134198,41.387399972396054" fill="none" id="id4" stroke="none" /><text fill="#e1ed5e" style="font-size:6.75px; font-family:Arial;" text-anchor="middle"><textPath startOffset="21.466115282336823" xlink:href="#id4">April</textPath></text><line stroke="#e1ed5e" stroke-width="0.3" x1="174.80103733775053" x2="179.2010983576182" y1="140.37084112569926" y2="142.7455964860345" /><path d="M 175.68104954172406 140.8457921977663 a86.0,86.0 0 0,1 -30.038265399797805,32.042727171017184" fill="none" id="id5" stroke="none" /><text fill="#e1ed5e" style="font-size:6.75px; font-family:Arial;" text-anchor="middle"><textPath startOffset="22.206326154141568" xlink:href="#id5">May</textPath></text><line stroke="#e1ed5e" stroke-width="0.3" x1="143.8653032363475" x2="146.44561519142675" y1="172.8068346515853" y2="177.08958963109032" /><path d="M 144.38136562736335 173.6633856474863 a86.0,86.0 0 0,1 -40.68145358897372,12.25698825130547" fill="none" id="id6" stroke="none" /><text fill="#e1ed5e" style="font-size:6.75px; font-family:Arial;" text-anchor="middle"><textPath startOffset="21.466115282336833" xlink:href="#id6">June</textPath></text><line stroke="#e1ed5e" stroke-width="0.3" x1="102.19456741930631" x2="102.32365962044197" y1="184.97166512339345" y2="189.96999836594603" /><path d="M 102.22038585953345 185.97133177190398 a86.0,86.0 0 0,1 -42.740103519485714,-10.115201625700543" fill="none" id="id7" stroke="none" /><text fill="#e1ed5e" style="font-size:6.75px; font-family:Arial;" text-anchor="middle"><textPath startOffset="22.20632615414155" xlink:href="#id7">July</textPath></text><line stroke="#e1ed5e" stroke-width="0.3" x1="58.666819895761336" x2="56.23545636021788" y1="174.27360380694188" y2="178.64263932499728" /><path d="M 58.180547188652646 175.14741091055294 a86.0,86.0 0 0,1 -31.652253787137756,-30.449443065178592" fill="none" id="id8" stroke="none" /><text fill="#e1ed5e" style="font-size:6.75px; font-family:Arial;" text-anchor="middle"><textPath startOffset="22.20632615414155" xlink:href="#id8">August</textPath></text><line stroke="#e1ed5e" stroke-width="0.3" x1="26.63291911575756" x2="22.317208475507996" y1="142.92168965132927" y2="145.44649492493687" /><path d="M 25.769776987707644 143.4266507060508 a86.0,86.0 0 0,1 -11.730757126820373,-40.83630448921669" fill="none" id="id9" stroke="none" /><text fill="#e1ed5e" style="font-size:6.75px; font-family:Arial;" text-anchor="middle"><textPath startOffset="21.46611528233685" xlink:href="#id9">September</textPath></text><line stroke="#e1ed5e" stroke-width="0.3" x1="15.007084014347285" x2="10.007500721073583" y1="101.09737516637583" y2="101.16192664675087" /><path d="M 14.007167355692545 101.11028546245083 a86.0,86.0 0 0,1 10.666146001902534,-42.60595125391555" fill="none" id="id10" stroke="none" /><text fill="#e1ed5e" style="font-size:6.75px; font-family:Arial;" text-anchor="middle"><textPath startOffset="22.20632615414155" xlink:href="#id10">October</textPath></text><path d="M 80.38941819471856 92.48833698450439 l -7.971769375431733 -3.0535170134199787 a29.536572680315942,29.536572680315942 0 0,0 0.1859488296536188,-0.4732194890600432 l 7.918026995896423 3.190285507375785" fill="#ff2903" stroke="none" /><path d="M 80.803312248108 91.48605970444005 l -10.402171793628229 -4.613476592407443 a32.379338482216184,32.379338482216184 0 0,0 0.23035229273821353,-0.5075507426951691 l 10.321217183926663 4.7918493439446825" fill="#ff5407" stroke="none" /><path d="M 80.95270993114464 91.15688171328213 l -12.828504311292228 -5.955911872834976 a35.143670283975794,35.143670283975794 0 0,0 0.2594637198027415,-0.5464967654028927 l 12.724082397647736 6.175851053878401" fill="#ff7d0b" stroke="none" /><path d="M 81.26839172434947 90.50648371742162 l -18.680932668174716 -9.467832972441762 a41.943187592793336,41.943187592793336 0 0,0 0.33193152957704747,-0.641186063458977 l 18.515191705437555 9.787991758161075" fill="#ffdd14" stroke="none" /><path d="M 81.43458229118936 90.18545643968196 l -10.460458136541511 -5.529884845696101 a32.83219383009748,32.83219383009748 0 0,0 0.26842960788176184,-0.4973592960127746 l 10.363720429441278 5.709125125041348" fill="#ff5b08" stroke="none" /><line stroke="#e1ed5e" stroke-width="0.3" x1="26.266209847984243" x2="21.928928074336255" y1="57.711370442889674" y2="55.22380399835377" /><path d="M 25.398753493254645 57.213857153982495 a86.0,86.0 0 0,1 29.58750427330803,-30.492523968695096" fill="none" id="id11" stroke="none" /><text fill="#e1ed5e" style="font-size:6.75px; font-family:Arial;" text-anchor="middle"><textPath startOffset="21.46611528233685" xlink:href="#id11">November</textPath></text><path d="M 81.78341655067845 89.55222093294921 l -5.155642297694052 -2.9569217424827094 a26.94340253499113,26.94340253499113 0 0,0 0.2342027366483025,-0.40032839486445587 l 5.1039798865754245 3.045229549701057" fill="#ff0000" stroke="none" /><path d="M 82.15384107792192 88.93136811851018 l -24.48978287146693 -15.189172787570236 a49.81771044101629,49.81771044101629 0 0,0 0.4582574702577962,-0.7248532671783149 l 24.22469780496317 15.608473702462765" fill="#bbff1f" stroke="none" /><path d="M 82.54541684631803 88.32363383020206 l -26.876719946468867 -17.97937084919058 a53.33598384483827,53.33598384483827 0 0,0 0.5170429242998277,-0.7586966916641551 l 26.5632525565003 18.43934556412515" fill="#90ff24" stroke="none" /><path d="M 82.7489923806493 88.02491185347247 l -11.771887588823882 -8.171661310325543 a35.33015652303132,35.33015652303132 0 0,0 0.351093228890968,-0.4965964735585204 l 11.629481740129036 8.37308428421585" fill="#ff800b" stroke="none" /><path d="M 82.95767976084542 87.72973835380427 l -13.744206362987015 -9.895660087744302 a37.9359764147376,37.9359764147376 0 0,0 0.3861112614585922,-0.5266553267089612 l 13.57183248901479 10.130777858124764" fill="#ffa50f" stroke="none" /><path d="M 83.6137871275137 86.86637796730984 l -9.75440265963632 -7.818196839212226 a33.50090288991112,33.50090288991112 0 0,0 0.364524134626049,-0.44686348723268815 l 9.618380032933878 7.9849444960529965" fill="#ff6509" stroke="none" /><path d="M 83.84228863543731 86.58626213691792 l -15.30267374295885 -12.703906485327579 a40.8887169940997,40.8887169940997 0 0,0 0.45423350965962467,-0.5376692028127862 l 15.081729619812101 12.96543463776948" fill="#ffcf13" stroke="none" /><path d="M 84.07557802195018 86.31012108654704 l -23.280380003954328 -20.01363589539447 a51.70051652467656,51.70051652467656 0 0,0 0.5859592185762463,-0.6698526801255795 l 22.932428921800238 20.41140413172299" fill="#a4ff21" stroke="none" /><path d="M 84.80347519578584 85.50635884689758 l -11.349098644036399 -10.824169688599461 a36.68326144268673,36.68326144268673 0 0,0 0.4397375156688453,-0.45318816391564587 l 11.161096864664435 11.01792204806523" fill="#ff930d" stroke="none" /><path d="M 85.05521093208273 85.24692304244772 l -19.867070869651297 -19.612215611013482 a48.91665284579489,48.91665284579489 0 0,0 0.5966997730826843,-0.5941373546265039 l 19.5265352964013 19.9512888162901" fill="#c6ff1e" stroke="none" /><path d="M 85.31137513191541 84.99185889309783 l -19.533531819283546 -19.958437531953916 a48.92665561881461,48.92665561881461 0 0,0 0.6069625534621608,-0.5838974955347915 l 19.18708602220896 20.291718114251022" fill="#c6ff1e" stroke="none" /><path d="M 85.83668400450813 84.49514656593479 l -42.48994798647562 -46.514560302195655 a84.0,84.0 0 0,0 1.0759560496161145,-0.9660039649228849 l 41.68298094926353 47.23906327588782" fill="#4dd2ff" stroke="none" /><path d="M 86.37877921826538 84.01681056812374 l -9.083458490873966 -10.658562847091222 a35.004077267739696,35.004077267739696 0 0,0 0.46195791383119017,-0.38687646763523553 l 8.898643040083666 10.81334047212027" fill="#ff7b0b" stroke="none" /><path d="M 87.80319425747018 82.90503203632743 l -16.234454624072026 -22.754111819497037 a48.95187152294508,48.95187152294508 0 0,0 0.6901488008116868,-0.4834933394729017 l 15.840374683676677 23.03019000173388" fill="#c6ff1e" stroke="none" /><path d="M 88.09926311788651 82.69761687909137 l -23.709860523004743 -34.47157050660545 a62.83833958479005,62.83833958479005 0 0,0 0.8964795976614676,-0.6053070261397263 l 23.112976230936734 34.874589445043846" fill="#30ff3a" stroke="none" /><path d="M 88.70189139769569 82.29822771554957 l -7.838540567272182 -12.281353016555261 a35.569637955077084,35.569637955077084 0 0,0 0.5189455155470943,-0.3249636342274388 l 7.625975899352846 12.414460992105631" fill="#ff830c" stroke="none" /><line stroke="#e1ed5e" stroke-width="0.3" x1="56.762969772571076" x2="54.21961505331055" y1="26.818313649435495" y2="22.513508569990535" /><path d="M 56.25429882871897 25.957352633546506 a86.0,86.0 0 0,1 42.265352541879196,-11.944610805530505" fill="none" id="id12" stroke="none" /><text fill="#e1ed5e" style="font-size:6.75px; font-family:Arial;" text-anchor="middle"><textPath startOffset="22.20632615414155" xlink:href="#id12">December</textPath></text><path d="M 89.3179101791058 81.91981866633112 l -8.89049048884776 -15.047774628258104 a38.47788151908408,38.47788151908408 0 0,0 0.5731431936657986,-0.33200153160458906 l 8.630150562716642 15.19858031725274" fill="#ffad10" stroke="none" /><path d="M 89.94658935756843 81.56283822128135 l -16.31529165074438 -29.92095740744524 a55.08008852434221,55.08008852434221 0 0,0 0.8363123363640933,-0.44672908675534956 l 15.797834267851982 30.19736522070234" fill="#7cff26" stroke="none" /><path d="M 90.26544431104013 81.39251694778311 l -10.390551426526427 -19.861410808050646 a43.41515554783061,43.41515554783061 0 0,0 0.665160522724619,-0.34072105471441627 l 10.047130416213044 20.037324388077565" fill="#fff116" stroke="none" /><path d="M 90.91171255644093 81.06846463323043 l -15.715328251040106 -32.73612266696183 a57.31288021218245,57.31288021218245 0 0,0 0.8930487227905531,-0.4192983498261817 l 15.149501316949943 33.00178599942802" fill="#62ff29" stroke="none" /><path d="M 91.23893434514133 80.91482961587045 l -9.437908777418789 -20.55961046097366 a43.62237176774036,43.62237176774036 0 0,0 0.6851161068519483,-0.3073916264893009 l 9.082610552100068 20.719022417979488" fill="#fff417" stroke="none" /><path d="M 91.56875222667455 80.76684994638697 l -8.553886585967454 -19.51291062397642 a42.30546072594737,42.30546072594737 0 0,0 0.6694662730188823,-0.28663052008760015 l 8.216736555158263 19.657260672026805" fill="#ffe215" stroke="none" /><path d="M 92.57280143429618 80.3572730644239 l -11.394130722542316 -30.13408036303772 a53.21628492313163,53.21628492313163 0 0,0 0.8596144953642376,-0.3166032732277972 l 10.87373390140551 30.325746904071842" fill="#92ff23" stroke="none" /><path d="M 93.94186890950719 79.89281104454417 l -9.974477879140927 -33.105706768650684 a55.57568552629659,55.57568552629659 0 0,0 0.9183479302072278,-0.2680909435858441 l 9.40313973121028 33.27249604115523" fill="#76ff27" stroke="none" /><path d="M 94.63758080256005 79.69619591428918 l -15.19632550699227 -57.53806342927491 a80.51098261754485,80.51098261754485 0 0,0 1.3429657892458324,-0.34235188205940437 l 14.20365082906144 57.79111830750317" fill="#48f5ff" stroke="none" /><path d="M 95.692805502759 79.44645832069477 l -2.890386611036323 -13.79266288469089 a35.09226327500262,35.09226327500262 0 0,0 0.5922798510706536,-0.11880576624522256 l 2.6525403504985334 13.840372607013324" fill="#ff7c0b" stroke="none" /><path d="M 96.04723909329186 79.375362276772 l -6.314554573026968 -32.94795802883357 a54.5476010725881,54.5476010725881 0 0,0 0.9236853844545418,-0.16879759996067636 l 5.746474067469533 33.05177111014498" fill="#82ff25" stroke="none" /><path d="M 96.40284397218896 79.31037775812273 l -2.0282961813674962 -11.66607215886388 a32.8410820880175,32.8410820880175 0 0,0 0.5577835628376774,-0.09203906714220512 l 1.8271834123909332 11.699257488945712" fill="#ff5b08" stroke="none" /><path d="M 97.11714578562143 79.19881850522333 l -3.0701061890802737 -22.152294669906528 a43.36402716763236,43.36402716763236 0 0,0 0.7402554786753008,-0.09610640660654961 l 2.688335981897115 22.201859399677215" fill="#fff016" stroke="none" /><path d="M 97.47563105711357 79.15227682838746 l -1.0166927727850996 -8.396446778245972 a29.457776462767896,29.457776462767896 0 0,0 0.5039149593330453,-0.05662071713313676 l 0.8720111099423363 8.412703448849708" fill="#ff2703" stroke="none" /></svg>