<?xml version="1.0" encoding="utf-8" ?>
<svg baseProfile="full" height="200mm" version="1.1" viewBox="0,0,200,200" width="200mm" xmlns="http://www.w3.org/2000/svg" xmlns:ev="http://www.w3.org/2001/xml-events" xmlns:xlink="http://www.w3.org/1999/xlink"><defs /><rect fill="#1a1a1a" height="200" width="200" x="0" y="0" /><rect fill="#1a1a1a" height="200" width="180" x="10" y="0" /><text alignment-baseline="middle" fill="#e1ed5e" style="dominant-baseline: central; font-size:9.0px; font-family:Arial;" text-anchor="middle" x="100.0" y="100.0">2024</text><line stroke="#e1ed5e" stroke-width="0.3" x1="100.0" x2="100.0" y1="15.0" y2="10.0" /><path d="M 100.0 14.0 a86.0,86.0 0 0,1 42.35913384403234,11.155469271406648" fill="none" id="id109" stroke="none" /><text fill="#e1ed5e" style="font-size:6.75px; font-family:Arial;" text-anchor="middle"><textPath startOffset="22.145653131862478" xlink:href="#id109">January</textPath></text><path d="M 100.0 79.0 l 0.0 -31.269709543568467 a52.26970954356847,52.26970954356847 0 0,0 0.8972790702076712,0.00770206165882169 l -0.5367861453588164 31.26510188010408" fill="#a8ff21" stroke="none" /><path d="M 100.72087961077811 79.0123766808444 l 0.5453601679049007 -15.877566248412776 a36.886929460580916,36.886929460580916 0 0,0 0.6326534172493017,0.02716885987679699 l -0.8178393457550387 15.865864820110147" fill="#ff840c" stroke="none" /><path d="M 101.80034050326958 79.07731436759882 l 1.4775171468741763 -17.170988890373113 a38.2344398340249,38.2344398340249 0 0,0 0.6534455785790947,0.06188197567624675 l -1.772062288838284 17.143095159191684" fill="#ff980e" stroke="none" /><path d="M 102.51750503828377 79.15144685158666 l 1.9388668766983936 -16.056599097851826 a37.17323651452282,37.17323651452282 0 0,0 0.6328693564781407,0.081937608682018 l -2.214214055067326 16.020949892969412" fill="#ff880c" stroke="none" /><path d="M 103.23170211078529 79.25015418208739 l 2.5779864348484383 -16.5525222344137 a37.75207468879668,37.75207468879668 0 0,0 0.6394886796774157,0.10522761888693644 l -2.8617526175789245 16.505828617031096" fill="#ff900d" stroke="none" /><path d="M 104.29559338865022 79.4440306129975 l 6.520415394182598 -31.202548078107107 a52.87655601659751,52.87655601659751 0 0,0 0.886910014704252,0.19329790972880626 l -7.055087825505985 31.08601871024458" fill="#a0ff22" stroke="none" /><path d="M 104.9986988182912 79.60360301121754 l 3.932734443732658 -16.04689857934886 a37.52178423236515,37.52178423236515 0 0,0 0.6242815618822496,0.15868993179641047 l -4.207621298840302 15.977023415717182" fill="#ff8d0d" stroke="none" /><path d="M 105.69591212413111 79.78721728523813 l 4.590155621076612 -16.28884297612256 a37.92323651452282,37.92323651452282 0 0,0 0.625083267504115,0.1819526291092977 l -4.8690989009623316 16.207646652710746" fill="#ff930d" stroke="none" /><path d="M 106.72888874123014 80.10723608172694 l 12.154479085188811 -35.932557705961806 a58.93257261410788,58.93257261410788 0 0,0 0.9555333720781696,0.33238410824668085 l -12.769518229311998 35.71861516514653" fill="#58ff2a" stroke="none" /><path d="M 107.40779381753099 80.34994680014964 l 5.763325065506478 -15.287904460464501 a37.338174273858925,37.338174273858925 0 0,0 0.5978157075581916,0.23124795822759592 l -6.024913035558195 15.186716614098867" fill="#ff8a0c" stroke="none" /><path d="M 108.07796709384702 80.6158196554323 l 6.388872314739415 -15.330967768073178 a37.60892116182573,37.60892116182573 0 0,0 0.5937999579972367,0.2534578925409206 l -6.651107347907082 15.219035225872856" fill="#ff8e0d" stroke="none" /><path d="M 109.06512990194946 81.05736502329252 l 21.53572872823826 -45.00139023586214 a70.8890041493776,70.8890041493776 0 0,0 1.0931751158949874,0.5347267288878779 l -22.305064093395316 44.625069756877046" fill="#3bff9a" stroke="none" /><path d="M 109.71004243097381 81.37971332152246 l 7.422110085797708 -14.232874731414814 a37.051867219917014,37.051867219917014 0 0,0 0.5614437402556642,0.2989371682417078 l -7.665342641839931 14.103367095450533" fill="#ff860c" stroke="none" /><path d="M 110.34350942703115 81.72400993836675 l 7.973760527477189 -14.088870821075318 a37.18879668049793,37.18879668049793 0 0,0 0.5528867826123669,0.31920933277263613 l -8.214439777949954 13.949914591026511" fill="#ff880c" stroke="none" /><line stroke="#e1ed5e" stroke-width="0.3" x1="143.13028292997686" x2="145.6673583964461" y1="26.7553504044142" y2="22.446841604673864" /><path d="M 143.63769802327073 25.89364864446614 a86.0,86.0 0 0,1 29.32050498858742,28.57503671076993" fill="none" id="id110" stroke="none" /><text fill="#e1ed5e" style="font-size:6.75px; font-family:Arial;" text-anchor="middle"><textPath startOffset="20.669276256404974" xlink:href="#id110">February</textPath></text><path d="M 111.27062007382361 82.28071324371311 l 33.81186022147082 -53.157860268860695 a84.0,84.0 0 0,0 1.2100574709719707,0.7843446331844213 l -34.719403324699805 52.56960179397238" fill="#4dd2ff" stroke="none" /><path d="M 112.16784306229584 82.88440491214696 l 9.74978177798364 -13.714289069357052 a37.82676348547718,37.82676348547718 0 0,0 0.5260063454215206,0.3807880296325247 l -9.983769133779129 13.544900268351453" fill="#ff920d" stroke="none" /><path d="M 112.7482090630111 83.31218511350987 l 10.477410708870716 -13.715266947313909 a38.25933609958506,38.25933609958506 0 0,0 0.5184869799428766,0.4031786116440423 l -10.711307633448818 13.533387284049075" fill="#ff980e" stroke="none" /><path d="M 113.31354834802062 83.75963576809568 l 10.28899742663419 -12.550903892913611 a37.22925311203319,37.22925311203319 0 0,0 0.4907625133997151,0.40941154325167406 l -10.502934274195798 12.372430165750067" fill="#ff890c" stroke="none" /><path d="M 114.13192950727249 84.46653392183569 l 10.508894823279988 -11.551116298196277 a36.61618257261411,36.61618257261411 0 0,0 0.46131199032600606,0.4269834912576284 l -10.70563658491996 11.369015060806273" fill="#ff7f0b" stroke="none" /><path d="M 114.65682725009322 84.96080404539774 l 11.112081833354608 -11.40197488200136 a36.921161825726145,36.921161825726145 0 0,0 0.45010074978928943,0.44625375795008665 l -11.30617450327386 11.209541113822613" fill="#ff840c" stroke="none" /><path d="M 115.16444852881244 85.47280134310134 l 22.789370558785855 -21.831701478898832 a52.559128630705395,52.559128630705395 0 0,0 0.6185562869040168,0.6568853412859258 l -23.160782679426134 21.437274677668412" fill="#a4ff21" stroke="none" /><path d="M 115.8921839302757 86.27271002978787 l 12.121676154287062 -10.470415156591852 a37.017634854771785,37.017634854771785 0 0,0 0.4112578789393747,0.48446074729735905 l -12.299628596733548 10.260787626844941" fill="#ff850c" stroke="none" /><path d="M 116.35404254752997 86.82634096563983 l 13.08226462234244 -10.538146334836426 a37.79875518672199,37.79875518672199 0 0,0 0.4027071626300564,0.5088073445779961 l -13.261238215614055 10.312019046343753" fill="#ff910d" stroke="none" /><path d="M 116.7966241395341 87.39550010848427 l 45.57092393992153 -34.19727089713546 a77.97510373443984,77.97510373443984 0 0,0 0.7942246291208747,1.0775182446590204 l -46.151250588626226 33.409946343207565" fill="#45ffec" stroke="none" /><path d="M 117.42321728460499 88.27688183743584 l 6.2045037247933905 -4.174667004244468 a28.478215767634854,28.478215767634854 0 0,0 0.26942502362721565,0.40794382532887874 l -6.27525318734133 4.067543300576531" fill="#ff0000" stroke="none" /><line stroke="#e1ed5e" stroke-width="0.3" x1="172.87174338648825" x2="177.1583165268699" y1="56.24261187166439" y2="53.66864786411523" /><path d="M 173.72905801456457 55.72781907015455 a86.0,86.0 0 0,1 12.242430191666344,42.057860355516425" fill="none" id="id111" stroke="none" /><text fill="#e1ed5e" style="font-size:6.75px; font-family:Arial;" text-anchor="middle"><textPath startOffset="22.145653131862474" xlink:href="#id111">March</textPath></text><path d="M 118.18653347947321 89.5 l 45.91102516639391 -26.506742738589217 a74.01348547717842,74.01348547717842 0 0,0 0.6258250266296109,1.1057728566586655 l -46.3592835580449 25.714713111831433" fill="#3fffbf" stroke="none" /><path d="M 119.71291397450082 92.76114493625339 l 30.071834092103074 -11.042794016924661 a53.03526970954357,53.03526970954357 0 0,0 0.30649291969637216,0.8573152450142881 l -30.25696718184339 10.524943815529456" fill="#9eff22" stroke="none" /><path d="M 120.16314734710363 94.1308016681162 l 39.27152424169874 -11.43136835743165 a61.90145228215768,61.90145228215768 0 0,0 0.2882293974725087,1.022824449562117 l -39.46197213124583 10.75553598396652" fill="#37ff2e" stroke="none" /><path d="M 120.43855184770803 95.1765574152323 l 22.46483981245561 -5.301641027152056 a44.08195020746888,44.08195020746888 0 0,0 0.1674886108529424,0.737985723140737 l -22.55253928486622 4.915220970072292" fill="#ffeb16" stroke="none" /><path d="M 120.592083275326 95.88100663000786 l 25.227438120497926 -5.046194159710282 a46.72717842323651,46.72717842323651 0 0,0 0.15058101976636246,0.787903524899938 l -25.310345432546445 4.61238806977703" fill="#efff19" stroke="none" /><path d="M 120.77682067341334 96.94652285012252 l 37.08607068928034 -5.450375262340591 a58.4844398340249,58.4844398340249 0 0,0 0.13745370485742306,0.994546535861854 l -37.17416891069298 4.812940418278651" fill="#5dff2a" stroke="none" /><path d="M 120.86939407059847 97.66154086499901 l 26.64342470631384 -2.9854513112082803 a47.810165975103736,47.810165975103736 0 0,0 0.08439087941674041,0.816405205122603 l -26.690747978212247 2.5276415838027457" fill="#e1ff1b" stroke="none" /><path d="M 120.93736805541906 98.37931529534042 l 27.996128032609093 -2.167077369612235 a49.079875518672196,49.079875518672196 0 0,0 0.05781150984969513,0.840566665332246 l -28.029203503623854 1.6861672801256549" fill="#d0ff1d" stroke="none" /><line stroke="#e1ed5e" stroke-width="0.3" x1="184.99686870605535" x2="189.99668451229388" y1="99.2704041080226" y2="99.22748670261217" /><path d="M 185.99683186730306 99.26182062694052 a86.0,86.0 0 0,1 -10.086455211305974,41.156179273409016" fill="none" id="id112" stroke="none" /><text fill="#e1ed5e" style="font-size:6.75px; font-family:Arial;" text-anchor="middle"><textPath startOffset="21.40746469413373" xlink:href="#id112">April</textPath></text><path d="M 120.99922638620191 100.18025310272382 l 16.384251174177987 0.14063909096635177 a37.384854771784234,37.384854771784234 0 0,0 -0.011017082425192204,0.6416898189780008 l -16.379422660154127 -0.4218758259134237" fill="#ff8b0c" stroke="none" /><path d="M 120.98066250479742 100.90099992219065 l 16.344893714836996 0.701920063864288 a37.35995850622407,37.35995850622407 0 0,0 -0.033016259421138866,0.6405066124055051 l -16.330435865959284 -0.9823984696465238" fill="#ff8b0c" stroke="none" /><path d="M 120.86939407059847 102.33845913500097 l 20.139521960245585 2.2566754426684037 a41.2655601659751,41.2655601659751 0 0,0 -0.08492435331903674,0.7032954718428575 l -20.097815520666884 -2.6020645914346696" fill="#ffc312" stroke="none" /><path d="M 120.77682067341334 103.0534771498775 l 25.44144475761921 3.7390162551033903 a46.71473029045643,46.71473029045643 0 0,0 -0.12341254912751425,0.7923970955878772 l -25.37351071635343 -4.175201532622718" fill="#efff19" stroke="none" /><path d="M 120.592083275326 104.11899336999214 l 31.281779142763316 6.257231925872758 a52.90145228215768,52.90145228215768 0 0,0 -0.1857654377143788,0.8889548673087331 l -31.169755994224573 -6.7933032444669" fill="#a0ff22" stroke="none" /><path d="M 120.35273937422433 105.17358676015961 l 24.82262078391615 6.309813135167986 a46.61203319502074,46.61203319502074 0 0,0 -0.20378452230390484,0.7738030239336326 l -24.710646780807515 -6.734996663474422" fill="#f1ff19" stroke="none" /><path d="M 120.16314734710363 105.8691983318838 l 19.47889116119867 5.670021328623367 a41.28734439834025,41.28734439834025 0 0,0 -0.20392739515587513,0.6788079746831465 l -19.378687446039166 -6.003566906897237" fill="#ffc412" stroke="none" /><path d="M 119.83427380445688 106.89939002012753 l 44.13037743036687 15.350836064344207 a67.72406639004149,67.72406639004149 0 0,0 -0.39138005623943495,1.0947596738646097 l -43.86035720408349 -16.106130694589737" fill="#36ff72" stroke="none" /><path d="M 119.58574465831526 107.57618678355244 l 23.295078042032948 9.01103662193123 a45.97717842323651,45.97717842323651 0 0,0 -0.2910603343287607,0.7336621771912867 l -23.136959032738062 -9.409599816336081" fill="#f9ff18" stroke="none" /><path d="M 119.16976305983485 108.57439118712176 l 37.37081106285231 16.715488450887193 a61.93879668049792,61.93879668049792 0 0,0 -0.44246579667898916,0.9668676181062607 l -37.07836080131826 -17.35454505120814" fill="#37ff2e" stroke="none" /><path d="M 118.70294669586154 109.54985784667822 l 38.01565158275592 19.411062570396936 a63.684647302904565,63.684647302904565 0 0,0 -0.5055103255033548,0.9693827031875302 l -37.67683318827762 -20.06079151668897" fill="#31ff3e" stroke="none" /><line stroke="#e1ed5e" stroke-width="0.3" x1="174.33088141563837" x2="178.70328620479359" y1="141.23008692659167" y2="143.65538615756765" /><path d="M 175.20536237346943 141.71514677278685 a86.0,86.0 0 0,1 -30.301960400862466,31.631185727798858" fill="none" id="id113" stroke="none" /><text fill="#e1ed5e" style="font-size:6.75px; font-family:Arial;" text-anchor="middle"><textPath startOffset="22.145653131862474" xlink:href="#id113">May</textPath></text><path d="M 117.62189284568427 111.42229804090321 l 41.82718697530009 27.111877255653056 a70.8454356846473,70.8454356846473 0 0,0 -0.6702503183120416,1.014844408656087 l -41.355612218067314 -27.825901542648204" fill="#3bff99" stroke="none" /><path d="M 117.01052211995028 112.31430620078461 l 20.9001539562104 15.130099690383105 a46.801867219917014,46.801867219917014 0 0,0 -0.47670594657362325,0.6467431705550317 l -20.63734599005295 -15.486649170207013" fill="#eeff19" stroke="none" /><path d="M 116.57777611688842 112.89097897827486 l 20.405306524433186 15.867289773792372 a46.84854771784232,46.84854771784232 0 0,0 -0.4991234666748564,0.6306261950664439 l -20.12991662711677 -16.215235912773498" fill="#edff19" stroke="none" /><path d="M 115.89218393027572 113.72728997021213 l 19.709793614771407 17.024850290560938 a47.044605809128626,47.044605809128626 0 0,0 -0.5331474134762985,0.6066238880152165 l -19.41463513733652 -17.360686456387448" fill="#ebff1a" stroke="none" /><path d="M 115.41159269507618 114.26474011684316 l 18.98357416737896 17.57091284101961 a46.86721991701245,46.86721991701245 0 0,0 -0.5515695234042568,0.5857477198037748 l -18.679148810238445 -17.894202020767878" fill="#edff1a" stroke="none" /><path d="M 114.91283532996324 114.78537596483092 l 36.079868049344995 35.771494961741205 a71.80705394190872,71.80705394190872 0 0,0 -0.8753898095615281,0.8679078903354859 l -35.460486319653505 -36.385582862305355" fill="#3cffa5" stroke="none" /><path d="M 113.03279911837588 116.46651593811092 l 20.46273068452762 25.853991755228986 a53.97199170124481,53.97199170124481 0 0,0 -0.731423433638292,0.5687592859722264 l -20.015897306254097 -26.201452092822006" fill="#93ff23" stroke="none" /><path d="M 112.45986205192187 116.90419585922612 l 24.053737840898965 32.633515035290245 a61.54045643153527,61.54045643153527 0 0,0 -0.8557610432505609,0.6195050009035864 l -23.489995787274434 -33.04162080756691" fill="#3bff2e" stroke="none" /><path d="M 111.8722381534696 117.32195027204791 l 20.343611406130552 29.681937017737113 a56.9844398340249,56.9844398340249 0 0,0 -0.8116313083366586,0.5461017662033276 l -19.83108380969689 -30.02678845799756" fill="#6fff28" stroke="none" /><path d="M 111.27062007382361 117.71928675628689 l 12.499899323132173 19.651917914056185 a44.29045643153527,44.29045643153527 0 0,0 -0.6450290632876078,0.4025458416347204 l -12.16070613105485 -19.863599552532452" fill="#ffee16" stroke="none" /><line stroke="#e1ed5e" stroke-width="0.3" x1="143.1302829299769" x2="145.66735839644613" y1="173.24464959558577" y2="177.55315839532614" /><path d="M 143.63769802327073 174.10635135553383 a86.0,86.0 0 0,1 -40.68552437913181,11.842963189579606" fill="none" id="id114" stroke="none" /><text fill="#e1ed5e" style="font-size:6.75px; font-family:Arial;" text-anchor="middle"><textPath startOffset="21.407464694133747" xlink:href="#id114">June</textPath></text><path d="M 110.02825361518725 118.45085714620011 l 15.149380164970195 27.873153193296375 a52.72406639004149,52.72406639004149 0 0,0 -0.7989232191677841,0.42538161467757035 l -14.668668130015858 -28.129105275696514" fill="#a2ff22" stroke="none" /><path d="M 109.06512990194946 118.94263497670748 l 17.838746290454488 37.27611882864533 a62.3246887966805,62.3246887966805 0 0,0 -0.9690340141220132,0.4535568480048791 l -17.19622356246097 -37.57685190822074" fill="#32ff2f" stroke="none" /><path d="M 107.407793817531 119.65005319985036 l 18.831252985466314 49.95213583139199 a74.38381742738589,74.38381742738589 0 0,0 -1.1986805123241044,0.44017208758054677 l -17.970983321488085 -50.26803876798126" fill="#40ffc4" stroke="none" /><path d="M 105.3480935250658 120.30758222061773 l 6.746935414772554 25.619212721416528 a47.49273858921162,47.49273858921162 0 0,0 -0.7901767368238309,0.2008598365385217 l -6.306153384723326 -25.73125778979032" fill="#e5ff1a" stroke="none" /><path d="M 104.64783097203109 120.47920084513623 l 4.491479811590795 19.790288783511173 a41.29356846473029,41.29356846473029 0 0,0 -0.6926260364375647,0.15095462092822848 l -4.151091358534094 -19.86447486257312" fill="#ffc412" stroke="none" /><path d="M 103.94208987418118 120.62667999033965 l 10.594804676667133 55.436495006639 a77.43983402489627,77.43983402489627 0 0,0 -1.307867588961988,0.23833704207053166 l -9.641602354154086 -55.6102002226409" fill="#44ffe6" stroke="none" /><path d="M 102.15924093988457 120.88869738790638 l 2.1211630394924095 20.52032824309889 a41.62966804979253,41.62966804979253 0 0,0 -0.7114717161527342,0.06737711123401861 l -1.7685917599546601 -20.553717109838093" fill="#ffc912" stroke="none" /><path d="M 101.44090949804482 120.95050786540614 l 1.434076495090247 20.851157502084707 a41.90041493775934,41.90041493775934 0 0,0 -0.7180048077783772,0.04319338627272531 l -1.0759273351794045 -20.872702866182124" fill="#ffcc13" stroke="none" /><line stroke="#e1ed5e" stroke-width="0.3" x1="101.45913802915013" x2="101.54496967792366" y1="184.9874750549273" y2="189.98673829345242" /><path d="M 101.47630435890484 185.9873277026323 a86.0,86.0 0 0,1 -42.54439059252881,-10.42667462771756" fill="none" id="id115" stroke="none" /><text fill="#e1ed5e" style="font-size:6.75px; font-family:Arial;" text-anchor="middle"><textPath startOffset="22.145653131862474" xlink:href="#id115">July</textPath></text><path d="M 100.36049292484886 120.99690560180557 l 0.35605888324208906 20.73864490753321 a41.74170124481328,41.74170124481328 0 0,0 -0.7165518080909388,0.0061507354745043655 l -2.5401258038331253e-15 -20.741701244813278" fill="#ffca12" stroke="none" /><path d="M 100.0 121.0 l 2.5389824613857884e-15 20.732365145228215 a41.732365145228215,41.732365145228215 0 0,0 -0.7163915415268387,-0.006149359778804409 l 0.355898616677984 -20.729310183643847" fill="#ffca12" stroke="none" /><path d="M 99.63950707515114 120.99690560180557 l -0.3557917723019174 20.72308703438427 a41.726141078838175,41.726141078838175 0 0,0 -0.7160736047628136,-0.018443515970741557 l 0.7114786911354748 -20.713925801063482" fill="#ffca12" stroke="none" /><path d="M 99.27912038922189 120.98762331915562 l -0.7104104048124484 20.68282381037119 a41.69502074688796,41.69502074688796 0 0,0 -0.715117732582982,-0.030710232399340325 l 1.0653538979962691 -20.667581009546023" fill="#ffca12" stroke="none" /><path d="M 97.84075906011543 120.88869738790638 l -2.1298025631108017 20.603907796962773 a41.71369294605809,41.71369294605809 0 0,0 -0.7116437425819333,-0.07974116570310649 l 2.4831822072935346 -20.564310870752696" fill="#ffca12" stroke="none" /><path d="M 97.12497278360702 120.80226474461374 l -2.8430730016286794 20.571059964553566 a41.766597510373444,41.766597510373444 0 0,0 -0.7093855598161323,-0.10425524825958789 l 3.1957836670524964 -20.519223642995097" fill="#ffcb12" stroke="none" /><path d="M 95.35216902796893 120.47920084513623 l -4.581708895369105 20.187854775021673 a41.70124481327801,41.70124481327801 0 0,0 -0.6967440930476441,-0.16442970882343685 l 4.927585142156636 -20.106228922552006" fill="#ffca12" stroke="none" /><path d="M 94.6519064749342 120.30758222061772 l -6.194531563709893 23.521645322517507 a45.32365145228216,45.32365145228216 0 0,0 -0.7506861406027119,-0.20460284577425625 l 6.597399105247301 -23.411841982599107" fill="#fffc17" stroke="none" /><path d="M 94.30408787586889 120.21278271476187 l -6.5957109273800425 23.405851234906528 a45.31742738589212,45.31742738589212 0 0,0 -0.746960654964292,-0.2174293603388801 l 6.996531594725941 -23.289178180265132" fill="#fffc17" stroke="none" /><path d="M 93.27111125876986 119.89276391827306 l -7.776912165508861 22.991058950594486 a45.27074688796681,45.27074688796681 0 0,0 -0.7340203814554043,-0.25533039143816166 l 8.170438319009287 -22.854170126587732" fill="#fffb17" stroke="none" /><path d="M 92.59220618246901 119.65005319985036 l -8.637303164839038 22.911472818082792 a45.48547717842324,45.48547717842324 0 0,0 -0.7282609086239763,-0.28170696428192044 l 9.029336335956543 -22.759825965662834" fill="#fffe18" stroke="none" /><path d="M 92.25597844496254 119.51999308798841 l -8.945561354700208 22.548658287028694 a45.25829875518672,45.25829875518672 0 0,0 -0.7197050934954681,-0.2926977960236169 l 9.331320909386118 -22.391773234425788" fill="#fffb17" stroke="none" /><path d="M 90.6110303473126 118.78422872680471 l -10.85825713834802 21.723787934793116 a45.28630705394191,45.28630705394191 0 0,0 -0.692390496387663,-0.3535395209331486 l 11.229574856449265 -21.53419046218713" fill="#fffb17" stroke="none" /><line stroke="#e1ed5e" stroke-width="0.3" x1="58.13341422392154" x2="55.67067388415222" y1="173.97424548756322" y2="178.32567169271397" /><path d="M 57.64086615596768 174.84453072859336 a86.0,86.0 0 0,1 -31.369924170532247,-30.572349798747897" fill="none" id="id116" stroke="none" /><text fill="#e1ed5e" style="font-size:6.75px; font-family:Arial;" text-anchor="middle"><textPath startOffset="22.145653131862474" xlink:href="#id116">August</textPath></text><path d="M 89.03521579738668 117.91015095944536 l -13.0966450315743 21.39238540799193 a46.08298755186722,46.08298755186722 0 0,0 -0.6711347926618163,-0.4188377475356197 l 13.461943953025827 -21.164411863614763" fill="#f8ff18" stroke="none" /><path d="M 88.4268655584334 117.5232005979908 l -18.251525893176016 27.635136449884122 a54.11825726141079,54.11825726141079 0 0,0 -0.7708081727909116,-0.5186341387294996 l 18.723230354063933 -27.317752637097502" fill="#91ff24" stroke="none" /><path d="M 86.68645165197938 116.24036423190432 l -23.740653122663318 28.959736633447655 a58.447095435684645,58.447095435684645 0 0,0 -0.7704598147755621,-0.6427449798386434 l 24.234287271600774 -28.54792946969714" fill="#5eff2a" stroke="none" /><path d="M 84.1078160697243 113.72728997021213 l -15.319895741915158 13.232961063460262 a41.24377593360995,41.24377593360995 0 0,0 -0.4582093879431301,-0.5397695068458885 l 15.5447996933654 -12.96802477416482" fill="#ffc312" stroke="none" /><path d="M 83.8745106332314 113.45245675266167 l -15.511344321235178 12.940115112852247 a41.20020746887967,41.20020746887967 0 0,0 -0.44840183166860975,-0.546977325517727 l 15.731192972142418 -12.671935505636025" fill="#ffc312" stroke="none" /><path d="M 83.64595745247003 113.17365903436017 l -15.820863922684593 12.744168075919267 a41.315352697095435,41.315352697095435 0 0,0 -0.44017292039161643,-0.5561441055999853 l 16.03730327371777 -12.470704026404603" fill="#ffc412" stroke="none" /><path d="M 83.20337586046588 112.60449989151573 l -26.715792366570785 20.04802865080591 a54.40145228215768,54.40145228215768 0 0,0 -0.5541124178504832,-0.751759915185346 l 27.056006804005097 -19.586462426351687" fill="#8dff24" stroke="none" /><path d="M 82.78059297857968 112.02048342749411 l -16.367112720122986 11.425515812677416 a40.960580912863065,40.960580912863065 0 0,0 -0.39753270362132365,-0.5800120949922922 l 16.560835160559638 -11.142868982615072" fill="#ffbf11" stroke="none" /><path d="M 82.37810715431573 111.42229804090323 l -27.524414729329017 17.840993087006513 a53.80082987551867,53.80082987551867 0 0,0 -0.4956908931789589,-0.7793084161462832 l 27.82662331413387 -17.36587099618156" fill="#95ff23" stroke="none" /><path d="M 81.99639281039703 110.81064883170644 l -22.31241359316089 13.397963274979409 a47.02593360995851,47.02593360995851 0 0,0 -0.4096323601406409,-0.6956453017065847 l 22.5391196634313 -13.012966804979266" fill="#ebff1a" stroke="none" /><line stroke="#e1ed5e" stroke-width="0.3" x1="26.387840678322732" x2="22.057713659400548" y1="142.50000000000003" y2="145.00000000000006" /><path d="M 25.521815274538298 143.00000000000003 a86.0,86.0 0 0,1 -11.493303480769221,-40.785679425670985" fill="none" id="id117" stroke="none" /><text fill="#e1ed5e" style="font-size:6.75px; font-family:Arial;" text-anchor="middle"><textPath startOffset="21.40746469413373" xlink:href="#id117">September</textPath></text><path d="M 81.4637452351635 109.86951160357371 l -29.197073487766325 15.545797100531276 a54.07780082987552,54.07780082987552 0 0,0 -0.4292539545676211,-0.8231510571388639 l 29.459635511308893 -15.04229980028791" fill="#91ff24" stroke="none" /><path d="M 80.68587082218212 108.24405325689762 l -33.298840968395545 14.213295137929292 a57.20539419087137,57.20539419087137 0 0,0 -0.37775760606554876,-0.9064807367294556 l 33.537924418997584 -13.639581891758555" fill="#6cff28" stroke="none" /><path d="M 80.41425534168474 107.57618678355246 l -23.686909033270727 9.162605266830417 a46.39730290456431,46.39730290456431 0 0,0 -0.2809672992013299,-0.7452991420547559 l 23.840707016286494 -8.754637844581515" fill="#f4ff19" stroke="none" /><path d="M 80.16572619554312 106.89939002012753 l -22.5295952446891 7.8369627303315825 a44.85373443983403,44.85373443983403 0 0,0 -0.24672667736773415,-0.729403581180188 l 22.6608073436292 -7.449057474677233" fill="#fff617" stroke="none" /><path d="M 79.56144815229197 104.8234425847677 l -32.41454977388432 7.649745486393593 a54.30497925311203,54.30497925311203 0 0,0 -0.20633083370164806,-0.9091317238832234 l 32.54109146914363 -7.0921794285713435" fill="#8fff24" stroke="none" /><path d="M 79.48165901384964 104.47187691870673 l -32.440749849027604 7.070310439490532 a54.20228215767635,54.20228215767635 0 0,0 -0.190333350707173,-0.9108139845823993 l 32.55734091055915 -6.512380003622724" fill="#90ff24" stroke="none" /><path d="M 79.13060592940153 102.33845913500099 l -33.01743495816675 3.6996724548415054 a54.22406639004149,54.22406639004149 0 0,0 -0.09571221004734001,-0.9259288090904273 l 33.07607956069576 -3.132339123468147" fill="#90ff24" stroke="none" /><path d="M 79.03789590574601 101.26102812881392 l -32.81929901538137 1.9743275312565276 a53.878630705394194,53.878630705394194 0 0,0 -0.04761436895944833,-0.9237060375324037 l 32.84835497379739 -1.4106497003473932" fill="#94ff23" stroke="none" /><path d="M 79.00696218219943 100.54070618675478 l -20.18728844097627 0.5199529409975838 a41.19398340248962,41.19398340248962 0 0,0 -0.012139608762367778,-0.7070713505212882 l 20.193239481337308 -0.17333467450724316" fill="#ffc212" stroke="none" /><line stroke="#e1ed5e" stroke-width="0.3" x1="15.003131293944662" x2="10.003315487706104" y1="100.72959589197737" y2="100.7725132973878" /><path d="M 14.003168132696942 100.73817937305945 a86.0,86.0 0 0,1 10.791469493833604,-42.45332614584628" fill="none" id="id118" stroke="none" /><text fill="#e1ed5e" style="font-size:6.75px; font-family:Arial;" text-anchor="middle"><textPath startOffset="22.145653131862435" xlink:href="#id118">October</textPath></text><path d="M 79.0935383218832 98.0201363427161 l -33.14423933498719 -3.138793924958983 a54.29253112033195,54.29253112033195 0 0,0 0.09583305879740582,-0.9270979111221553 l 33.08547388370812 3.7072963583640512" fill="#8fff24" stroke="none" /><path d="M 79.17382384314186 97.30363454192245 l -34.59404394520196 -4.478891585594447 a55.88278008298755,55.88278008298755 0 0,0 0.13133912510642148,-0.9503044827580612 l 34.51206030354033 5.072084376552575" fill="#7cff26" stroke="none" /><path d="M 79.2786578344484 96.59031103205396 l -32.75556563128912 -5.389915859674036 a54.196058091286304,54.196058091286304 0 0,0 0.15893686327396847,-0.9167055915364372 l 32.65821395052292 5.951414484131066" fill="#90ff24" stroke="none" /><path d="M 79.407916724674 95.88100663000787 l -32.600063075030775 -6.520925633021035 a54.245850622406635,54.245850622406635 0 0,0 0.19048634300836723,-0.9115461081274502 l 32.48331902119804 7.079588192433894" fill="#8fff24" stroke="none" /><path d="M 79.56144815229197 95.17655741523228 l -32.18132978392084 -7.594706203787339 a54.065352697095435,54.065352697095435 0 0,0 0.2209276973669756,-0.9014603970188458 l 32.04621456003756 8.146022425414303" fill="#91ff23" stroke="none" /><path d="M 79.73907114497095 94.47779374421319 l -32.14786088482456 -8.762042439346384 a54.32053941908714,54.32053941908714 0 0,0 0.25293067884383086,-0.8975617498922505 l 31.992711713906143 9.312612113141649" fill="#8eff24" stroke="none" /><path d="M 79.94057633289273 93.78553927170692 l -31.596267658222164 -9.788604487407692 a54.07780082987552,54.07780082987552 0 0,0 0.28232547924401336,-0.8843805426118386 l 31.423577463200893 10.329554063710923" fill="#91ff24" stroke="none" /><path d="M 80.28708602549916 92.7611449362534 l -31.17024186543033 -11.446144565823388 a54.20539419087137,54.20539419087137 0 0,0 0.32825061489628843,-0.8707237545314735 l 30.969160566719605 11.979536600549007" fill="#90ff24" stroke="none" /><path d="M 80.5471966667186 92.08871423366112 l -30.580221956053514 -12.43671004880302 a54.01244813278009,54.01244813278009 0 0,0 0.3566728871109779,-0.8558850868609107 l 30.36222322440606 12.959827645105195" fill="#92ff23" stroke="none" /><path d="M 81.1358732173502 90.77261029715801 l -18.047836767751505 -8.828101351740937 a41.09128630705394,41.09128630705394 0 0,0 0.31538557586723953,-0.6309824201561318 l 17.893631278672522 9.13661562806084" fill="#ffc111" stroke="none" /><path d="M 81.46374523516351 90.13048839642627 l -20.03058235702248 -10.665156878076411 a43.69294605809129,43.69294605809129 0 0,0 0.35818780251933574,-0.6590252131025993 l 19.844549204887795 11.00743692465363" fill="#ffe615" stroke="none" /><line stroke="#e1ed5e" stroke-width="0.3" x1="26.387840678322718" x2="22.05771365940052" y1="57.49999999999999" y2="54.99999999999999" /><path d="M 25.521815274538284 56.99999999999999 a86.0,86.0 0 0,1 29.574782752854787,-30.34633250058573" fill="none" id="id119" stroke="none" /><text fill="#e1ed5e" style="font-size:6.75px; font-family:Arial;" text-anchor="middle"><textPath startOffset="21.40746469413373" xlink:href="#id119">November</textPath></text><path d="M 81.99639281039701 89.18935116829357 l -48.530766861126025 -29.141331097916417 a77.60788381742739,77.60788381742739 0 0,0 0.6956328545363677,-1.136263989046554 l 48.02336604213426 29.970132203087513" fill="#44ffe8" stroke="none" /><path d="M 82.37810715431573 88.57770195909679 l -16.976870982482726 -11.004202662109039 a41.231327800829874,41.231327800829874 0 0,0 0.39007891356539137,-0.5906291926327475 l 16.785467629996607 11.294011733080847" fill="#ffc312" stroke="none" /><path d="M 82.78059297857968 87.97951657250589 l -16.732017166486816 -11.680247456146851 a41.40560165975104,41.40560165975104 0 0,0 0.41185738204782435,-0.5793289861632829 l 16.529044685909017 11.965753669019655" fill="#ffc512" stroke="none" /><path d="M 83.2033758604659 87.39550010848427 l -26.529107895547497 -19.907937143416525 a54.16804979253112,54.16804979253112 0 0,0 0.5645033613175662,-0.7389530207660296 l 26.183452556875626 20.36041107742344" fill="#90ff24" stroke="none" /><path d="M 83.8745106332314 86.54754324733833 l -25.33766504976993 -21.13758134980316 a53.99688796680498,53.99688796680498 0 0,0 0.5998936912548987,-0.7066732598870394 l 24.971076795007917 21.569421392139756" fill="#92ff23" stroke="none" /><path d="M 84.58840730492382 85.73525988315684 l -14.884017426468796 -13.7764243244616 a41.281120331950206,41.281120331950206 0 0,0 0.4858280031844038,-0.5159325035323147 l 14.645333589548121 14.029898287938424" fill="#ffc412" stroke="none" /><path d="M 86.68645165197937 83.75963576809568 l -12.843983364791688 -15.667571302563294 a41.25933609958506,41.25933609958506 0 0,0 0.5515965155053578,-0.4443271074225129 l 12.573136078931086 15.885746703779207" fill="#ffc312" stroke="none" /><path d="M 87.83215693770416 82.88440491214696 l -12.670929638226568 -17.82324936015757 a42.86825726141079,42.86825726141079 0 0,0 0.6034317752047098,-0.4212422439662685 l 12.363102771848093 18.038136419928964" fill="#ffda14" stroke="none" /><line stroke="#e1ed5e" stroke-width="0.3" x1="56.869717070023135" x2="54.33264160355391" y1="26.7553504044142" y2="22.446841604673864" /><path d="M 56.362301976729285 25.89364864446614 a86.0,86.0 0 0,1 42.16139366436587,-11.88097634709845" fill="none" id="id120" stroke="none" /><text fill="#e1ed5e" style="font-size:6.75px; font-family:Arial;" text-anchor="middle"><textPath startOffset="22.145653131862474" xlink:href="#id120">December</textPath></text></svg>