<?xml version="1.0" encoding="utf-8" ?>
<svg baseProfile="full" height="200mm" version="1.1" viewBox="0,0,200,200" width="200mm" xmlns="http://www.w3.org/2000/svg" xmlns:ev="http://www.w3.org/2001/xml-events" xmlns:xlink="http://www.w3.org/1999/xlink"><defs /><rect fill="#1a1a1a" height="200" width="200" x="0" y="0" /><rect fill="#1a1a1a" height="200" width="180" x="10" y="0" /><text alignment-baseline="middle" fill="#e1ed5e" style="dominant-baseline: central; font-size:9.0px; font-family:Arial;" text-anchor="middle" x="100.0" y="100.0">2019</text><line stroke="#e1ed5e" stroke-width="0.3" x1="100.0" x2="100.0" y1="15.0" y2="10.0" /><path d="M 100.0 14.0 a86.0,86.0 0 0,1 42.46469731375804,11.215312516191453" fill="none" id="id49" stroke="none" /><text fill="#e1ed5e" style="font-size:6.75px; font-family:Arial;" text-anchor="middle"><textPath startOffset="22.20632615414155" xlink:href="#id49">January</textPath></text><path d="M 100.36148047927253 79.00311137660856 l 0.6749991485645054 -39.207876374999806 a60.213686305776335,60.213686305776335 0 0,0 1.0361724965542431,0.026761278579360157 l -1.3497982803136162 39.190448304278085" fill="red" stroke="none" /><path d="M 101.08401301168833 79.027996857942 l 2.044959762467951 -39.56308835911898 a60.61590363656455,60.61590363656455 0 0,0 1.0415484988549273,0.06282904979650222 l -2.72567031016249 39.522026039942176" fill="red" stroke="none" /><line stroke="#e1ed5e" stroke-width="0.3" x1="143.23703022742887" x2="145.7803849466894" y1="26.81831364943548" y2="22.513508569990506" /><path d="M 143.74570117128098 25.957352633546492 a86.0,86.0 0 0,1 28.547481713284135,27.462654790039103" fill="none" id="id50" stroke="none" /><text fill="#e1ed5e" style="font-size:6.75px; font-family:Arial;" text-anchor="middle"><textPath startOffset="19.985693538727396" xlink:href="#id50">February</textPath></text><path d="M 114.68862486808459 84.99185889309783 l 27.18541069867142 -27.776764910189495 a59.86637651918909,59.86637651918909 0 0,0 0.7302677351390411,0.7271317334060321 l -27.659514233977784 27.304697326133343" fill="red" stroke="none" /><path d="M 114.94478906791727 85.2469230424477 l 24.88484174880028 -24.565618405728657 a55.9674842749476,55.9674842749476 0 0,0 0.6709055172685048,0.6914271098051122 l -25.30401152977189 24.13362710037343" fill="red" stroke="none" /><path d="M 115.4437574822437 85.77008943001954 l 23.614835811102683 -21.75875929825488 a53.110809341789114,53.110809341789114 0 0,0 0.6136988399435424,0.6776615870947995 l -23.985878291662264 21.34904492389053" fill="red" stroke="none" /><path d="M 115.9244219780498 86.31012108654704 l 30.750538346319452 -26.435568403353738 a61.55163233948613,61.55163233948613 0 0,0 0.6837782165402493,0.8093777336318454 l -31.201027176346816 25.902331720092786" fill="red" stroke="none" /><path d="M 116.38621287248628 86.86637796730983 l 35.17143242592407 -28.190058522064188 a66.07448345093648,66.07448345093648 0 0,0 0.7036804095554093,0.8936026602709549 l -35.65146691607344 27.580463467840193" fill="red" stroke="none" /><path d="M 116.60985879189232 87.15038557335679 l 36.596255295772934 -28.311364708243115 a67.26898824608706,67.26898824608706 0 0,0 0.7006355336285978,0.9219542346811269 l -37.078166769625646 27.677225697680957" fill="red" stroke="none" /><path d="M 117.04232023915458 87.72973835380427 l 29.36998301611574 -21.14602771775766 a57.1904737549414,57.1904737549414 0 0,0 0.5683300066711197,0.8038624898061327 l -29.729625642590744 20.637338727619735" fill="red" stroke="none" /><path d="M 117.2510076193507 88.02491185347247 l 33.28028369376335 -23.102090009352114 a61.512761514584234,61.512761514584234 0 0,0 0.5963092044534886,0.8750101768444128 l -33.67301736388557 22.525801809237294" fill="red" stroke="none" /><path d="M 117.45458315368197 88.32363383020206 l 47.84053252359779 -32.00326072443731 a78.55801637598128,78.55801637598128 0 0,0 0.7421987985048534,1.1304196894556007 l -48.38432795746056 31.175022971004033" fill="red" stroke="none" /><line stroke="#e1ed5e" stroke-width="0.3" x1="172.23445277983987" x2="176.4835382374775" y1="55.19839476539836" y2="52.563006222186495" /><path d="M 173.08426987136738 54.67131705675599 a86.0,86.0 0 0,1 12.851231095245387,41.99856678651699" fill="none" id="id51" stroke="none" /><text fill="#e1ed5e" style="font-size:6.75px; font-family:Arial;" text-anchor="middle"><textPath startOffset="22.20632615414155" xlink:href="#id51">March</textPath></text><path d="M 117.84615892207809 88.93136811851018 l 39.73539921596722 -24.644883445561412 a67.75759008864331,67.75759008864331 0 0,0 0.606218129707334,0.9964632109141668 l -40.15373314396078 23.957252461440163" fill="red" stroke="none" /><path d="M 118.03404312379186 89.2402003453031 l 54.10212937137558 -32.279398964090696 a84.0,84.0 0 0,0 0.7301613021186908,1.2480823505844187 l -54.6497503479646 31.34333720115238" fill="red" stroke="none" /><path d="M 118.3937258080291 89.86733742301442 l 51.361307244596766 -28.293712826534108 a79.63887846287861,79.63887846287861 0 0,0 0.6511119247333949,1.2064115097674655 l -51.840727268548626 27.405420333434183" fill="red" stroke="none" /><path d="M 118.56541770881063 90.18545643968196 l 55.42784296945735 -29.301736584145942 a83.69639178687638,83.69639178687638 0 0,0 0.6623595615959031,1.2794678481891693 l -55.92401196421337 28.343296013696428" fill="red" stroke="none" /><line stroke="#e1ed5e" stroke-width="0.3" x1="184.98032266829074" x2="189.97916517819016" y1="98.17113171792111" y2="98.06355123074" /><path d="M 185.9800911702706 98.14961562048488 a86.0,86.0 0 0,1 -9.607161424134198,41.387399972396054" fill="none" id="id52" stroke="none" /><text fill="#e1ed5e" style="font-size:6.75px; font-family:Arial;" text-anchor="middle"><textPath startOffset="21.466115282336823" xlink:href="#id52">April</textPath></text><line stroke="#e1ed5e" stroke-width="0.3" x1="174.80103733775053" x2="179.2010983576182" y1="140.37084112569926" y2="142.7455964860345" /><path d="M 175.68104954172406 140.8457921977663 a86.0,86.0 0 0,1 -30.038265399797805,32.042727171017184" fill="none" id="id53" stroke="none" /><text fill="#e1ed5e" style="font-size:6.75px; font-family:Arial;" text-anchor="middle"><textPath startOffset="22.206326154141568" xlink:href="#id53">May</textPath></text><line stroke="#e1ed5e" stroke-width="0.3" x1="143.8653032363475" x2="146.44561519142675" y1="172.8068346515853" y2="177.08958963109032" /><path d="M 144.38136562736335 173.6633856474863 a86.0,86.0 0 0,1 -40.68145358897372,12.25698825130547" fill="none" id="id54" stroke="none" /><text fill="#e1ed5e" style="font-size:6.75px; font-family:Arial;" text-anchor="middle"><textPath startOffset="21.466115282336833" xlink:href="#id54">June</textPath></text><line stroke="#e1ed5e" stroke-width="0.3" x1="102.19456741930631" x2="102.32365962044197" y1="184.97166512339345" y2="189.96999836594603" /><path d="M 102.22038585953345 185.97133177190398 a86.0,86.0 0 0,1 -42.740103519485714,-10.115201625700543" fill="none" id="id55" stroke="none" /><text fill="#e1ed5e" style="font-size:6.75px; font-family:Arial;" text-anchor="middle"><textPath startOffset="22.20632615414155" xlink:href="#id55">July</textPath></text><line stroke="#e1ed5e" stroke-width="0.3" x1="58.666819895761336" x2="56.23545636021788" y1="174.27360380694188" y2="178.64263932499728" /><path d="M 58.180547188652646 175.14741091055294 a86.0,86.0 0 0,1 -31.652253787137756,-30.449443065178592" fill="none" id="id56" stroke="none" /><text fill="#e1ed5e" style="font-size:6.75px; font-family:Arial;" text-anchor="middle"><textPath startOffset="22.20632615414155" xlink:href="#id56">August</textPath></text><line stroke="#e1ed5e" stroke-width="0.3" x1="26.63291911575756" x2="22.317208475507996" y1="142.92168965132927" y2="145.44649492493687" /><path d="M 25.769776987707644 143.4266507060508 a86.0,86.0 0 0,1 -11.730757126820373,-40.83630448921669" fill="none" id="id57" stroke="none" /><text fill="#e1ed5e" style="font-size:6.75px; font-family:Arial;" text-anchor="middle"><textPath startOffset="21.46611528233685" xlink:href="#id57">September</textPath></text><path d="M 79.18660465613746 102.79330883721812 l -23.15164618017716 3.107119083783025 a44.35921466687012,44.35921466687012 0 0,0 -0.09505227195258259,-0.7576601302266618 l 23.20169996137659 -2.7081411992689546" fill="red" stroke="none" /><path d="M 79.10278846688536 102.07522291339032 l -24.679886258118565 2.4508660105945155 a45.801280811997536,45.801280811997536 0 0,0 -0.07115644178659344,-0.7852054057444072 l 24.718417296182235 -2.0256792163015422" fill="red" stroke="none" /><path d="M 79.04373962182676 101.35467743843564 l -24.827828457647193 1.6049475645929572 a45.879648763747625,45.879648763747625 0 0,0 -0.04416167245303274,-0.7885363277824948 l 24.85177648098776 -1.1773395204750245" fill="red" stroke="none" /><path d="M 79.0095281055655 100.63252640178507 l -24.609204706456815 0.7415732138873304 a45.62037544628131,45.62037544628131 0 0,0 -0.016896781928933385,-0.7851270616078101 l 24.618323551070755 -0.31785633648939154" fill="red" stroke="none" /><line stroke="#e1ed5e" stroke-width="0.3" x1="15.007084014347285" x2="10.007500721073583" y1="101.09737516637583" y2="101.16192664675087" /><path d="M 14.007167355692545 101.11028546245083 a86.0,86.0 0 0,1 10.666146001902534,-42.60595125391555" fill="none" id="id58" stroke="none" /><text fill="#e1ed5e" style="font-size:6.75px; font-family:Arial;" text-anchor="middle"><textPath startOffset="22.20632615414155" xlink:href="#id58">October</textPath></text><path d="M 79.08570108090925 98.10471618934814 l -24.77629333846517 -2.2452632925453044 a45.87781981698808,45.87781981698808 0 0,0 0.07804226625217256,-0.785874970766848 l 24.733973946530767 2.6714137940165825" fill="red" stroke="none" /><path d="M 79.16333360222342 97.38593545837743 l -24.059791602388476 -3.01842180058818 a45.24839050569396,45.24839050569396 0 0,0 0.10360588817653761,-0.7719842080612266 l 24.004269715154106 3.432124350714066" fill="red" stroke="none" /><path d="M 79.26566170972629 96.67025291283419 l -24.49741685128797 -3.9340634488406407 a45.81129354961711,45.81129354961711 0 0,0 0.13173613041961865,-0.7775140988913799 l 24.426068859348128 4.355163336047848" fill="red" stroke="none" /><path d="M 79.3925641242962 95.95851677861259 l -24.00375262730348 -4.70756109972696 a45.46101534483884,45.46101534483884 0 0,0 0.15721004489340154,-0.7666120109112641 l 23.919163286495085 5.120048766801626" fill="red" stroke="none" /><path d="M 79.54389044137918 95.25157060432595 l -26.068435561278818 -6.051205649035285 a47.76154745935785,47.76154745935785 0 0,0 0.1927910777780934,-0.7992434826675697 l 25.960411683239908 6.4990343633622505" fill="red" stroke="none" /><path d="M 79.71946130924805 94.55025226153421 l -27.035607393762813 -7.264956937233353 a48.99470782932977,48.99470782932977 0 0,0 0.22587313762452493,-0.8125858537736664 l 26.906547485571927 7.729254094425961" fill="red" stroke="none" /><path d="M 80.14247586403 93.16781622104843 l -29.398234159855786 -10.11476240348406 a52.08962190501271,52.08962190501271 0 0,0 0.29901159249672105,-0.8453460373223203 l 29.219769486549257 10.61930606723299" fill="red" stroke="none" /><path d="M 80.38941819471856 92.48833698450439 l -37.26853689163549 -14.275389327568943 a60.90902883429845,60.90902883429845 0 0,0 0.3834555467779198,-0.9758525410539215 l 37.01728779497588 14.914790873518628" fill="red" stroke="none" /><path d="M 80.65960295795068 91.81776055985345 l -42.68362504013493 -18.05793539256172 a67.3463146022288,67.3463146022288 0 0,0 0.46087100315227647,-1.063753817261871 l 42.36646332713997 18.78998835441019" fill="red" stroke="none" /><path d="M 81.10775173730289 90.83032412892265 l -30.632268762902946 -14.867895649358088 a55.04981953847804,55.04981953847804 0 0,0 0.42110487131324176,-0.8489217243999351 l 30.371803878636292 15.392976962256984" fill="red" stroke="none" /><path d="M 81.43458229118936 90.18545643968196 l -48.244185141868066 -25.504120835493246 a75.57070257559714,75.57070257559714 0 0,0 0.6178513127904667,-1.1447846472487206 l 47.79802572985913 26.33078646607444" fill="red" stroke="none" /><line stroke="#e1ed5e" stroke-width="0.3" x1="26.266209847984243" x2="21.928928074336255" y1="57.711370442889674" y2="55.22380399835377" /><path d="M 25.398753493254645 57.213857153982495 a86.0,86.0 0 0,1 29.58750427330803,-30.492523968695096" fill="none" id="id59" stroke="none" /><text fill="#e1ed5e" style="font-size:6.75px; font-family:Arial;" text-anchor="middle"><textPath startOffset="21.46611528233685" xlink:href="#id59">November</textPath></text><path d="M 81.78341655067845 89.55222093294921 l -41.41933308327627 -23.755280037145216 a68.74803119194104,68.74803119194104 0 0,0 0.597585142538151,-1.0214667186677342 l 41.0042882662678 24.464726168166845" fill="red" stroke="none" /><path d="M 82.15384107792192 88.93136811851018 l -43.01134236980101 -26.676704914416224 a71.61247037581823,71.61247037581823 0 0,0 0.658740621012457,-1.041969465539396 l 42.54577415254259 27.413122027669836" fill="red" stroke="none" /><path d="M 82.54541684631803 88.32363383020206 l -38.88349092552416 -26.011384746857296 a67.78159897870486,67.78159897870486 0 0,0 0.6570797728531907,-0.9641834872766992 l 38.42998668700223 26.67684625740441" fill="red" stroke="none" /><path d="M 82.95767976084542 87.72973835380427 l -38.33818816432806 -27.603025481037783 a68.24133452211363,68.24133452211363 0 0,0 0.6945583123495128,-0.9473767574844127 l 37.857367239464914 28.258864682193696" fill="red" stroke="none" /><path d="M 83.39014120810768 87.1503855733568 l -40.71668957847975 -31.498989146624783 a72.47849189214334,72.47849189214334 0 0,0 0.771881855065753,-0.9802115701038605 l 40.16845364282003 32.19519311068169" fill="red" stroke="none" /><path d="M 83.84228863543731 86.58626213691792 l -37.03753958469455 -30.747661959863507 a69.13728341406329,69.13728341406329 0 0,0 0.7680473539444594,-0.9091258124642353 l 36.50278161726296 31.380646721956857" fill="red" stroke="none" /><path d="M 84.5562425177563 85.77008943001954 l -36.14285985878878 -33.30210695973588 a70.14607458108668,70.14607458108668 0 0,0 0.8258286605686757,-0.8809364358564654 l 35.56426387624965 33.919312812470395" fill="red" stroke="none" /><path d="M 85.05521093208273 85.24692304244772 l -35.89701048717632 -35.43652278105911 a71.44147607603259,71.44147607603259 0 0,0 0.8714642168515678,-0.8677218725539911 l 35.281710470157435 36.04918050426321" fill="red" stroke="none" /><path d="M 85.57189188830299 84.74124197986013 l -32.77265428907076 -34.65942988528189 a68.70034537740497,68.70034537740497 0 0,0 0.8662528493574921,-0.8050876158317692 l 32.171193555918414 35.21842208718831" fill="red" stroke="none" /><path d="M 86.10567301691215 84.25364557470407 l -31.35599263256549 -35.53555159241086 a68.39170498041187,68.39170498041187 0 0,0 0.8894380357748014,-0.7713118999559576 l 30.739660798143916 36.0700284857865" fill="red" stroke="none" /><path d="M 86.65592168130627 83.78471172551755 l -32.4300947519439 -39.40799226536825 a72.03627043591041,72.03627043591041 0 0,0 0.9642452761725222,-0.7796859545673495 l 31.746946077206875 39.96038431719973" fill="red" stroke="none" /><line stroke="#e1ed5e" stroke-width="0.3" x1="56.762969772571076" x2="54.21961505331055" y1="26.818313649435495" y2="22.513508569990535" /><path d="M 56.25429882871897 25.957352633546506 a86.0,86.0 0 0,1 42.265352541879196,-11.944610805530505" fill="none" id="id60" stroke="none" /><text fill="#e1ed5e" style="font-size:6.75px; font-family:Arial;" text-anchor="middle"><textPath startOffset="22.20632615414155" xlink:href="#id60">December</textPath></text></svg>