<?xml version="1.0" encoding="utf-8" ?>
<svg baseProfile="full" height="200mm" version="1.1" viewBox="0,0,200,200" width="200mm" xmlns="http://www.w3.org/2000/svg" xmlns:ev="http://www.w3.org/2001/xml-events" xmlns:xlink="http://www.w3.org/1999/xlink"><defs /><rect fill="#1a1a1a" height="200" width="200" x="0" y="0" /><rect fill="#1a1a1a" height="200" width="180" x="10" y="0" /><text alignment-baseline="middle" fill="#e1ed5e" style="dominant-baseline: central; font-size:9.0px; font-family:Arial;" text-anchor="middle" x="100.0" y="100.0">2015</text><line stroke="#e1ed5e" stroke-width="0.3" x1="100.0" x2="100.0" y1="15.0" y2="10.0" /><path d="M 100.0 14.0 a86.0,86.0 0 0,1 42.46469731375804,11.215312516191453" fill="none" id="id1" stroke="none" /><text fill="#e1ed5e" style="font-size:6.75px; font-family:Arial;" text-anchor="middle"><textPath startOffset="22.20632615414155" xlink:href="#id1">January</textPath></text><path d="M 100.72285384407766 79.0124445844662 l 2.1685615322329816 -62.9626662466014 a84.0,84.0 0 0,0 1.4446366704426739,0.062209093903220936 l -3.2520390350649873 62.916009426173986" fill="#4dd2ff" stroke="none" /><path d="M 103.95276090670814 79.375362276772 l 4.76813784748347 -24.879095406925984 a46.331887549085835,46.331887549085835 0 0,0 0.7819798695327563,0.15685780534360244 l -5.195684126483352 24.793333645505175" fill="#ffc312" stroke="none" /><line stroke="#e1ed5e" stroke-width="0.3" x1="143.23703022742887" x2="145.7803849466894" y1="26.81831364943548" y2="22.513508569990506" /><path d="M 143.74570117128098 25.957352633546492 a86.0,86.0 0 0,1 28.547481713284135,27.462654790039103" fill="none" id="id2" stroke="none" /><text fill="#e1ed5e" style="font-size:6.75px; font-family:Arial;" text-anchor="middle"><textPath startOffset="19.985693538727396" xlink:href="#id2">February</textPath></text><line stroke="#e1ed5e" stroke-width="0.3" x1="172.23445277983987" x2="176.4835382374775" y1="55.19839476539836" y2="52.563006222186495" /><path d="M 173.08426987136738 54.67131705675599 a86.0,86.0 0 0,1 12.851231095245387,41.99856678651699" fill="none" id="id3" stroke="none" /><text fill="#e1ed5e" style="font-size:6.75px; font-family:Arial;" text-anchor="middle"><textPath startOffset="22.20632615414155" xlink:href="#id3">March</textPath></text><line stroke="#e1ed5e" stroke-width="0.3" x1="184.98032266829074" x2="189.97916517819016" y1="98.17113171792111" y2="98.06355123074" /><path d="M 185.9800911702706 98.14961562048488 a86.0,86.0 0 0,1 -9.607161424134198,41.387399972396054" fill="none" id="id4" stroke="none" /><text fill="#e1ed5e" style="font-size:6.75px; font-family:Arial;" text-anchor="middle"><textPath startOffset="21.466115282336823" xlink:href="#id4">April</textPath></text><line stroke="#e1ed5e" stroke-width="0.3" x1="174.80103733775053" x2="179.2010983576182" y1="140.37084112569926" y2="142.7455964860345" /><path d="M 175.68104954172406 140.8457921977663 a86.0,86.0 0 0,1 -30.038265399797805,32.042727171017184" fill="none" id="id5" stroke="none" /><text fill="#e1ed5e" style="font-size:6.75px; font-family:Arial;" text-anchor="middle"><textPath startOffset="22.206326154141568" xlink:href="#id5">May</textPath></text><line stroke="#e1ed5e" stroke-width="0.3" x1="143.8653032363475" x2="146.44561519142675" y1="172.8068346515853" y2="177.08958963109032" /><path d="M 144.38136562736335 173.6633856474863 a86.0,86.0 0 0,1 -40.68145358897372,12.25698825130547" fill="none" id="id6" stroke="none" /><text fill="#e1ed5e" style="font-size:6.75px; font-family:Arial;" text-anchor="middle"><textPath startOffset="21.466115282336833" xlink:href="#id6">June</textPath></text><line stroke="#e1ed5e" stroke-width="0.3" x1="102.19456741930631" x2="102.32365962044197" y1="184.97166512339345" y2="189.96999836594603" /><path d="M 102.22038585953345 185.97133177190398 a86.0,86.0 0 0,1 -42.740103519485714,-10.115201625700543" fill="none" id="id7" stroke="none" /><text fill="#e1ed5e" style="font-size:6.75px; font-family:Arial;" text-anchor="middle"><textPath startOffset="22.20632615414155" xlink:href="#id7">July</textPath></text><path d="M 100.54218724476979 120.99299961872073 l 0.4165608060859254 16.128857562941715 a37.13423593452225,37.13423593452225 0 0,0 -0.639133797703455,0.011003267943981454 l -0.1388673184898024 -16.13363830816486" fill="#ff2503" stroke="none" /><path d="M 95.51606077576429 120.51570834832081 l -5.462892864445593 24.994789434103414 a46.58481380240197,46.58481380240197 0 0,0 -0.7819146766491407,-0.17796123470971184 l 5.892327690487597 -24.897051465816016" fill="#ffc712" stroke="none" /><path d="M 94.81253420990036 120.34920634021253 l -4.222578454599999 16.56418061096084 a38.09392430420186,38.09392430420186 0 0,0 -0.6340090769111543,-0.1674475596310653 l 4.507077974322642 -16.489041702026192" fill="#ff3605" stroke="none" /><line stroke="#e1ed5e" stroke-width="0.3" x1="58.666819895761336" x2="56.23545636021788" y1="174.27360380694188" y2="178.64263932499728" /><path d="M 58.180547188652646 175.14741091055294 a86.0,86.0 0 0,1 -31.652253787137756,-30.449443065178592" fill="none" id="id8" stroke="none" /><text fill="#e1ed5e" style="font-size:6.75px; font-family:Arial;" text-anchor="middle"><textPath startOffset="22.20632615414155" xlink:href="#id8">August</textPath></text><path d="M 89.1626897886671 117.98757091392108 l -8.845457128487745 14.681529296664188 a38.140286295763076,38.140286295763076 0 0,0 -0.5594286428396069,-0.3436467640774252 l 9.09686497125966 -14.527094065758385" fill="#ff3705" stroke="none" /><path d="M 88.54995079064634 117.60387380957326 l -9.330641349415735 14.345391000007133 a38.11289311994066,38.11289311994066 0 0,0 -0.5468751905360836,-0.36243905609462973 l 9.57619123869178 -14.182653922821185" fill="#ff3705" stroke="none" /><path d="M 86.79598089348748 116.32954008644616 l -10.246324611049456 12.671730260701231 a37.296009199646676,37.296009199646676 0 0,0 -0.49573477398540383,-0.40795596953839686 l 10.46292951357955 -12.493479172305653" fill="#ff2803" stroke="none" /><path d="M 86.24171649860922 115.8653595955263 l -10.607399971523742 12.231919403665993 a37.190638852548794,37.190638852548794 0 0,0 -0.4800384314891771,-0.4235781026778129 l 10.816380755919509 -12.047518159215892" fill="#ff2603" stroke="none" /><path d="M 85.44109423537348 115.13401014063109 l -19.523874469805385 20.29510452140927 a49.161550771355714,49.161550771355714 0 0,0 -0.6048042372885504,-0.5919282406049599 l 19.87032865946973 -19.956026177881743" fill="#fff016" stroke="none" /><path d="M 83.28015986056508 112.70617746262583 l -12.798952700683435 9.72651430841576 a37.07539333348171,37.07539333348171 0 0,0 -0.38176838529588447,-0.5114411398017198 l 12.964482352674404 -9.504760289104732" fill="#ff2403" stroke="none" /><path d="M 82.85270091963577 112.12312394758628 l -13.726729152599216 9.704784300547205 a37.810887292137934,37.810887292137934 0 0,0 -0.37115723837124354,-0.534679684088686 l 13.891747298132593 -9.467063354271508" fill="#ff3104" stroke="none" /><path d="M 82.05923443525364 110.91462005526583 l -24.14866142901998 14.691316454127698 a49.26645764804569,49.26645764804569 0 0,0 -0.4345281020486271,-0.7282940930432329 l 24.397970406766838 -14.273460267198354" fill="#fff116" stroke="none" /><line stroke="#e1ed5e" stroke-width="0.3" x1="26.63291911575756" x2="22.317208475507996" y1="142.92168965132927" y2="145.44649492493687" /><path d="M 25.769776987707644 143.4266507060508 a86.0,86.0 0 0,1 -11.730757126820373,-40.83630448921669" fill="none" id="id9" stroke="none" /><text fill="#e1ed5e" style="font-size:6.75px; font-family:Arial;" text-anchor="middle"><textPath startOffset="21.46611528233685" xlink:href="#id9">September</textPath></text><path d="M 79.29508885075956 103.50808413554451 l -16.597728169073296 2.812193998627339 a37.83428096059837,37.83428096059837 0 0,0 -0.10326640998397703,-0.6430400335457214 l 16.64367633341856 -2.5260747353884043" fill="#ff3204" stroke="none" /><path d="M 79.18660465613746 102.79330883721812 l -17.051803589746893 2.2884759007757536 a38.20468330460449,38.20468330460449 0 0,0 -0.08186443278139718,-0.6525400764016135 l 17.088669531775135 -1.9946180700867313" fill="#ff3805" stroke="none" /><line stroke="#e1ed5e" stroke-width="0.3" x1="15.007084014347285" x2="10.007500721073583" y1="101.09737516637583" y2="101.16192664675087" /><path d="M 14.007167355692545 101.11028546245083 a86.0,86.0 0 0,1 10.666146001902534,-42.60595125391555" fill="none" id="id10" stroke="none" /><text fill="#e1ed5e" style="font-size:6.75px; font-family:Arial;" text-anchor="middle"><textPath startOffset="22.20632615414155" xlink:href="#id10">October</textPath></text><path d="M 79.03285615573316 98.82574320788736 l -14.99188153172234 -0.8396145343366217 a36.015374268644344,36.015374268644344 0 0,0 0.039993202033316716,-0.6186771340451791 l 14.97520773868461 1.0975507326348126" fill="#ff1101" stroke="none" /><path d="M 79.08570108090925 98.10471618934814 l -16.060688557547923 -1.4554426676600933 a37.12650086972981,37.12650086972981 0 0,0 0.0631554916394279,-0.6359671820078602 l 16.03325594022627 1.7316853803723837" fill="#ff2503" stroke="none" /><path d="M 79.16333360222342 97.38593545837743 l -16.91710757311001 -2.122336184179646 a38.04971669907903,38.04971669907903 0 0,0 0.08712298160036527,-0.6491674087102881 l 16.87806859245181 2.4132219349545934" fill="#ff3505" stroke="none" /><path d="M 79.21141760316559 97.0276538004421 l -27.980787418631483 -4.000685835945764 a49.26534895812509,49.26534895812509 0 0,0 0.12725499231592852,-0.8384514021879633 l 27.90777653287625 4.48173635052582" fill="#fff116" stroke="none" /><path d="M 79.32604984820605 96.31383870115002 l -16.791608044679162 -2.993940454789353 a38.05642929141261,38.05642929141261 0 0,0 0.12053789737589751,-0.6439182676540187 l 16.7375844233934 3.2825367999059445" fill="#ff3605" stroke="none" /><path d="M 79.71946130924805 94.55025226153421 l -32.39754377544396 -8.705806271437147 a54.54686133630987,54.54686133630987 0 0,0 0.2514694191160511,-0.9046692970195733 l 32.242887585761544 9.262186871875663" fill="#bdff1f" stroke="none" /><path d="M 80.52162464483688 92.15188598940014 l -39.2906612487659 -15.830765318445112 a63.35999518334438,63.35999518334438 0 0,0 0.41630025020458894,-1.0081040765100509 l 39.01233931167511 16.504743965408476" fill="#46ff2c" stroke="none" /><path d="M 80.803312248108 91.48605970444005 l -12.904898842962988 -5.723463322905725 a35.11716850348378,35.11716850348378 0 0,0 0.24982969567752575,-0.5504666182443471 l 12.804466830322111 5.944751949992144" fill="#ff0000" stroke="none" /><line stroke="#e1ed5e" stroke-width="0.3" x1="26.266209847984243" x2="21.928928074336255" y1="57.711370442889674" y2="55.22380399835377" /><path d="M 25.398753493254645 57.213857153982495 a86.0,86.0 0 0,1 29.58750427330803,-30.492523968695096" fill="none" id="id11" stroke="none" /><text fill="#e1ed5e" style="font-size:6.75px; font-family:Arial;" text-anchor="middle"><textPath startOffset="21.46611528233685" xlink:href="#id11">November</textPath></text><path d="M 81.96595687620814 89.24020034530311 l -24.267837058607373 -14.479119463730173 a49.25903069724946,49.25903069724946 0 0,0 0.44071398379749754,-0.7244179114234583 l 24.015007276523658 14.894705148360705" fill="#fff116" stroke="none" /><path d="M 82.34701348167596 88.62581576622439 l -23.68165406639273 -15.25857939290291 a49.171705386962586,49.171705386962586 0 0,0 0.4645634187601169,-0.707561958635816 l 23.415494012274696 15.663959415516391" fill="#fff016" stroke="none" /><path d="M 82.7489923806493 88.02491185347247 l -23.116710671392948 -16.046868336965183 a49.140438797019286,49.140438797019286 0 0,0 0.48833283020180074,-0.6907121569022787 l 22.837065221387267 16.442406994199246" fill="#ffef16" stroke="none" /><path d="M 84.07557802195018 86.31012108654704 l -14.860628145825169 -12.775358513773314 a40.59714402773862,40.59714402773862 0 0,0 0.4601166949573309,-0.5259929215493463 l 14.638519587289995 13.029266991525605" fill="#ff6209" stroke="none" /><path d="M 85.31137513191541 84.99185889309783 l -19.43820643690971 -19.861038571698316 a48.79037104161091,48.79037104161091 0 0,0 0.6052718669860294,-0.5822710564842823 l 19.09345132631125 20.19269271494491" fill="#ffea16" stroke="none" /><path d="M 86.10567301691215 84.25364557470407 l -18.764723599583647 -21.265944644271872 a49.361157476062345,49.361157476062345 0 0,0 0.6419446767945621,-0.5566880978883528 l 18.39588512414231 21.585797735579906" fill="#fff316" stroke="none" /><path d="M 87.22198572758235 83.33499621200491 l -17.128965337522615 -22.33948610078065 a49.15056114504688,49.15056114504688 0 0,0 0.6758292178840819,-0.5090205555012303 l 16.74188996588014 22.631023245787734" fill="#fff016" stroke="none" /><path d="M 87.80319425747018 82.90503203632743 l -15.073759983886749 -21.127289345774653 a46.95343127896403,46.95343127896403 0 0,0 0.6619737567333239,-0.4637549205475591 l 14.707855087569765 21.383629109086154" fill="#ffcd13" stroke="none" /><line stroke="#e1ed5e" stroke-width="0.3" x1="56.762969772571076" x2="54.21961505331055" y1="26.818313649435495" y2="22.513508569990535" /><path d="M 56.25429882871897 25.957352633546506 a86.0,86.0 0 0,1 42.265352541879196,-11.944610805530505" fill="none" id="id12" stroke="none" /><text fill="#e1ed5e" style="font-size:6.75px; font-family:Arial;" text-anchor="middle"><textPath startOffset="22.20632615414155" xlink:href="#id12">December</textPath></text></svg>