<?xml version="1.0" encoding="utf-8" ?>
<svg baseProfile="full" height="200mm" version="1.1" viewBox="0,0,200,200" width="200mm" xmlns="http://www.w3.org/2000/svg" xmlns:ev="http://www.w3.org/2001/xml-events" xmlns:xlink="http://www.w3.org/1999/xlink"><defs /><rect fill="#1a1a1a" height="200" width="200" x="0" y="0" /><rect fill="#1a1a1a" height="200" width="180" x="10" y="0" /><text alignment-baseline="middle" fill="#e1ed5e" style="dominant-baseline: central; font-size:9.0px; font-family:Arial;" text-anchor="middle" x="100.0" y="100.0">2025</text><line stroke="#e1ed5e" stroke-width="0.3" x1="100.0" x2="100.0" y1="15.0" y2="10.0" /><path d="M 100.0 14.0 a86.0,86.0 0 0,1 42.46469731375804,11.215312516191453" fill="none" id="id37" stroke="none" /><text fill="#e1ed5e" style="font-size:6.75px; font-family:Arial;" text-anchor="middle"><textPath startOffset="22.20632615414155" xlink:href="#id37">January</textPath></text><path d="M 100.0 79.0 l 0.0 -19.57137634731582 a40.57137634731582,40.57137634731582 0 0,0 0.6983695507987545,0.00601108720686081 l -0.3368890715262261 19.568476636717516" fill="#fff617" stroke="none" /><path d="M 100.36148047927253 79.00311137660856 l 0.3343939912591955 -19.423547863305753 a40.42642609796047,40.42642609796047 0 0,0 0.6956682679079041,0.017967058938752473 l -0.6686888943619674 19.414914012224642" fill="#fff417" stroke="none" /><path d="M 100.72285384407766 79.0124445844662 l 0.39942449039690187 -11.597010509396553 a32.6038869642281,32.6038869642281 0 0,0 0.5607234608034736,0.02414593173532937 l -0.598988783589707 11.588416851137028" fill="#ff8f0d" stroke="none" /><path d="M 101.08401301168833 79.027996857942 l 0.6521480191598086 -12.616869132968226 a33.633712192279056,33.633712192279056 0 0,0 0.5779199903514352,0.03486171204903431 l -0.8692300583508558 12.603774151538888" fill="#ff9d0e" stroke="none" /><path d="M 101.44485096284872 79.0497635885617 l 0.19963944498496364 -2.8947577826552937 a23.90163376879945,23.90163376879945 0 0,0 0.41020872859731816,0.03184009228330986 l -0.24943836294462296 2.8908924281835193" fill="#ff1602" stroke="none" /><path d="M 101.80526077348638 79.07773832637324 l 1.0066947227356513 -11.667195523147722 a32.71054591554732,32.71054591554732 0 0,0 0.5605573121031583,0.05323167120357576 l -1.2073771619290539 11.648138307428969" fill="#ff910d" stroke="none" /><path d="M 102.52436894288641 79.15227682838746 l 0.9469460766980614 -7.820437547798699 a28.877559921142687,28.877559921142687 0 0,0 0.49296094801722756,0.06400047912657623 l -1.081421753223135 7.802978745507986" fill="#ff5d08" stroke="none" /><path d="M 102.88285421437855 79.19881850522331 l 3.714976157860245 -26.80534205406464 a48.06154856043675,48.06154856043675 0 0,0 0.8184905054212698,0.12062422423335518 l -4.175835643710171 26.73742334567031" fill="#b0ff20" stroke="none" /><path d="M 103.95276090670814 79.375362276772 l 1.6412127322361285 -8.563487351758209 a29.719340276430138,29.719340276430138 0 0,0 0.5015967848782575,0.10061559626902232 l -1.7883759265815113 8.533967799411979" fill="#ff6809" stroke="none" /><path d="M 104.307194497241 79.44645832069477 l 1.1937472246713945 -5.696453538969493 a26.820190319744597,26.820190319744597 0 0,0 0.4510354929049963,0.09857888910400385 l -1.2916254417299187 5.675061151769619" fill="#ff4006" stroke="none" /><path d="M 105.36241919743992 79.69619591428918 l 2.7952219297954417 -10.583588553790042 a31.946488583684037,31.946488583684037 0 0,0 0.5304670476676785,0.14499668263639262 l -2.976986866686831 10.533905330327356" fill="#ff870c" stroke="none" /><path d="M 106.0581310904928 79.89281104454417 l 2.9275548616702336 -9.716676298643524 a31.148121784877723,31.148121784877723 0 0,0 0.5120374882251296,0.15909254006232415 l -3.0943777226060813 9.66484362369868" fill="#ff7c0b" stroke="none" /><path d="M 106.40334571778207 80.00007090966166 l 4.443781804434417 -13.879513132457872 a35.57354045932192,35.57354045932192 0 0,0 0.5815717863495037,0.19173507426209654 l -4.682036413026338 13.800964333936538" fill="#ffb710" stroke="none" /><path d="M 107.4271985657038 80.35727306442388 l 3.4895912681955665 -9.228929022371023 a30.866629521727717,30.866629521727717 0 0,0 0.49536065659716744,0.19219223887015907 l -3.647935089792401 9.167494079610318" fill="#ff780b" stroke="none" /><path d="M 107.76421540070413 80.48803036053334 l 3.790736615826747 -9.526363443306613 a31.25286713775899,31.25286713775899 0 0,0 0.4981351786961399,0.20320184681961662 l -3.954155664111274 9.459700710303416" fill="#ff7d0b" stroke="none" /><path d="M 108.43124777332544 80.76684994638697 l 9.708545254631273 -22.14688889530381 a45.18140894782921,45.18140894782921 0 0,0 0.7096017420885281,0.31837761728081926 l -10.088329115186582 21.97649094750646" fill="#d1ff1c" stroke="none" /><path d="M 109.08828744355905 81.06846463323043 l 5.136353175026323 -10.699381197295217 a32.86839845740096,32.86839845740096 0 0,0 0.5079399860369814,0.2492439451892072 l -5.319764428073736 10.609382091971177" fill="#ff930d" stroke="none" /><path d="M 110.05341064243156 81.56283822128135 l 5.962094879783046 -10.93401152586795 a33.45388226230473,33.45388226230473 0 0,0 0.5032035968420188,0.28003225683560884 l -6.1494225656971 10.829763871472162" fill="#ff9b0e" stroke="none" /><path d="M 110.36928655335952 81.73862282372117 l 6.687440907637373 -11.777269355033546 a34.54348327994516,34.54348327994516 0 0,0 0.5145387829521973,0.2980540742663047 l -6.889176423054898 11.660411123377191" fill="#ffa90f" stroke="none" /><line stroke="#e1ed5e" stroke-width="0.3" x1="143.23703022742887" x2="145.7803849466894" y1="26.81831364943548" y2="22.513508569990506" /><path d="M 143.74570117128098 25.957352633546492 a86.0,86.0 0 0,1 28.547481713284135,27.462654790039103" fill="none" id="id38" stroke="none" /><text fill="#e1ed5e" style="font-size:6.75px; font-family:Arial;" text-anchor="middle"><textPath startOffset="19.985693538727396" xlink:href="#id38">February</textPath></text><path d="M 110.99172775467656 82.1063720568725 l 4.6805816805920095 -7.619601669473513 a29.942380805475523,29.942380805475523 0 0,0 0.4368462862463841,0.2735531043711304 l -4.811047119210657 7.537904223779439" fill="#ff6b09" stroke="none" /><path d="M 111.60114157652 82.49532879139004 l 3.2728714003355264 -4.938353470910893 a26.924442776058513,26.924442776058513 0 0,0 0.3841160314965156,0.2593568591234649 l -3.3573921262385835 4.881284699488758" fill="#ff4106" stroke="none" /><path d="M 111.90073688211348 82.69761687909136 l 5.526972369341603 -8.035619506616765 a30.752876725694087,30.752876725694087 0 0,0 0.4335699603190815,0.3037434648343402 l -5.664473469244336 7.93929119901849" fill="#ff770a" stroke="none" /><path d="M 112.48926042617603 83.11751280151076 l 7.003245497593374 -9.466709671070412 a32.775569603883284,32.775569603883284 0 0,0 0.4506700850419586,0.33943536468290575 l -7.165161736393715 9.34475771688166" fill="#ff920d" stroke="none" /><path d="M 112.77801427241765 83.33499621200491 l 8.822921850874884 -11.506797764610358 a35.50001188903952,35.50001188903952 0 0,0 0.4817308418966399,0.3759985631883269 l -9.019685247930955 11.353220812198806" fill="#ffb610" stroke="none" /><path d="M 113.06298171725822 83.55741782278167 l 6.614864293491619 -8.326234552804065 a31.63403081853813,31.63403081853813 0 0,0 0.4234389787046293,0.34239153923868243 l -6.75720667076074 8.211136916301253" fill="#ff820c" stroke="none" /><path d="M 113.6212207817346 84.01681056812373 l 7.21601907823252 -8.467302727086118 a32.125023452089245,32.125023452089245 0 0,0 0.41778776778017657,0.3623014352699415 l -7.3607006446594605 8.341836298396505" fill="#ff890c" stroke="none" /><path d="M 114.16331599549186 84.49514656593476 l 6.5596447273014356 -7.180968786456536 a30.726009030454197,30.726009030454197 0 0,0 0.3874288073196483,0.3600728528868552 l -6.682281418415931 7.0669913474950405" fill="#ff760a" stroke="none" /><path d="M 114.42810811169701 84.74124197986012 l 5.325532938166265 -5.632132626306319 a28.751272088876632,28.751272088876632 0 0,0 0.356675626029093,0.3431216696462593 l -5.421691807807775 5.539627869897758" fill="#ff5b08" stroke="none" /><path d="M 115.19652480421416 85.50635884689758 l 11.260796765515208 -10.739952029830787 a36.56123752782227,36.56123752782227 0 0,0 0.4304348888608339,0.45915792823202445 l -11.443998976346505 10.544524684720708" fill="#ffc312" stroke="none" /><path d="M 115.68641384162765 86.03803664274999 l 4.561598323060377 -4.06012931190483 a27.106785512062466,27.106785512062466 0 0,0 0.30722073829147484,0.3512064123416909 l -4.6308109249297 3.981007343360191" fill="#ff4406" stroke="none" /><path d="M 115.9244219780498 86.31012108654704 l 7.335941073936299 -6.306548844086396 a30.674119585942336,30.674119585942336 0 0,0 0.3407593590489185,0.4033516000792624 l -7.443411046472335 6.179338294378026" fill="#ff750a" stroke="none" /><path d="M 116.60985879189232 87.15038557335679 l 17.232764583600886 -13.331502885049913 a42.78754562514794,42.78754562514794 0 0,0 0.44565074699896806,0.5864241444572599 l -17.459691270823967 13.032893964711619" fill="#edff19" stroke="none" /><path d="M 117.2510076193507 88.02491185347247 l 9.53664003333326 -6.620025191616455 a32.60914452761318,32.60914452761318 0 0,0 0.31611542958544536,0.46386038632141036 l -9.64917992858744 6.454886782024639" fill="#ff900d" stroke="none" /><path d="M 117.45458315368197 88.32363383020206 l 8.202844814691003 -5.487350734592376 a30.869026352094444,30.869026352094444 0 0,0 0.2916437472133533,0.44419343553333807 l -8.29608519726228 5.345339235081364" fill="#ff780b" stroke="none" /><path d="M 117.65298651832404 88.62581576622439 l 6.672205495956706 -4.299039965721718 a28.937258393623548,28.937258393623548 0 0,0 0.2661847505689598,0.42104035099397646 l -6.745217842771621 4.183551967013536" fill="#ff5e08" stroke="none" /><line stroke="#e1ed5e" stroke-width="0.3" x1="172.23445277983987" x2="176.4835382374775" y1="55.19839476539836" y2="52.563006222186495" /><path d="M 173.08426987136738 54.67131705675599 a86.0,86.0 0 0,1 12.851231095245387,41.99856678651699" fill="none" id="id39" stroke="none" /><text fill="#e1ed5e" style="font-size:6.75px; font-family:Arial;" text-anchor="middle"><textPath startOffset="22.20632615414155" xlink:href="#id39">March</textPath></text><path d="M 118.03404312379186 89.2402003453031 l 15.773455451314929 -9.411046616303638 a39.36762628346017,39.36762628346017 0 0,0 0.3421990151006342,0.584929042247499 l -15.93311414088589 9.138138161702244" fill="#ffe715" stroke="none" /><path d="M 118.3937258080291 89.86733742301442 l 11.005161513961356 -6.0624796406132155 a33.564523044717056,33.564523044717056 0 0,0 0.2744169885891958,0.5084530031381151 l -11.107886601769017 5.872145654142642" fill="#ff9c0e" stroke="none" /><path d="M 118.56541770881063 90.18545643968196 l 8.544620169592658 -4.517083761656542 a30.665121807428548,30.665121807428548 0 0,0 0.24267876073288702,0.4687781226377962 l -8.62110836348566 4.369332916758401" fill="#ff750a" stroke="none" /><path d="M 118.73160827565052 90.50648371742162 l 8.625910080758262 -4.371766513513198 a30.670505011115104,30.670505011115104 0 0,0 0.23461473941418864,0.4729689982735493 l -8.699884833125859 4.222637926740699" fill="#ff750a" stroke="none" /><path d="M 119.196687751892 91.48605970444005 l 27.373468298414597 -12.14043160920482 a50.944896833051345,50.944896833051345 0 0,0 0.34863118861979386,0.8046888504033525 l -27.57839019687707 11.667443614214864" fill="#90ff24" stroke="none" /><path d="M 119.61058180528143 92.48833698450437 l 5.418422805897513 -2.0754797893052275 a26.8023204030185,26.8023204030185 0 0,0 0.16131858649765754,0.43225360925852385 l -5.4533459808967955 1.9819030430173705" fill="#ff4006" stroke="none" /><path d="M 119.85752413597 93.16781622104841 l 6.08854683531481 -2.094826658187157 a27.438843164239486,27.438843164239486 0 0,0 0.14981961966588891,0.4479415933998809 l -6.123703748752469 1.9897119618649621" fill="#ff4906" stroke="none" /><path d="M 120.08093135843002 93.85539295169968 l 9.268187567974419 -2.8359924964953134 a30.69237608821146,30.69237608821146 0 0,0 0.15023786978561607,0.5065274096713137 l -9.315631334871737 2.67603570007747" fill="#ff760a" stroke="none" /><path d="M 120.28053869075195 94.5502522615342 l 9.350981151701381 -2.512777848803355 a30.68271144963596,30.68271144963596 0 0,0 0.13267155941866704,0.5112376385752779 l -9.39284904299035 2.3514437846792267" fill="#ff760a" stroke="none" /><path d="M 120.53481517161879 95.60439243477599 l 11.496075270708749 -2.46080790150733 a32.756501271973825,32.756501271973825 0 0,0 0.11327619932057327,0.5523749771104808 l -11.53673076594432 2.2625572682334374" fill="#ff920d" stroke="none" /><path d="M 120.6074358757038 95.95851677861258 l 9.490117981068318 -1.8611802468202447 a30.6709012612967,30.6709012612967 0 0,0 0.09714537116320636,0.5189544572438024 l -9.520749076141383 1.6975477121138796" fill="#ff750a" stroke="none" /><path d="M 120.67395015179393 96.31383870115 l 18.10959225903892 -3.228936784363397 a39.39519949731607,39.39519949731607 0 0,0 0.1132858458420173,0.6686194749036289 l -18.16248996640116 2.91673152114393" fill="#ffe715" stroke="none" /><path d="M 120.83666639777658 97.38593545837742 l 5.802472642843511 -0.7279493609885122 a26.847956826372005,26.847956826372005 0 0,0 0.053580399674673145,0.45904414341394684 l -5.814143395521772 0.6279614792497126" fill="#ff4006" stroke="none" /><path d="M 120.87857604477298 97.74499172005257 l 6.838081339518327 -0.73855276367989 a27.877849706892988,27.877849706892988 0 0,0 0.04742271053947888,0.47754022337683827 l -6.849781175740034 0.6207370095986168" fill="#ff4f07" stroke="none" /><path d="M 120.96714384426684 98.82574320788733 l 12.805160591967727 -0.7171480727606636 a33.82522667029116,33.82522667029116 0 0,0 0.027553694238704008,0.5816149365048394 l -12.815607894439928 0.4966220296328244" fill="#ffa00e" stroke="none" /><line stroke="#e1ed5e" stroke-width="0.3" x1="184.98032266829074" x2="189.97916517819016" y1="98.17113171792111" y2="98.06355123074" /><path d="M 185.9800911702706 98.14961562048488 a86.0,86.0 0 0,1 -9.607161424134198,41.387399972396054" fill="none" id="id40" stroke="none" /><text fill="#e1ed5e" style="font-size:6.75px; font-family:Arial;" text-anchor="middle"><textPath startOffset="21.466115282336823" xlink:href="#id40">April</textPath></text><path d="M 120.99513854157772 99.54816195383933 l 11.701699322571914 -0.25183320168142026 a32.70440887005188,32.70440887005188 0 0,0 0.007268154448373929,0.5629265718137879 l -11.704300484138003 0.0503703718071696" fill="#ff910d" stroke="none" /><path d="M 120.99980553446 99.90962569577887 l 7.981438862746875 -0.03434874588341206 a28.98151277366076,28.98151277366076 0 0,0 -0.0021469818083946234,0.4988829607141526 l -7.980847583648977 -0.10304369303442529" fill="#ff5e08" stroke="none" /><path d="M 120.9904718944345 100.63252640178507 l 31.31923752248358 0.9437731898729284 a52.3334541157477,52.3334541157477 0 0,0 -0.03488365419761379,0.9001921128074558 l -31.298351735434764 -1.4827425496943905" fill="#81ff25" stroke="none" /><path d="M 120.9764740272857 100.99374915477107 l 10.137573576172628 0.4802620859753042 a31.148943279156644,31.148943279156644 0 0,0 -0.029982562365196423,0.5353587921767266 l -10.127804662919901 -0.6546925944874541" fill="#ff7c0b" stroke="none" /><path d="M 120.95626037817324 101.35467743843564 l 16.11792220849135 1.0419123057397 a37.15156331665237,37.15156331665237 0 0,0 -0.046746293039319445,0.6378160284187775 l -16.097599356787693 -1.3192014706552477" fill="#ffcb12" stroke="none" /><path d="M 120.89721153311464 102.0752229133903 l 9.620227993634586 0.9553483981723235 a30.667547631711,30.667547631711 0 0,0 -0.05668779131761371,0.5248585436957279 l -9.60235790081592 -1.120803263752843" fill="#ff750a" stroke="none" /><path d="M 120.81339534386255 102.79330883721812 l 7.922773743640821 1.0632937849766764 a28.993806193928798,28.993806193928798 0 0,0 -0.07064264802633852,0.49407451576285116 l -7.903297044597881 -1.199513772719937" fill="#ff5e08" stroke="none" /><path d="M 120.70491114924044 103.5080841355445 l 12.694920533198873 2.150931680097881 a33.875850047149626,33.875850047149626 0 0,0 -0.1023592002036098,0.574084754035894 l -12.656014890656074 -2.3691351848669933" fill="#ffa00e" stroke="none" /><path d="M 120.64145759157962 103.86396538481128 l 24.002980785067862 4.493223720965672 a45.41991289859539,45.41991289859539 0 0,0 -0.15046982783784663,0.7672424104069668 l -23.92208102425435 -4.9057298584405835" fill="#ceff1d" stroke="none" /><path d="M 120.49622156327973 104.57218783832717 l 7.74770631909072 1.7283170216378512 a28.93813787573392,28.93813787573392 0 0,0 -0.11263747680886307,0.48523930209593014 l -7.716808276351304 -1.8614249810823462" fill="#ff5e08" stroke="none" /><path d="M 120.41448212921028 104.9243191809786 l 7.772953818385268 1.874968237669232 a28.995893755861104,28.995893755861104 0 0,0 -0.12121482874605227,0.4841929862843509 l -7.739527675344155 -2.0084890633509787" fill="#ff5e08" stroke="none" /><path d="M 120.32669344350535 105.2749913415812 l 11.397251645183752 2.9577070128627208 a32.774777103520094,32.774777103520094 0 0,0 -0.14641261369289021,0.5448558023804432 l -11.344650955149085 -3.153453748418712" fill="#ff920d" stroke="none" /><path d="M 120.23288151984713 105.62410040840565 l 11.380910304638341 3.1635326994604123 a32.812411206133085,32.812411206133085 0 0,0 -0.15594858285205457,0.5428774754400296 l -11.324769084900188 -3.358967650405024" fill="#ff920d" stroke="none" /><path d="M 120.13307415673323 105.97154293290107 l 11.28692812457134 3.3477438841055114 a32.77294082219075,32.77294082219075 0 0,0 -0.16507141548707774,0.5394629367799499 l -11.22762993657813 -3.5415337934375186" fill="#ff920d" stroke="none" /><path d="M 119.79798401119884 107.00284435728193 l 5.485217880003782 1.9402039650965663 a26.818247727390922,26.818247727390922 0 0,0 -0.15768585508021393,0.43388374980078015 l -5.451007763918342 -2.034335511903478" fill="#ff4006" stroke="none" /><path d="M 119.26925614724726 108.34839909993367 l 16.76593238023617 7.263834873704131 a39.27183038589982,39.27183038589982 0 0,0 -0.2740779458083292,0.6179734133332195 l -16.638413349696567 -7.5513566235300384" fill="#ffe615" stroke="none" /><path d="M 118.81262510543309 109.33194174019688 l 5.511486065332313 2.7339548082917062 a27.152315624391647,27.152315624391647 0 0,0 -0.2112984541771978,0.4169118959811531 l -5.463608941368845 -2.8284209159755536" fill="#ff4506" stroke="none" /><line stroke="#e1ed5e" stroke-width="0.3" x1="174.80103733775053" x2="179.2010983576182" y1="140.37084112569926" y2="142.7455964860345" /><path d="M 175.68104954172406 140.8457921977663 a86.0,86.0 0 0,1 -30.038265399797805,32.042727171017184" fill="none" id="id41" stroke="none" /><text fill="#e1ed5e" style="font-size:6.75px; font-family:Arial;" text-anchor="middle"><textPath startOffset="22.206326154141568" xlink:href="#id41">May</textPath></text><path d="M 118.48025628344425 109.97397251340804 l 7.019074352051706 3.788262109744043 a28.976110240697057,28.976110240697057 0 0,0 -0.24067224706244114,0.43689003639809343 l -6.952825695537755 -3.908522664539942" fill="#ff5e08" stroke="none" /><path d="M 118.30583269289576 110.29060199501025 l 11.26396044634397 6.332021918120553 a33.9217377511061,33.9217377511061 0 0,0 -0.2905122295989953,0.5065325596545553 l -11.153296220592596 -6.5249743236334234" fill="#ffa10e" stroke="none" /><path d="M 118.12598468904814 110.60418214915192 l 6.781401839862078 3.9673000705964854 a28.856645643265303,28.856645643265303 0 0,0 -0.25451441125391266,0.42658079290314077 l -6.712106552909939 -4.0834429573857305" fill="#ff5c08" stroke="none" /><path d="M 117.75023020441432 111.22182372390056 l 9.968279271372403 6.302018144313067 a32.79330421566932,32.79330421566932 0 0,0 -0.30575092758213934,0.47453222944507933 l -9.858323480413214 -6.472671973679598" fill="#ff920d" stroke="none" /><path d="M 117.35343817320211 111.8261652097733 l 8.038733668490355 5.478303002095624 a30.727951622807872,30.727951622807872 0 0,0 -0.30163009868054186,0.4345206537851119 l -7.943242662647677 -5.6158649180677545" fill="#ff760a" stroke="none" /><path d="M 117.14729908036423 112.12312394758627 l 4.741958456949548 3.352560065493602 a26.807394338270633,26.807394338270633 0 0,0 -0.26963159038088635,0.3744946963937245 l -4.683547074193059 -3.433688367338458" fill="#ff4006" stroke="none" /><path d="M 116.498646956653 112.99209946851258 l 19.07138550373786 15.018039850049403 a45.27466304544421,45.27466304544421 0 0,0 -0.4874185882060463,0.6081296328211038 l -18.810049003476962 -15.344097316448758" fill="#d0ff1d" stroke="none" /><path d="M 116.0416608686014 113.55231037782055 l 4.515699397783114 3.8149516008955313 a26.911463166451615,26.911463166451615 0 0,0 -0.30199466064687674,0.35128801661882897 l -4.449362227565458 -3.892116716675888" fill="#ff4106" stroke="none" /><path d="M 115.80600337817218 113.82643327865902 l 4.3700001289079715 3.822694058987643 a26.80602195959291,26.80602195959291 0 0,0 -0.30679000733906975,0.3446818255039829 l -4.303551271920563 -3.8973500542324926" fill="#ff4006" stroke="none" /><path d="M 115.56566222782051 114.09645910891815 l 5.903135408739247 5.345953528078779 a28.964058436393408,28.964058436393408 0 0,0 -0.33785000728649417,0.36666945672266665 l -5.81023899345703 -5.446774239602781" fill="#ff5e08" stroke="none" /><path d="M 115.07121518719521 114.62390073753431 l 8.78801654047411 8.527187753041442 a33.24508741051964,33.24508741051964 0 0,0 -0.4020429342261738,0.4072673697523765 l -8.639932981192402 -8.677195616774483" fill="#ff980e" stroke="none" /><path d="M 114.81725581225074 114.88116024355365 l 9.773497174531615 9.815648689406771 a34.85164994556354,34.85164994556354 0 0,0 -0.4287583534865947,0.4196302905578233 l -9.603088868669227 -9.982429082887167" fill="#ffad10" stroke="none" /><path d="M 114.29624159901734 115.38237550388516 l 7.995743148847343 8.603206842604072 a32.74508733381616,32.74508733381616 0 0,0 -0.4161751696258295,0.3801661500351639 l -7.84646842975465 -8.739565759225819" fill="#ff910d" stroke="none" /><path d="M 113.75828350139079 115.86535959552629 l 3.827235716767635 4.4133754692016804 a26.841713469852234,26.841713469852234 0 0,0 -0.35167057349444025,0.29970129206212115 l -3.7506996666961476 -4.478601151486749" fill="#ff4006" stroke="none" /><path d="M 112.92097659922987 116.55440617244103 l 25.326181254325792 32.44800329612548 a62.16173435160784,62.16173435160784 0 0,0 -0.8491626558331148,0.6511017143396074 l -24.763889869999183 -32.87914435229246" fill="#32ff46" stroke="none" /><path d="M 111.1453310114006 117.79835938074945 l 5.181299695012148 8.274194273535974 a30.762589687462466,30.762589687462466 0 0,0 -0.4512151184612523,0.27717317900449034 l -5.038105376618588 -8.362155919368842" fill="#ff770a" stroke="none" /><line stroke="#e1ed5e" stroke-width="0.3" x1="143.8653032363475" x2="146.44561519142675" y1="172.8068346515853" y2="177.08958963109032" /><path d="M 144.38136562736335 173.6633856474863 a86.0,86.0 0 0,1 -40.68145358897372,12.25698825130547" fill="none" id="id42" stroke="none" /><text fill="#e1ed5e" style="font-size:6.75px; font-family:Arial;" text-anchor="middle"><textPath startOffset="21.466115282336833" xlink:href="#id42">June</textPath></text><path d="M 110.5260780823613 118.17145234162733 l 5.8714526516354315 10.136046987348632 a32.713812563385844,32.713812563385844 0 0,0 -0.48969653895281473,0.2780624751120135 l -5.696107345761418 -10.235612628255273" fill="#ff910d" stroke="none" /><path d="M 110.21172684928248 118.3499491758327 l 2.3523580929979113 4.227066791637045 a25.83752852794208,25.83752852794208 0 0,0 -0.3904877215458014,0.2129250403420949 l -2.2792475595834616 -4.26693248373891" fill="#ff3204" stroke="none" /><path d="M 109.2508944713604 118.85261126421891 l 5.160260906903198 10.516214751013747 a32.71405417935023,32.71405417935023 0 0,0 -0.5076712302573467,0.24371304165338276 l -4.978477008645618 -10.60348206916669" fill="#ff910d" stroke="none" /><path d="M 108.92500713936063 119.00905698771935 l 3.3351380011896885 7.103392449618241 a28.8473772548714,28.8473772548714 0 0,0 -0.45129936506648854,0.20716940366596873 l -3.2123706403557803 -7.1597489236182845" fill="#ff5c08" stroke="none" /><path d="M 108.59647513512805 119.15986991738527 l 5.147267223815721 11.47225681318289 a33.57406204299107,33.57406204299107 0 0,0 -0.5293179909615334,0.23203745201567655 l -4.949028558196434 -11.559158818493021" fill="#ff9c0e" stroke="none" /><path d="M 107.59598834532513 119.57807347666477 l 2.099446663868054 5.411161678630534 a26.804166348986417,26.804166348986417 0 0,0 -0.43158508810893564,0.16318855105480343 l -2.005991354998843 -5.446498479791968" fill="#ff4006" stroke="none" /><path d="M 106.57524785965236 119.94407469862006 l 2.442507639930036 7.408626391354065 a28.800871014046095,28.800871014046095 0 0,0 -0.47216786347262446,0.151173239314251 l -2.3146184313664713 -7.449572477328022" fill="#ff5c08" stroke="none" /><path d="M 106.2309692047433 120.05430185196036 l 2.8822183557851595 9.276386226748757 a30.713831585849064,30.713831585849064 0 0,0 -0.506229797270952,0.15252288525138938 l -2.7221135840739614 -9.324624481105872" fill="#ff760a" stroke="none" /><path d="M 105.18746579009965 120.34920634021253 l 1.436637007794641 5.635588568775323 a26.81582190310847,26.81582190310847 0 0,0 -0.4482669617141563,0.11017311290834636 l -1.3394167613372736 -5.6594829399977" fill="#ff4006" stroke="none" /><path d="M 104.48393922423573 120.51570834832081 l 2.5179272607619305 11.520464203633997 a32.79241506892038,32.79241506892038 0 0,0 -0.5524874500826648,0.11577911689968065 l -2.3192483492498877 -11.562099301260218" fill="#ff920d" stroke="none" /><path d="M 103.7750983002368 120.6578951692458 l 1.4067037188851512 7.69769040374254 a28.825167915424903,28.825167915424903 0 0,0 -0.48886253336044977,0.08499501769970452 l -1.2739922140526514 -7.720763999963252" fill="#ff5c08" stroke="none" /><path d="M 103.06178313531738 120.77559828337769 l 0.8455241532347407 5.737267915507405 a26.799237383312914,26.799237383312914 0 0,0 -0.4569543183314959,0.06332970474351389 l -0.7466412437164144 -5.750972185743522" fill="#ff4006" stroke="none" /><path d="M 102.34483914955558 120.86867818915974 l 0.976431026604397 8.690073633400399 a29.744758275883704,29.744758275883704 0 0,0 -0.5092974046596912,0.05279075838442821 l -0.8267010253391032 -8.705593760240586" fill="#ff6909" stroke="none" /><path d="M 101.62511606390274 120.93702456842531 l 0.9051594286938307 11.661533362357341 a32.69660950672145,32.69660950672145 0 0,0 -0.561505475447305,0.03872470510174911 l -0.7042911924675954 -11.675386411975374" fill="#ff910d" stroke="none" /><path d="M 101.26447882468166 120.96189622390904 l 0.35051034606124293 5.81058484818197 a26.82114711896357,26.82114711896357 0 0,0 -0.4610835299420607,0.023832751814251055 l -0.2504387477057026 -5.815757406758424" fill="#ff4006" stroke="none" /><path d="M 100.90346689309514 120.98055641714683 l 0.2547979354897266 5.916987663157006 a26.92247118978911,26.92247118978911 0 0,0 -0.4631686154045864,0.015952463613439456 l -0.1529089684104879 -5.92049692519654" fill="#ff4106" stroke="none" /><line stroke="#e1ed5e" stroke-width="0.3" x1="102.19456741930631" x2="102.32365962044197" y1="184.97166512339345" y2="189.96999836594603" /><path d="M 102.22038585953345 185.97133177190398 a86.0,86.0 0 0,1 -42.740103519485714,-10.115201625700543" fill="none" id="id43" stroke="none" /><text fill="#e1ed5e" style="font-size:6.75px; font-family:Arial;" text-anchor="middle"><textPath startOffset="22.20632615414155" xlink:href="#id43">July</textPath></text><path d="M 100.18074693466247 120.99922214144158 l 0.05540537780152908 6.437010057501315 a27.43724849887453,27.43724849887453 0 0,0 -0.4723046249279646,0.0 l 0.05540537780152465 -6.437010057501315" fill="#ff4906" stroke="none" /><path d="M 99.81925306533755 120.99922214144158 l -0.08364318624881148 9.717685403279374 a30.718045368267987,30.718045368267987 0 0,0 -0.5287018973237084,-0.009102082630659616 l 0.2509047734651878 -9.714805843369556" fill="#ff760a" stroke="none" /><path d="M 98.73552117531835 120.96189622390904 l -0.47611792719814766 7.892844376245643 a28.90719170301517,28.90719170301517 0 0,0 -0.49642903854331477,-0.034236653001861586 l 0.6119097265203924 -7.883479378727496" fill="#ff5d08" stroke="none" /><path d="M 96.58105272829116 120.7198165907248 l -0.9446332773926486 5.724752883740211 a26.802165768801288,26.802165768801288 0 0,0 -0.4545532812064378,-0.07902991443427643 l 1.0430355300711363 -5.707644390784929" fill="#ff4006" stroke="none" /><path d="M 96.22490169976321 120.6578951692458 l -1.4090179078183593 7.710353987199734 a28.83804121400747,28.83804121400747 0 0,0 -0.4875446934899449,-0.09343910087349579 l 1.5415302158799993 -7.68495768797777" fill="#ff5c08" stroke="none" /><path d="M 95.16358092515715 120.4354850818985 l -1.3372955538626417 5.6505201303171155 a26.80661150254602,26.80661150254602 0 0,0 -0.4481129959587452,-0.11013527187163435 l 1.4343618345645974 -5.626663600131451" fill="#ff4006" stroke="none" /><path d="M 94.11515582081647 120.15858648285463 l -2.196800830992985 7.525160936941416 a28.83925895846798,28.83925895846798 0 0,0 -0.4753328211487666,-0.14321387979753478 l 2.3260086265819977 -7.486231688038155" fill="#ff5c08" stroke="none" /><path d="M 93.08242187328487 119.8279376855182 l -3.20061442276034 9.17395975403289 a30.716247745492943,30.716247745492943 0 0,0 -0.49772087041154794,-0.17846499606921173 l 3.3580548538016144 -9.11750721692372" fill="#ff760a" stroke="none" /><path d="M 92.7421414339146 119.70592522655815 l -2.7627411446349175 7.501161660949176 a28.99375787073592,28.99375787073592 0 0,0 -0.46684061657913073,-0.1765191752265792 l 2.891451981974331 -7.452494235615964" fill="#ff5e08" stroke="none" /><path d="M 92.06813273071674 119.44442032107085 l -1.8383250624208785 4.506525889420283 a25.867053998790233,25.867053998790233 0 0,0 -0.4108286079674685,-0.1717263914495891 l 1.9156251298858091 -4.474214454950721" fill="#ff3204" stroke="none" /><path d="M 91.40352486487194 119.15986991738527 l -5.256401135637636 11.715495061559686 a33.840661098096234,33.840661098096234 0 0,0 -0.5294162007196703,-0.24302901152550538 l 5.457285332124726 -11.623278979700105" fill="#ffa00e" stroke="none" /><path d="M 90.7491055286396 118.85261126421891 l -4.451807649750733 9.072441514024158 a31.105829326471337,31.105829326471337 0 0,0 -0.4786536759588668,-0.24000688981309048 l 4.60731523339236 -8.994466783301766" fill="#ff7b0b" stroke="none" /><path d="M 90.10565033884886 118.52300852407294 l -0.6513267775989074 1.2193354658559639 a22.382391243285184,22.382391243285184 0 0,0 -0.3382695426880864,-0.1844515257438504 l 0.6722191321556344 -1.2079432883523475" fill="#ff0000" stroke="none" /><line stroke="#e1ed5e" stroke-width="0.3" x1="58.666819895761336" x2="56.23545636021788" y1="174.27360380694188" y2="178.64263932499728" /><path d="M 58.180547188652646 175.14741091055294 a86.0,86.0 0 0,1 -31.652253787137756,-30.449443065178592" fill="none" id="id44" stroke="none" /><text fill="#e1ed5e" style="font-size:6.75px; font-family:Arial;" text-anchor="middle"><textPath startOffset="22.20632615414155" xlink:href="#id44">August</textPath></text><path d="M 89.7882731507175 118.34994917583269 l -7.14456296271119 12.838413050433154 a35.69250249554775,35.69250249554775 0 0,0 -0.5342848652925392,-0.3033808904915443 l 7.364496594924937 -12.713528994146976" fill="#ffb811" stroke="none" /><path d="M 89.4739219176387 118.17145234162733 l -4.847416486978702 8.36822575169348 a30.670814279549518,30.670814279549518 0 0,0 -0.45455918216749025,-0.2685615770779438 l 4.9907435401745746 -8.283545602321787" fill="#ff750a" stroke="none" /><path d="M 89.1626897886671 117.98757091392108 l -4.991147532250393 8.284216141041336 a30.671597115274135,30.671597115274135 0 0,0 -0.4498804706095539,-0.2763533292858721 l 5.133007202792255 -8.197074344927085" fill="#ff750a" stroke="none" /><path d="M 88.8546689885994 117.79835938074946 l -5.214809504005512 8.327707230902078 a30.825728771276204,30.825728771276204 0 0,0 -0.4472933581796947,-0.28548378414305453 l 5.3573846642321294 -8.236709017935219" fill="#ff780b" stroke="none" /><path d="M 88.24862548938628 117.40417183066458 l -6.614554853974585 9.796373110052299 a32.8203748683193,32.8203748683193 0 0,0 -0.4654915570773722,-0.32016933753644594 l 6.782203295674848 -9.68106298315075" fill="#ff920d" stroke="none" /><path d="M 87.95078237400918 117.19931262002967 l -7.267345096223886 10.37356483278855 a33.665905103374044,33.665905103374044 0 0,0 -0.4717598026264607,-0.3365880931743506 l 7.444832226699234 -10.24693247776998" fill="#ff9e0e" stroke="none" /><path d="M 87.65650970185807 116.9893568818739 l -8.533874001444214 11.74586988716681 a35.51869363540596,35.51869363540596 0 0,0 -0.49153648578797404,-0.3636269412082119 l 8.734795457650753 -11.597232997218832" fill="#ffb610" stroke="none" /><path d="M 87.36589467227662 116.77436683061367 l -12.28035435565084 16.304689839777616 a41.412006610612785,41.412006610612785 0 0,0 -0.565710237715363,-0.43376248715808696 l 12.55919332185969 -16.090888010792163" fill="#feff18" stroke="none" /><path d="M 87.07902340077011 116.55440617244103 l -7.940038771725092 10.172808985653703 a33.9046603347432,33.9046603347432 0 0,0 -0.45697428903390724,-0.3630480126885333 l 8.113970553476356 -10.034627058960039" fill="#ffa10e" stroke="none" /><path d="M 86.51685102203217 116.09983520530335 l -7.604418507881313 9.080214496561942 a32.84387926933492,32.84387926933492 0 0,0 -0.4303088128632931,-0.3667185056724318 l 7.7595927973216625 -8.947971600666559" fill="#ff930d" stroke="none" /><path d="M 85.44109423537348 115.13401014063109 l -8.78078631813909 9.127644022829534 a33.66554751174675,33.66554751174675 0 0,0 -0.41416646680736835,-0.405349058257167 l 8.936602737322252 -8.975144861649797" fill="#ff9e0e" stroke="none" /><path d="M 85.18274418774928 114.88116024355367 l -6.854984155166444 6.884548594734556 a30.715339269466845,30.715339269466845 0 0,0 -0.37144992200385873,-0.376276809889492 l 6.972474702225837 -6.765531290864399" fill="#ff760a" stroke="none" /><path d="M 84.9287848128048 114.62390073753433 l -6.953879050338966 6.74748755889152 a30.689428373445928,30.689428373445928 0 0,0 -0.36461006290949977,-0.38229219326878827 l 7.068995664627423 -6.6267882490402314" fill="#ff760a" stroke="none" /><path d="M 84.43433777217949 114.09645910891817 l -7.235981304445644 6.552995502414714 a30.76223209583517,30.76223209583517 0 0,0 -0.35206810710942066,-0.3955522505858156 l 7.347708261203403 -6.4274690820880345" fill="#ff770a" stroke="none" /><path d="M 84.19399662182784 113.82643327865904 l -7.392306705462712 6.466481943159221 a30.82148599494156,30.82148599494156 0 0,0 -0.34587209718415796,-0.4023273880516975 l 7.502521312217649 -6.338277455945993" fill="#ff770b" stroke="none" /><path d="M 83.72743513129214 113.27417163493432 l -13.526937177736363 11.034455062307872 a38.45672443308074,38.45672443308074 0 0,0 -0.4140179312077018,-0.5165510273487124 l 13.714873020998924 -10.7999762013809" fill="#ffdb14" stroke="none" /><path d="M 83.06392112726016 112.41649034213515 l -7.960317610245456 5.836014786576823 a30.870447053965044,30.870447053965044 0 0,0 -0.31049820172363396,-0.4312548452539647 l 8.059595604344697 -5.698126335871719" fill="#ff780b" stroke="none" /><path d="M 82.85270091963577 112.12312394758628 l -4.783412743624429 3.3818682062779386 a26.858162684707736,26.858162684707736 0 0,0 -0.2636436805294038,-0.3797983852774613 l 4.840917331315967 -3.2990285588134647" fill="#ff4106" stroke="none" /><path d="M 82.6465618267979 111.8261652097733 l -7.992532259647465 5.446817282179671 a30.672041688648605,30.672041688648605 0 0,0 -0.29357072048242794,-0.4388483949228126 l 8.085106085540623 -5.308431973051038" fill="#ff750a" stroke="none" /><path d="M 82.24976979558568 111.22182372390057 l -16.43467653836261 10.390121195552958 a40.443590496070556,40.443590496070556 0 0,0 -0.3669492422995446,-0.591639017769229 l 16.61109042033011 -10.105685846418465" fill="#fff417" stroke="none" /><path d="M 82.05923443525364 110.91462005526583 l -7.524220526650652 4.577508577549101 a29.80724016427431,29.80724016427431 0 0,0 -0.26289861528949426,-0.44063320112529175 l 7.6019000176383775 -4.447313282537698" fill="#ff6a09" stroke="none" /><line stroke="#e1ed5e" stroke-width="0.3" x1="26.63291911575756" x2="22.317208475507996" y1="142.92168965132927" y2="145.44649492493687" /><path d="M 25.769776987707644 143.4266507060508 a86.0,86.0 0 0,1 -11.730757126820373,-40.83630448921669" fill="none" id="id45" stroke="none" /><text fill="#e1ed5e" style="font-size:6.75px; font-family:Arial;" text-anchor="middle"><textPath startOffset="21.46611528233685" xlink:href="#id45">September</textPath></text><path d="M 81.35079622478065 109.6543875284942 l -8.63081647466227 4.468032412430518 a30.71876055152257,30.71876055152257 0 0,0 -0.2390524148498559,-0.47167309340724567 l 8.706447559298391 -4.318805107320588" fill="#ff760a" stroke="none" /><path d="M 81.18737489456691 109.33194174019688 l -8.689694400957858 4.3104947573974925 a30.70005947587898,30.70005947587898 0 0,0 -0.230757352857235,-0.47542849495611694 l 8.76260501042981 -4.1602773064760905" fill="#ff760a" stroke="none" /><path d="M 80.87730276802145 108.67885076344099 l -24.33636350662829 11.045077189512421 a47.725499412528045,47.725499412528045 0 0,0 -0.3330760678360976,-0.7509986034565124 l 24.52288065919567 -10.624530249563213" fill="#b4ff20" stroke="none" /><path d="M 80.58989483394504 108.01547362559985 l -8.98866835494473 3.711903336532364 a30.724936255572317,30.724936255572317 0 0,0 -0.19765993167791546,-0.490575740451567 l 9.051230900880034 -3.5566282282379915" fill="#ff760a" stroke="none" /><path d="M 80.32549172779594 107.34259656027581 l -4.75369339927752 1.7740953074519068 a26.073954581414533,26.073954581414533 0 0,0 -0.15330956240268448,-0.4218420718951444 l 4.783527222685428 -1.6920054385506451" fill="#ff3505" stroke="none" /><path d="M 80.0844068197444 106.66101706037122 l -9.212407982166155 3.0812040686362945 a30.714024878620577,30.714024878620577 0 0,0 -0.16338069435341054,-0.5028340733037556 l 9.264080927535815 -2.9221710953547353" fill="#ff760a" stroke="none" /><path d="M 79.97269907076064 106.31721596034903 l -18.618912261308278 5.872967611414531 a40.523207788655526,40.523207788655526 0 0,0 -0.20410811791480052,-0.6670371389622377 l 18.717247151729207 -5.551603499900246" fill="#fff517" stroke="none" /><path d="M 79.76711848015287 105.62410040840567 l -9.36261285698883 2.6025099163993395 a30.717591130254938,30.717591130254938 0 0,0 -0.13722268162266898,-0.5106566464085068 l 9.406023614953273 -2.4409623368152937" fill="#ff760a" stroke="none" /><path d="M 79.35854240842038 103.8639653848113 l -40.48396464556274 7.578371698624204 a62.18717168033856,62.18717168033856 0 0,0 -0.18790463257053017,-1.0538689688555716 l 40.608415720472465 -6.880383979035418" fill="#32ff47" stroke="none" /><path d="M 79.1416061653843 102.43462659150553 l -5.055675258506702 0.5901068663278407 a26.08999788144986,26.08999788144986 0 0,0 -0.04822636531430075,-0.4465162476481582 l 5.065083925322055 -0.5029942967949004" fill="#ff3605" stroke="none" /><path d="M 79.07016306316243 101.71520430193888 l -9.877125297625533 0.8094323836541285 a30.910236370980375,30.910236370980375 0 0,0 -0.03889308654381561,-0.5306652651892051 l 9.889594942833684 -0.6392939819681628" fill="#ff790b" stroke="none" /><path d="M 79.04373962182676 101.35467743843564 l -9.692480474267256 0.6265518935164328 a30.71271048777431,30.71271048777431 0 0,0 -0.029562664432985577,-0.527861232525666 l 9.701829489587775 -0.45961894465532915" fill="#ff760a" stroke="none" /><path d="M 79.0235259727143 100.99374915477108 l -7.595744333874334 0.35984429517688366 a28.604263271504703,28.604263271504703 0 0,0 -0.019066603674466543,-0.49202432028901655 l 7.600813070400001 -0.2290427278738703" fill="#ff5908" stroke="none" /><path d="M 79.0095281055655 100.63252640178507 l -7.248609886500252 0.21842944515541823 a28.251900213680557,28.251900213680557 0 0,0 -0.010463881375782469,-0.48621545050024706 l 7.251295830561042 -0.09362417886504232" fill="#ff5407" stroke="none" /><line stroke="#e1ed5e" stroke-width="0.3" x1="15.007084014347285" x2="10.007500721073583" y1="101.09737516637583" y2="101.16192664675087" /><path d="M 14.007167355692545 101.11028546245083 a86.0,86.0 0 0,1 10.666146001902534,-42.60595125391555" fill="none" id="id46" stroke="none" /><text fill="#e1ed5e" style="font-size:6.75px; font-family:Arial;" text-anchor="middle"><textPath startOffset="22.20632615414155" xlink:href="#id46">October</textPath></text><path d="M 79.00175016825051 100.2711162175752 l -9.768859649775413 0.12612938218620492 a30.769673867538305,30.769673867538305 0 0,0 -0.0022794507160398877,-0.5296640696132932 l 9.769583397780956 0.04204416563076358" fill="#ff770a" stroke="none" /><path d="M 79.01574976396665 99.18683210126434 l -12.973168215637697 -0.5027277038347223 a33.98290524865044,33.98290524865044 0 0,0 0.027682137645109718,-0.5843261738081106 l 12.96259246975909 0.7259649842658421" fill="#ffa20e" stroke="none" /><path d="M 79.12142395522702 97.74499172005258 l -8.035236341184298 -0.86785250305618 a29.081967027014507,29.081967027014507 0 0,0 0.05803880819349737,-0.49724106489902203 l 8.019107179987213 1.0060373062800638" fill="#ff6008" stroke="none" /><path d="M 79.21141760316559 97.0276538004421 l -9.625882331270667 -1.3763061962849739 a30.72377649894326,30.72377649894326 0 0,0 0.07936113363598764,-0.5228907138756811 l 9.600765304195377 1.541796022552747" fill="#ff760a" stroke="none" /><path d="M 79.26566170972629 96.67025291283419 l -5.41880969523766 -0.8702117977445839 a26.488238978591905,26.488238978591905 0 0,0 0.07617025921545877,-0.4495611816407996 l 5.403027574501977 0.9633587677012115" fill="#ff3b05" stroke="none" /><path d="M 79.32604984820605 96.31383870115002 l -14.565790441716922 -2.5970776082555718 a35.79550821348542,35.79550821348542 0 0,0 0.11337677695707549,-0.6056632760295195 l 14.518927940849984 2.847418961747664" fill="#ffb911" stroke="none" /><path d="M 79.46518482838121 95.60439243477599 l -4.953751917348526 -1.060382049809488 a26.065971589951168,26.065971589951168 0 0,0 0.0976922986845038,-0.4379354194678729 l 4.934765231661984 1.1454956388273203" fill="#ff3505" stroke="none" /><path d="M 79.54389044137918 95.25157060432595 l -9.471699755394628 -2.1986437556285185 a30.72353488297887,30.72353488297887 0 0,0 0.124016572291395,-0.514128756833641 l 9.432450382842418 2.3613577441215567" fill="#ff760a" stroke="none" /><path d="M 79.71946130924805 94.55025226153421 l -9.358279970171473 -2.514739173404111 a30.690269197002,30.690269197002 0 0,0 0.14148686062616694,-0.5090035169688382 l 9.313606338978945 2.675453993791892" fill="#ff760a" stroke="none" /><path d="M 79.81627453868168 94.20196356495316 l -7.706967166461983 -2.2139260921129114 a29.018653979706407,29.018653979706407 0 0,0 0.14204507156522453,-0.4789053669303252 l 7.667716197785052 2.3462608457897756" fill="#ff5f08" stroke="none" /><path d="M 79.91906864156998 93.8553929516997 l -13.909859516435326 -4.2563076034655545 a35.546489135949095,35.546489135949095 0 0,0 0.18407075070607531,-0.5835545816068436 l 13.834533281961045 4.495112351498812" fill="#ffb610" stroke="none" /><path d="M 80.38941819471856 92.48833698450439 l -7.718260193574409 -2.956412523387288 a29.26510226338165,29.26510226338165 0 0,0 0.18423977536147498,-0.46887013230200014 l 7.666226868331243 3.088831660585052" fill="#ff6209" stroke="none" /><path d="M 80.65960295795068 91.81776055985345 l -58.02119112614798 -24.546718320439627 a84.0,84.0 0 0,0 0.574837160629277,-1.3268034216536029 l 57.59006325567602 25.54182088667983" fill="#4dd2ff" stroke="none" /><path d="M 81.6062741919709 89.86733742301443 l -7.019620851820235 -3.8669408390777678 a29.014256569154554,29.014256569154554 0 0,0 0.2447454211812679,-0.4353747948535049 l 6.952017789346537 3.9871991438660572" fill="#ff5f08" stroke="none" /><line stroke="#e1ed5e" stroke-width="0.3" x1="26.266209847984243" x2="21.928928074336255" y1="57.711370442889674" y2="55.22380399835377" /><path d="M 25.398753493254645 57.213857153982495 a86.0,86.0 0 0,1 29.58750427330803,-30.492523968695096" fill="none" id="id47" stroke="none" /><text fill="#e1ed5e" style="font-size:6.75px; font-family:Arial;" text-anchor="middle"><textPath startOffset="21.46611528233685" xlink:href="#id47">November</textPath></text><path d="M 81.96595687620814 89.24020034530311 l -4.195892959039006 -2.5034301682605915 a25.885967696482485,25.885967696482485 0 0,0 0.2315983036305899,-0.38068671649497254 l 4.1521788571222 2.5752846579626385" fill="#ff3304" stroke="none" /><path d="M 82.34701348167596 88.62581576622439 l -1.7385944370592 -1.1202123456221926 a23.06823265515695,23.06823265515695 0 0,0 0.21794357024425887,-0.33194300973090146 l 1.7190542314570207 1.1499734193307611" fill="#ff0a01" stroke="none" /><path d="M 82.54541684631803 88.32363383020206 l -2.1046364889800913 -1.4079113825451377 a23.53213530678094,23.53213530678094 0 0,0 0.22812223900159193,-0.33474123692903063 l 2.080089784309759 1.4439306427445842" fill="#ff1101" stroke="none" /><path d="M 82.95767976084542 87.72973835380427 l -8.102058341149169 -5.833382680501404 a30.983571648491264,30.983571648491264 0 0,0 0.3153498885307229,-0.430136893558577 l 8.000445840104813 5.971982017731482" fill="#ff7a0b" stroke="none" /><path d="M 83.39014120810768 87.1503855733568 l -4.6782527901143185 -3.619160481525572 a26.91475880820586,26.91475880820586 0 0,0 0.28663695139298645,-0.36399981983093666 l 4.615261758127361 3.6991526953095564" fill="#ff4106" stroke="none" /><path d="M 84.31358615837235 86.03803664274999 l -5.95693546648636 -5.302073217262235 a28.974776520573638,28.974776520573638 0 0,0 0.3348054183069571,-0.36970050515120084 l 5.864786407563358 5.403826509682991" fill="#ff5e08" stroke="none" /><path d="M 84.80347519578584 85.50635884689758 l -4.446253729060877 -4.240601509549159 a27.144255315819677,27.144255315819677 0 0,0 0.32538948086468616,-0.3353424625739291 l 4.372599984493073 4.316508167673212" fill="#ff4506" stroke="none" /><path d="M 85.05521093208273 85.24692304244772 l -6.907362107235686 -6.818754301490466 a30.70603222251864,30.70603222251864 0 0,0 0.37456124639610405,-0.3729527613689071 l 6.788965060672268 6.936642913509482" fill="#ff760a" stroke="none" /><path d="M 85.83668400450813 84.49514656593479 l -1.3135519906603665 -1.437970535974495 a22.94760830109614,22.94760830109614 0 0,0 0.293935928283159,-0.2638985786232878 l 1.288605074781236 1.4603681233670616" fill="#ff0801" stroke="none" /><path d="M 86.65592168130627 83.78471172551755 l -13.1496799350115 -15.979061705946439 a41.69406908743875,41.69406908743875 0 0,0 0.5580981485950453,-0.45127655637251274 l 12.872678387851956 16.203044359583085" fill="#fbff18" stroke="none" /><path d="M 87.22198572758235 83.33499621200491 l -3.7498870401348987 -4.890578488654173 a27.16274376941461,27.16274376941461 0 0,0 0.3734927018044666,-0.28130695968337593 l 3.6651481845720424 4.954402037843403" fill="#ff4506" stroke="none" /><path d="M 88.39885842347998 82.49532879139004 l -5.342424567881897 -8.061050276883613 a30.67067897460946,30.67067897460946 0 0,0 0.44258224147101116,-0.28786780107871685 l 5.202875300626599 8.151817002121865" fill="#ff750a" stroke="none" /><path d="M 88.70189139769569 82.29822771554957 l -10.4110750178007 -16.311976250949716 a40.351254539120234,40.351254539120234 0 0,0 0.5887072175494793,-0.3686484056213816 l 10.128748647878979 16.488768997894027" fill="#fff316" stroke="none" /><line stroke="#e1ed5e" stroke-width="0.3" x1="56.762969772571076" x2="54.21961505331055" y1="26.818313649435495" y2="22.513508569990535" /><path d="M 56.25429882871897 25.957352633546506 a86.0,86.0 0 0,1 42.265352541879196,-11.944610805530505" fill="none" id="id48" stroke="none" /><text fill="#e1ed5e" style="font-size:6.75px; font-family:Arial;" text-anchor="middle"><textPath startOffset="22.20632615414155" xlink:href="#id48">December</textPath></text><path d="M 89.94658935756843 81.56283822128135 l -2.8009982383924488 -5.136809735512505 a26.85084655330608,26.85084655330608 0 0,0 0.4076916870680964,-0.21777477997453348 l 2.7121615047960472 5.184263241988787" fill="#ff4006" stroke="none" /><path d="M 90.58718382345135 81.22770947309562 l -2.687583025532519 -5.359935690252926 a26.995999760071513,26.995999760071513 0 0,0 0.41718940942489774,-0.20471303137108407 l 2.594922349097195 5.40540388175884" fill="#ff4206" stroke="none" /><path d="M 91.23893434514133 80.91482961587045 l -17.21879666395049 -37.50955432675361 a62.27291635378039,62.27291635378039 0 0,0 0.9780343499380766,-0.438815503800203 l 16.570580195545638 37.80039016107034" fill="#32ff48" stroke="none" /><path d="M 93.25333710446033 80.11325718540243 l -1.8906320399324157 -5.5729052595811375 a26.884875745730415,26.884875745730415 0 0,0 0.43952569835179367,-0.14490471235297514 l 1.7944235193382125 5.604623696193347" fill="#ff4106" stroke="none" /><path d="M 93.59665428221793 80.00007090966166 l -12.574485257705716 -39.27459559199424 a62.23847158189731,62.23847158189731 0 0,0 1.023125274771361,-0.3178900031900996 l 11.896574610223626 39.485225730066865" fill="#32ff47" stroke="none" /><path d="M 94.28887869178378 79.79150937346287 l -3.20908309580599 -11.355165152608025 a32.799914828454966,32.799914828454966 0 0,0 0.5446380730459224,-0.14887015918585297 l 3.013147133536345 11.408721852620175" fill="#ff920d" stroke="none" /><path d="M 94.63758080256005 79.69619591428918 l -2.479249633970149 -9.387218155516809 a30.70909591294707,30.70909591294707 0 0,0 0.5122439683250082,-0.1305823931137706 l 2.3172967769601414 9.428503544799442" fill="#ff760a" stroke="none" /><path d="M 94.98787191387505 79.60689891045804 l -2.3196841969921485 -9.438217362407316 a30.719098813872716,30.719098813872716 0 0,0 0.5145833962179875,-0.12178526436206787 l 2.156877113811627 9.476748538910256" fill="#ff760a" stroke="none" /><path d="M 95.692805502759 79.44645832069477 l -2.9935033108584275 -14.28472642836964 a35.59501528623668,35.59501528623668 0 0,0 0.6007651939510967,-0.12050784620107814 l 2.7471717074401942 14.334138230647929" fill="#ffb711" stroke="none" /><path d="M 96.04723909329186 79.375362276772 l -1.1287855830849935 -5.889755102268234 a26.996946894651913,26.996946894651913 0 0,0 0.4571545729078245,-0.0835420761404139 l 1.0272358890742757 5.908312659759384" fill="#ff4206" stroke="none" /><path d="M 96.75951476605007 79.25152402106235 l -0.7790590788055544 -4.988230902403226 a26.048700880816753,26.048700880816753 0 0,0 0.4436106406912214,-0.06537667699333664 l 0.6930794576856841 5.000902063557532" fill="#ff3505" stroke="none" /></svg>