<?xml version="1.0" encoding="utf-8" ?>
<svg baseProfile="full" height="200mm" version="1.1" viewBox="0,0,200,200" width="200mm" xmlns="http://www.w3.org/2000/svg" xmlns:ev="http://www.w3.org/2001/xml-events" xmlns:xlink="http://www.w3.org/1999/xlink"><defs /><rect fill="#1a1a1a" height="200" width="200" x="0" y="0" /><rect fill="#1a1a1a" height="200" width="180" x="10" y="0" /><text alignment-baseline="middle" fill="#e1ed5e" style="dominant-baseline: central; font-size:9.0px; font-family:Arial;" text-anchor="middle" x="100.0" y="100.0">2016</text><line stroke="#e1ed5e" stroke-width="0.3" x1="100.0" x2="100.0" y1="15.0" y2="10.0" /><path d="M 100.0 14.0 a86.0,86.0 0 0,1 42.35913384403234,11.155469271406648" fill="none" id="id13" stroke="none" /><text fill="#e1ed5e" style="font-size:6.75px; font-family:Arial;" text-anchor="middle"><textPath startOffset="22.145653131862478" xlink:href="#id13">January</textPath></text><path d="M 102.15924093988457 79.11130261209362 l 2.3778629499068424 -23.00366701697206 a44.12623896002694,44.12623896002694 0 0,0 0.752802248417231,0.0843530621303788 l -2.77240109992487 22.959458194334708" fill="#fcff18" stroke="none" /><path d="M 103.23170211078529 79.25015418208739 l 3.579971445098596 -22.98598477576724 a44.263097206939676,44.263097206939676 0 0,0 0.7497799743360591,0.1233760094522564 l -3.974028922487726 22.921142767819312" fill="#faff18" stroke="none" /><line stroke="#e1ed5e" stroke-width="0.3" x1="143.13028292997686" x2="145.6673583964461" y1="26.7553504044142" y2="22.446841604673864" /><path d="M 143.63769802327073 25.89364864446614 a86.0,86.0 0 0,1 29.32050498858742,28.57503671076993" fill="none" id="id14" stroke="none" /><text fill="#e1ed5e" style="font-size:6.75px; font-family:Arial;" text-anchor="middle"><textPath startOffset="20.669276256404974" xlink:href="#id14">February</textPath></text><path d="M 114.65682725009322 84.96080404539774 l 15.836262764156919 -16.249400694629355 a43.689870895843455,43.689870895843455 0 0,0 0.5326171408483199,0.5280648849473417 l -16.1128718251352 15.975155799453352" fill="#fffd17" stroke="none" /><line stroke="#e1ed5e" stroke-width="0.3" x1="172.87174338648825" x2="177.1583165268699" y1="56.24261187166439" y2="53.66864786411523" /><path d="M 173.72905801456457 55.72781907015455 a86.0,86.0 0 0,1 12.242430191666344,42.057860355516425" fill="none" id="id15" stroke="none" /><text fill="#e1ed5e" style="font-size:6.75px; font-family:Arial;" text-anchor="middle"><textPath startOffset="22.145653131862474" xlink:href="#id15">March</textPath></text><path d="M 118.18653347947321 89.5 l 6.429894493774041 -3.7123013168413364 a28.42460263368267,28.42460263368267 0 0,0 0.24034576382226502,0.42466793518765317 l -6.492673622617683 3.601376611554565" fill="#ff2403" stroke="none" /><path d="M 118.53625476483649 90.13048839642627 l 17.951562306390503 -9.558195802384926 a41.33759317709323,41.33759317709323 0 0,0 0.3281258681246584,0.6292246171464626 l -18.11299624349011 9.248624942133965" fill="#ffde14" stroke="none" /><path d="M 118.8641267826498 90.77261029715802 l 20.6567923028542 -10.104272240388736 a43.995638407122925,43.995638407122925 0 0,0 0.32603018549732693,0.6812776939838447 l -20.82720174631144 9.748182044339787" fill="#fdff18" stroke="none" /><path d="M 119.16976305983485 91.42560881287824 l 14.159206270822907 -6.333232867106133 a36.51105930517655,36.51105930517655 0 0,0 0.2509980902541196,0.5743327505315827 l -14.265838243093997 6.089238046798701" fill="#ff9b0e" stroke="none" /><path d="M 119.58574465831526 92.42381321644754 l 13.780823846771403 -5.330718709745233 a35.77591512760449,35.77591512760449 0 0,0 0.21664755536619393,0.5746833798867939 l -13.870302085952037 5.093367049664281" fill="#ff910d" stroke="none" /><path d="M 120.16314734710363 94.1308016681162 l 9.595843667268976 -2.793210240217926 a30.99411022216207,30.99411022216207 0 0,0 0.14431670639664848,0.5121290787031838 l -9.642378865740207 2.6280732376117295" fill="#ff4b07" stroke="none" /><path d="M 120.82617615685814 97.30363454192243 l 14.816182760012977 -1.9182514885963726 a35.93984472314247,35.93984472314247 0 0,0 0.07396405281361208,0.612528460800162 l -14.846928899086253 1.6636293508727977" fill="#ff930d" stroke="none" /><line stroke="#e1ed5e" stroke-width="0.3" x1="184.99686870605535" x2="189.99668451229388" y1="99.2704041080226" y2="99.22748670261217" /><path d="M 185.99683186730306 99.26182062694052 a86.0,86.0 0 0,1 -10.086455211305974,41.156179273409016" fill="none" id="id16" stroke="none" /><text fill="#e1ed5e" style="font-size:6.75px; font-family:Arial;" text-anchor="middle"><textPath startOffset="21.40746469413373" xlink:href="#id16">April</textPath></text><path d="M 120.16314734710363 105.8691983318838 l 9.503115434264851 2.7662184030261727 a30.89753339020402,30.89753339020402 0 0,0 -0.15260980314488998,0.5079884010208323 l -9.454229311116332 -2.9289444076377285" fill="#ff4a06" stroke="none" /><path d="M 119.0197475246899 108.90220220490707 l 11.544542157432353 5.403428647784459 a33.74650912118415,33.74650912118415 0 0,0 -0.2500788947952988,0.5225687078645255 l -11.450084004677143 -5.600809857714088" fill="#ff740a" stroke="none" /><path d="M 118.70294669586154 109.54985784667822 l 13.653682218916478 6.971667427316274 a36.330596363229276,36.330596363229276 0 0,0 -0.28838177443230356,0.5530100770361963 l -13.531992375509224 -7.2050237474569725" fill="#ff990e" stroke="none" /><line stroke="#e1ed5e" stroke-width="0.3" x1="174.33088141563837" x2="178.70328620479359" y1="141.23008692659167" y2="143.65538615756765" /><path d="M 175.20536237346943 141.71514677278685 a86.0,86.0 0 0,1 -30.301960400862466,31.631185727798858" fill="none" id="id17" stroke="none" /><text fill="#e1ed5e" style="font-size:6.75px; font-family:Arial;" text-anchor="middle"><textPath startOffset="22.145653131862474" xlink:href="#id17">May</textPath></text><path d="M 117.423217284605 111.72311816256416 l 12.950904899488089 8.713946796897329 a36.6095741932553,36.6095741932553 0 0,0 -0.35530509292411516,0.5184007489976306 l -12.799410069748653 -8.934982280965004" fill="#ff9d0e" stroke="none" /><path d="M 115.89218393027572 113.72728997021213 l 11.258410351638505 9.72474671691635 a35.876911720987536,35.876911720987536 0 0,0 -0.406586097568075,0.46262034305197774 l -11.089813190111844 -9.91657933777962" fill="#ff920d" stroke="none" /><path d="M 113.59037401385872 116.0094264158162 l 8.396391106834546 9.890927611425962 a33.974198727990824,33.974198727990824 0 0,0 -0.4478538182948647,0.3736155836945866 l -8.225362954377786 -10.033605379032418" fill="#ff770b" stroke="none" /><path d="M 112.7482090630111 116.68781488649013 l 9.358847751494114 12.251032129754623 a36.416738289272686,36.416738289272686 0 0,0 -0.5000313161586015,0.3752328216621247 l -9.147163446424745 -12.409883978680762" fill="#ff9a0e" stroke="none" /><line stroke="#e1ed5e" stroke-width="0.3" x1="143.1302829299769" x2="145.66735839644613" y1="173.24464959558577" y2="177.55315839532614" /><path d="M 143.63769802327073 174.10635135553383 a86.0,86.0 0 0,1 -40.68552437913181,11.842963189579606" fill="none" id="id18" stroke="none" /><text fill="#e1ed5e" style="font-size:6.75px; font-family:Arial;" text-anchor="middle"><textPath startOffset="21.407464694133747" xlink:href="#id18">June</textPath></text><path d="M 110.02825361518725 118.45085714620011 l 7.356245028339491 13.534662300999486 a36.40459102083097,36.40459102083097 0 0,0 -0.5516356199783247,0.2937148966385988 l -7.122820592574612 -13.658947665360653" fill="#ff9a0e" stroke="none" /><path d="M 107.74402155503746 119.51999308798841 l 8.651233952581077 21.806760964799018 a44.46015073860724,44.46015073860724 0 0,0 -0.71184456628755,0.27535677040299217 l -8.275617123799996 -21.95205762334005" fill="#f7ff18" stroke="none" /><path d="M 107.06938296918513 119.77432235084164 l 7.629930571599264 21.342273759252375 a43.66513820258543,43.66513820258543 0 0,0 -0.70798702480175,0.2462746386106352 l -7.262437774752493 -21.4701068304316" fill="#fffc17" stroke="none" /><path d="M 106.38641147887787 120.00534299687104 l 6.9390714715925785 21.736542552595314 a43.817274049032605,43.817274049032605 0 0,0 -0.7185185124197841,0.22259887183629384 l -6.564912326301171 -21.85245801223825" fill="#fffe18" stroke="none" /><path d="M 105.69591212413111 120.21278271476187 l 6.265790381693611 22.23507960820896 a44.10105829373871,44.10105829373871 0 0,0 -0.7304365863345497,0.1990837397127055 l -5.883172394424366 -22.339363842065808" fill="#fcff18" stroke="none" /><line stroke="#e1ed5e" stroke-width="0.3" x1="101.45913802915013" x2="101.54496967792366" y1="184.9874750549273" y2="189.98673829345242" /><path d="M 101.47630435890484 185.9873277026323 a86.0,86.0 0 0,1 -42.54439059252881,-10.42667462771756" fill="none" id="id19" stroke="none" /><text fill="#e1ed5e" style="font-size:6.75px; font-family:Arial;" text-anchor="middle"><textPath startOffset="22.145653131862474" xlink:href="#id19">July</textPath></text><path d="M 100.36049292484886 120.99690560180557 l 0.26436546270402067 15.397962850730844 a36.40023211027541,36.40023211027541 0 0,0 -0.624858387552871,0.00536365773900228 l -1.885984495997507e-15 -15.400232110275411" fill="#ff9a0e" stroke="none" /><path d="M 99.63950707515114 120.99690560180557 l -0.3698268339466109 21.540559012766966 a42.5437335313451,42.5437335313451 0 0,0 -0.7301045302104203,-0.01880490283915285 l 0.7395446782277751 -21.531036392577764" fill="#ffee16" stroke="none" /><path d="M 98.91894614982273 120.97215588758144 l -0.7043058003914856 13.663344370787815 a34.68148478986123,34.68148478986123 0 0,0 -0.594301341812582,-0.03575169294302533 l 0.938751494336514 -13.6492407000201" fill="#ff810b" stroke="none" /><path d="M 98.55909050195518 120.95050786540614 l -1.3957027131419413 20.29321113444376 a41.34115051344402,41.34115051344402 0 0,0 -0.7075852993426404,-0.054771577251314145 l 1.7438570072598178 -20.26626179019739" fill="#ffde14" stroke="none" /><path d="M 97.84075906011543 120.88869738790638 l -2.0539715488112726 19.870311521965526 a40.97618780206279,40.97618780206279 0 0,0 -0.699061760892493,-0.07833132841130229 l 2.3947692113045647 -19.832124433047255" fill="#ffd914" stroke="none" /><path d="M 96.05791012581884 120.62667999033965 l -3.893465354767459 20.372255958000967 a41.74097117511811,41.74097117511811 0 0,0 -0.7026466670359631,-0.1405490121747957 l 4.24260850733438 -20.30241754916331" fill="#ffe315" stroke="none" /><path d="M 94.30408787586889 120.21278271476187 l -6.313634125484897 22.40486017652512 a44.27745122216194,44.27745122216194 0 0,0 -0.7298188770387212,-0.21243963861169465 l 6.697313014905225 -22.293176843610908" fill="#faff18" stroke="none" /><path d="M 93.61358852112213 120.00534299687104 l -7.089937448952041 22.20912807791205 a44.31335632231348,44.31335632231348 0 0,0 -0.7226817599479036,-0.23755984877856925 l 7.470141946547688 -22.08414730773146" fill="#f9ff18" stroke="none" /><path d="M 92.93061703081489 119.77432235084164 l -7.798888986793325 21.814880517225223 a44.16703868450042,44.16703868450042 0 0,0 -0.7117430966736732,-0.26136192376770984 l 8.172221235121118 -21.677787744448793" fill="#fbff18" stroke="none" /><path d="M 91.26138138417905 119.09545874513695 l -5.485106130909276 11.985946800086545 a34.181400151798876,34.181400151798876 0 0,0 -0.5314577583446238,-0.2487490657806514 l 5.69005260312539 -11.890021502735367" fill="#ff7a0b" stroke="none" /><line stroke="#e1ed5e" stroke-width="0.3" x1="58.13341422392154" x2="55.67067388415222" y1="173.97424548756322" y2="178.32567169271397" /><path d="M 57.64086615596768 174.84453072859336 a86.0,86.0 0 0,1 -31.369924170532247,-30.572349798747897" fill="none" id="id20" stroke="none" /><text fill="#e1ed5e" style="font-size:6.75px; font-family:Arial;" text-anchor="middle"><textPath startOffset="22.145653131862474" xlink:href="#id20">August</textPath></text><path d="M 88.1277618465304 117.32195027204791 l -20.782508752232225 30.32230136230557 a57.76077569833215,57.76077569833215 0 0,0 -0.813065182573241,-0.5675826432603789 l 21.29996902597923 -29.961073903240063" fill="#59ff2a" stroke="none" /><path d="M 83.8745106332314 113.45245675266167 l -17.19308988644093 14.343087076700593 a43.39032127355597,43.39032127355597 0 0,0 -0.4722379019680457,-0.5760534555922213 l 17.436774607647607 -14.045831339409876" fill="#fff917" stroke="none" /><path d="M 83.4222238831116 112.89097897827486 l -12.615988275234043 9.810268789944887 a36.98138085059641,36.98138085059641 0 0,0 -0.3853953368505124,-0.5044948672938299 l 12.78253558943885 -9.592253009410188" fill="#ffa20f" stroke="none" /><line stroke="#e1ed5e" stroke-width="0.3" x1="26.387840678322732" x2="22.057713659400548" y1="142.50000000000003" y2="145.00000000000006" /><path d="M 25.521815274538298 143.00000000000003 a86.0,86.0 0 0,1 -11.493303480769221,-40.785679425670985" fill="none" id="id21" stroke="none" /><text fill="#e1ed5e" style="font-size:6.75px; font-family:Arial;" text-anchor="middle"><textPath startOffset="21.40746469413373" xlink:href="#id21">September</textPath></text><path d="M 80.16572619554312 106.89939002012753 l -14.462482302811482 5.030802087841846 a36.312490457341326,36.312490457341326 0 0,0 -0.19974390603986752,-0.5905073660407165 l 14.546711630423717 -4.7817930473269685" fill="#ff980e" stroke="none" /><path d="M 79.34024301695615 103.76489593502545 l -9.61690957684541 1.7525212810145188 a30.77528928726049,30.77528928726049 0 0,0 -0.09025246702310587,-0.5205522461294845 l 9.64557686136075 -1.5871760019644416" fill="#ff4806" stroke="none" /><path d="M 79.13060592940153 102.33845913500099 l -10.271756636532778 1.1509717559575612 a31.336039879139747,31.336039879139747 0 0,0 -0.055312001305657735,-0.5350934376295824 l 10.290001030320102 -0.9744737960450474" fill="#ff5007" stroke="none" /><path d="M 79.00696218219943 100.54070618675478 l -15.519780265169427 0.3997344871801343 a36.524927282901636,36.524927282901636 0 0,0 -0.010763667183046959,-0.6269296515775236 l 15.52435536395114 -0.1332579196335584" fill="#ff9b0e" stroke="none" /><line stroke="#e1ed5e" stroke-width="0.3" x1="15.003131293944662" x2="10.003315487706104" y1="100.72959589197737" y2="100.7725132973878" /><path d="M 14.003168132696942 100.73817937305945 a86.0,86.0 0 0,1 10.791469493833604,-42.45332614584628" fill="none" id="id22" stroke="none" /><text fill="#e1ed5e" style="font-size:6.75px; font-family:Arial;" text-anchor="middle"><textPath startOffset="22.145653131862435" xlink:href="#id22">October</textPath></text><path d="M 79.06263194458094 98.37931529534042 l -15.486037625356168 -1.198717252749525 a36.53236248566155,36.53236248566155 0 0,0 0.053765856129746215,-0.6248407473567568 l 15.463178146528678 1.4643790474819622" fill="#ff9c0e" stroke="none" /><path d="M 79.13060592940154 97.66154086499901 l -15.184153926384703 -1.7014161185656913 a36.27918018967834,36.27918018967834 0 0,0 0.07466240380987946,-0.6183118088533279 l 15.152709436315154 1.9618216043424554" fill="#ff980e" stroke="none" /><path d="M 79.2786578344484 96.59031103205396 l -15.261952882544803 -2.5113485389685413 a36.46719358103457,36.46719358103457 0 0,0 0.10694470343971596,-0.616828629991282 l 15.216593361612853 2.772970201880416" fill="#ff9b0e" stroke="none" /><path d="M 79.34024301695615 96.23510406497455 l -15.16729626749613 -2.7639866291597426 a36.41708461908982,36.41708461908982 0 0,0 0.11735614954515042,-0.6140569644087829 l 15.11761382566882 3.02394615860184" fill="#ff9a0e" stroke="none" /><path d="M 79.48165901384962 95.52812308129327 l -15.105413969153574 -3.2921546689258694 a36.46000690632544,36.46000690632544 0 0,0 0.1385291685074957,-0.610385076790984 l 15.046673939088416 3.550974079655862" fill="#ff9b0e" stroke="none" /><path d="M 79.73907114497095 94.47779374421319 l -15.098958327945317 -4.115288234366807 a36.64973289998737,36.64973289998737 0 0,0 0.17065076895355077,-0.6055793765412695 l 15.026089066917184 4.37387553481109" fill="#ff9d0e" stroke="none" /><path d="M 79.94057633289273 93.78553927170692 l -19.71067197227025 -6.106416561747845 a41.63489551279648,41.63489551279648 0 0,0 0.21736445729188772,-0.6808910665770302 l 19.60294279920111 6.443876662016267" fill="#ffe115" stroke="none" /><path d="M 80.16572619554312 93.10060997987247 l -14.536266459609358 -5.056468047688599 a36.390611154273884,36.390611154273884 0 0,0 0.21030278007998388,-0.5882543048957386 l 14.44732350948543 5.305257308965258" fill="#ff9a0e" stroke="none" /><path d="M 80.28708602549916 92.7611449362534 l -4.757179439396092 -1.7469021839474452 a26.067782893819867,26.067782893819867 0 0,0 0.15785819643241983,-0.4187376207189479 l 4.726490559149236 1.828308084860538" fill="#ff0000" stroke="none" /><path d="M 80.5471966667186 92.08871423366112 l -23.342045070201713 -9.493006522365173 a46.1985761679702,46.1985761679702 0 0,0 0.305073739700497,-0.7320659170858133 l 23.175645485964736 9.89230494889225" fill="#e1ff1b" stroke="none" /><path d="M 80.83023694016515 91.42560881287825 l -27.486381755344137 -12.294308946503847 a51.11064951927473,51.11064951927473 0 0,0 0.3651138780590546,-0.7978397161229841 l 27.271283412430034 12.764337644841502" fill="#a5ff21" stroke="none" /><path d="M 81.1358732173502 90.77261029715801 l -33.96602477227623 -16.614484775327206 a58.811796349558186,58.811796349558186 0 0,0 0.4513947828473822,-0.9030919430722085 l 33.675810076217104 17.195108574563186" fill="#4eff2c" stroke="none" /><path d="M 81.63589988554816 89.8137432299009 l -17.862929323097767 -9.908265780364255 a41.42689341961531,41.42689341961531 0 0,0 0.3502873362923563,-0.6189241593442967 l 17.69020862178404 10.213446709807657" fill="#ffdf14" stroke="none" /><line stroke="#e1ed5e" stroke-width="0.3" x1="26.387840678322718" x2="22.05771365940052" y1="57.49999999999999" y2="54.99999999999999" /><path d="M 25.521815274538284 56.99999999999999 a86.0,86.0 0 0,1 29.574782752854787,-30.34633250058573" fill="none" id="id23" stroke="none" /><text fill="#e1ed5e" style="font-size:6.75px; font-family:Arial;" text-anchor="middle"><textPath startOffset="21.40746469413373" xlink:href="#id23">November</textPath></text><path d="M 82.576782715395 88.27688183743585 l -44.01547809118997 -29.615578008127436 a74.05134091002324,74.05134091002324 0 0,0 0.7186868228595614,-1.0485855527680112 l 43.500601531515095 30.366798295965484" fill="#40ffc5" stroke="none" /><path d="M 82.98947788004972 87.6856937992154 l -20.536391347236865 -14.86676361405873 a46.35279136353955,46.35279136353955 0 0,0 0.4721318313958913,-0.6405375048321856 l 20.278157496257155 15.217107428159778" fill="#dfff1b" stroke="none" /><path d="M 83.42222388311158 87.10902102172516 l -19.980707452351837 -15.537118967177383 a46.31068422814151,46.31068422814151 0 0,0 0.4933930800854112,-0.6233860388076405 l 19.711047941624866 15.877824949899706" fill="#e0ff1b" stroke="none" /><path d="M 83.8745106332314 86.54754324733833 l -19.43324142057831 -16.211901160228187 a46.30763938694181,46.30763938694181 0 0,0 0.5144678104821712,-0.6060417871370883 l 19.152079046589023 16.54310972981483" fill="#e0ff1b" stroke="none" /><path d="M 84.83555147118756 85.47280134310135 l -45.49334558643735 -43.58159597069595 a84.0,84.0 0 0,0 1.0064527953967901,-1.0327092317290787 l 44.73850598988975 44.35612789449276" fill="#4dd2ff" stroke="none" /><path d="M 86.96720088162412 83.53348406188908 l -32.91230756403174 -41.5836254468928 a74.03223448523447,74.03223448523447 0 0,0 1.0032779862347347,-0.7801550303687798 l 32.19361963316176 42.14248152888239" fill="#40ffc4" stroke="none" /><line stroke="#e1ed5e" stroke-width="0.3" x1="56.869717070023135" x2="54.33264160355391" y1="26.7553504044142" y2="22.446841604673864" /><path d="M 56.362301976729285 25.89364864446614 a86.0,86.0 0 0,1 42.16139366436587,-11.88097634709845" fill="none" id="id24" stroke="none" /><text fill="#e1ed5e" style="font-size:6.75px; font-family:Arial;" text-anchor="middle"><textPath startOffset="22.145653131862474" xlink:href="#id24">December</textPath></text><path d="M 89.65649057296885 81.72400993836675 l -12.40266880314509 -21.914327374386005 a46.180626237492035,46.180626237492035 0 0,0 0.6932719436171495,-0.3845462606486569 l 12.024652671371838 22.124006550467808" fill="#e1ff1b" stroke="none" /><path d="M 89.97174638481275 81.54914285379989 l -12.096185258856535 -22.25561845455641 a46.33042144559324,46.33042144559324 0 0,0 0.7020408701576141,-0.37379722074965815 l 11.712355572912358 22.45998614302864" fill="#e0ff1b" stroke="none" /><path d="M 90.93487009805054 81.0573650232925 l -10.963214050622906 -22.90890082973886 a46.39704312605279,46.39704312605279 0 0,0 0.7213884868402825,-0.337646236881306 l 10.568336849911102 23.093723298190714" fill="#dfff1b" stroke="none" /><path d="M 91.5904679813234 80.7573450057729 l -8.61943541373537 -19.72295503996836 a42.524163685499346,42.524163685499346 0 0,0 0.6714057683725178,-0.2865831982633881 l 8.279594570192423 19.86801288789115" fill="#ffed16" stroke="none" /><path d="M 92.592206182469 80.34994680014964 l -19.69553070290932 -52.24473515927941 a76.83391694599699,76.83391694599699 0 0,0 1.2381633816871993,-0.45467074410540104 l 18.795778169567992 52.57513675239353" fill="#43ffe3" stroke="none" /><path d="M 94.6519064749342 79.69241777938228 l -13.428115356246911 -50.98874120036414 a73.72727957346544,73.72727957346544 0 0,0 1.2266629156124538,-0.3118129163206706 l 12.55084714740908 51.21173934852007" fill="#3fffc1" stroke="none" /></svg>