<?xml version="1.0" encoding="utf-8" ?>
<svg baseProfile="full" height="200mm" version="1.1" viewBox="0,0,200,200" width="200mm" xmlns="http://www.w3.org/2000/svg" xmlns:ev="http://www.w3.org/2001/xml-events" xmlns:xlink="http://www.w3.org/1999/xlink"><defs /><rect fill="#1a1a1a" height="200" width="200" x="0" y="0" /><rect fill="#1a1a1a" height="200" width="180" x="10" y="0" /><text alignment-baseline="middle" fill="#e1ed5e" style="dominant-baseline: central; font-size:9.0px; font-family:Arial;" text-anchor="middle" x="100.0" y="100.0">2018</text><line stroke="#e1ed5e" stroke-width="0.3" x1="100.0" x2="100.0" y1="15.0" y2="10.0" /><path d="M 100.0 14.0 a86.0,86.0 0 0,1 42.46469731375804,11.215312516191453" fill="none" id="id37" stroke="none" /><text fill="#e1ed5e" style="font-size:6.75px; font-family:Arial;" text-anchor="middle"><textPath startOffset="22.20632615414155" xlink:href="#id37">January</textPath></text><line stroke="#e1ed5e" stroke-width="0.3" x1="143.23703022742887" x2="145.7803849466894" y1="26.81831364943548" y2="22.513508569990506" /><path d="M 143.74570117128098 25.957352633546492 a86.0,86.0 0 0,1 28.547481713284135,27.462654790039103" fill="none" id="id38" stroke="none" /><text fill="#e1ed5e" style="font-size:6.75px; font-family:Arial;" text-anchor="middle"><textPath startOffset="19.985693538727396" xlink:href="#id38">February</textPath></text><path d="M 117.65298651832404 88.62581576622439 l 52.95895955497212 -34.12255270132683 a84.0,84.0 0 0,0 0.7726896150161773,1.2222094091431752 l -53.538476766234254 33.20589564446945" fill="red" stroke="none" /><line stroke="#e1ed5e" stroke-width="0.3" x1="172.23445277983987" x2="176.4835382374775" y1="55.19839476539836" y2="52.563006222186495" /><path d="M 173.08426987136738 54.67131705675599 a86.0,86.0 0 0,1 12.851231095245387,41.99856678651699" fill="none" id="id39" stroke="none" /><text fill="#e1ed5e" style="font-size:6.75px; font-family:Arial;" text-anchor="middle"><textPath startOffset="22.20632615414155" xlink:href="#id39">March</textPath></text><path d="M 118.89224826269711 90.83032412892265 l 37.814200340362646 -18.353768996872468 a63.03301778092598,63.03301778092598 0 0,0 0.46536918687426004,0.9801861914964788 l -38.124527721078664 17.70014038973545" fill="red" stroke="none" /><path d="M 120.18372546131832 94.20196356495316 l 35.94821399688401 -10.326589852217538 a58.402039350036645,58.402039350036645 0 0,0 0.2692423826184471,0.9686081029952069 l -36.120643150068815 9.70627044580338" fill="red" stroke="none" /><line stroke="#e1ed5e" stroke-width="0.3" x1="184.98032266829074" x2="189.97916517819016" y1="98.17113171792111" y2="98.06355123074" /><path d="M 185.9800911702706 98.14961562048488 a86.0,86.0 0 0,1 -9.607161424134198,41.387399972396054" fill="none" id="id40" stroke="none" /><text fill="#e1ed5e" style="font-size:6.75px; font-family:Arial;" text-anchor="middle"><textPath startOffset="21.466115282336823" xlink:href="#id40">April</textPath></text><path d="M 118.64920377521936 109.65438752849418 l 16.765828228098698 8.679394836433326 a39.87921849285125,39.87921849285125 0 0,0 -0.3208330446818419,0.6068952114483153 l -16.613942675191964 -8.966705062967776" fill="red" stroke="none" /><line stroke="#e1ed5e" stroke-width="0.3" x1="174.80103733775053" x2="179.2010983576182" y1="140.37084112569926" y2="142.7455964860345" /><path d="M 175.68104954172406 140.8457921977663 a86.0,86.0 0 0,1 -30.038265399797805,32.042727171017184" fill="none" id="id41" stroke="none" /><text fill="#e1ed5e" style="font-size:6.75px; font-family:Arial;" text-anchor="middle"><textPath startOffset="22.206326154141568" xlink:href="#id41">May</textPath></text><path d="M 115.80600337817218 113.82643327865902 l 25.711415343773144 22.491275007666065 a55.16042052508249,55.16042052508249 0 0,0 -0.6313009010895113,0.7092732547489691 l -25.320455593035295 -22.9305224321559" fill="red" stroke="none" /><path d="M 115.32070863581623 114.36230785411682 l 28.743164626017826 26.94510997326561 a60.398076909790156,60.398076909790156 0 0,0 -0.7175678332524801,0.7523670043668336 l -28.27509024138638 -27.43588409421495" fill="red" stroke="none" /><path d="M 114.81725581225074 114.88116024355365 l 30.039592695406732 30.16914860725 a63.57410782379671,63.57410782379671 0 0,0 -0.7821130373306796,0.7654622200017289 l -29.51582970570026 -30.681760930174303" fill="red" stroke="none" /><line stroke="#e1ed5e" stroke-width="0.3" x1="143.8653032363475" x2="146.44561519142675" y1="172.8068346515853" y2="177.08958963109032" /><path d="M 144.38136562736335 173.6633856474863 a86.0,86.0 0 0,1 -40.68145358897372,12.25698825130547" fill="none" id="id42" stroke="none" /><text fill="#e1ed5e" style="font-size:6.75px; font-family:Arial;" text-anchor="middle"><textPath startOffset="21.466115282336833" xlink:href="#id42">June</textPath></text><line stroke="#e1ed5e" stroke-width="0.3" x1="102.19456741930631" x2="102.32365962044197" y1="184.97166512339345" y2="189.96999836594603" /><path d="M 102.22038585953345 185.97133177190398 a86.0,86.0 0 0,1 -42.740103519485714,-10.115201625700543" fill="none" id="id43" stroke="none" /><text fill="#e1ed5e" style="font-size:6.75px; font-family:Arial;" text-anchor="middle"><textPath startOffset="22.20632615414155" xlink:href="#id43">July</textPath></text><path d="M 90.42595943632237 118.69057910512821 l -17.33775186440318 33.84700749609473 a59.029167176685704,59.029167176685704 0 0,0 -0.9003609172846099,-0.4710262782384131 l 17.917803684214288 -33.54355179891161" fill="red" stroke="none" /><path d="M 90.10565033884886 118.52300852407294 l -16.495200839849534 30.8803262696985 a56.00980150286494,56.00980150286494 0 0,0 -0.8464873004178507,-0.4615723687214616 l 17.024310952136023 -30.59181324921727" fill="red" stroke="none" /><line stroke="#e1ed5e" stroke-width="0.3" x1="58.666819895761336" x2="56.23545636021788" y1="174.27360380694188" y2="178.64263932499728" /><path d="M 58.180547188652646 175.14741091055294 a86.0,86.0 0 0,1 -31.652253787137756,-30.449443065178592" fill="none" id="id44" stroke="none" /><text fill="#e1ed5e" style="font-size:6.75px; font-family:Arial;" text-anchor="middle"><textPath startOffset="22.20632615414155" xlink:href="#id44">August</textPath></text><path d="M 89.7882731507175 118.34994917583269 l -17.35991767839215 31.194881316035005 a56.69996305491173,56.69996305491173 0 0,0 -0.8487477762777854,-0.4819411383268098 l 17.894314221591145 -30.891437011913563" fill="red" stroke="none" /><path d="M 89.4739219176387 118.17145234162733 l -17.652361348328174 30.473747244555163 a56.21725617218048,56.21725617218048 0 0,0 -0.8331722058766932,-0.4922528250794556 l 18.17430142523325 -30.165375847181956" fill="red" stroke="none" /><path d="M 89.1626897886671 117.98757091392108 l -18.29323956403703 30.362787212583818 a56.44772857411167,56.44772857411167 0 0,0 -0.8279559294000836,-0.5085981555982494 l 18.813174693369422 -30.04340059015719" fill="red" stroke="none" /><path d="M 88.54995079064634 117.60387380957326 l -19.7603253259092 30.380504669731103 a57.24148894531407,57.24148894531407 0 0,0 -0.8213480429057098,-0.5443446960980305 l 20.280348067554872 -30.035861952541755" fill="red" stroke="none" /><path d="M 88.24862548938628 117.40417183066458 l -19.871905731776216 29.430945430785997 a56.511592281429785,56.511592281429785 0 0,0 -0.801504223810575,-0.5512819136426166 l 20.375566840209682 -29.08452272777828" fill="red" stroke="none" /><path d="M 87.95078237400918 117.19931262002967 l -20.230280454680337 28.87713781352764 a56.25837965046733,56.25837965046733 0 0,0 -0.7883477957445155,-0.5624652203315249 l 20.724355578273737 -28.524628331351895" fill="red" stroke="none" /><path d="M 87.65650970185807 116.9893568818739 l -21.754187049706147 29.94206974976369 a58.01043359774803,58.01043359774803 0 0,0 -0.8027954226686408,-0.5938888615622957 l 22.266367442793353 -29.563170939461628" fill="red" stroke="none" /><path d="M 87.36589467227662 116.77436683061367 l -23.797232888316206 31.59570889014361 a60.554988476947614,60.554988476947614 0 0,0 -0.8272136447830581,-0.6342721486202675 l 24.33757526159275 -31.181397399695975" fill="red" stroke="none" /><path d="M 87.07902340077011 116.55440617244103 l -23.769105611273265 30.453071841962576 a59.63107513610767,59.63107513610767 0 0,0 -0.8037204294515963,-0.6385241175963097 l 24.28978353344222 -30.039413810361136" fill="red" stroke="none" /><path d="M 86.51685102203217 116.09983520530335 l -22.686137315804757 27.088855342781233 a56.333651242033795,56.333651242033795 0 0,0 -0.7380634422452987,-0.6289936774258791 l 23.149066234627114 -26.694337275132405" fill="red" stroke="none" /><path d="M 86.24171649860922 115.8653595955263 l -24.327204154483827 28.052906587195395 a58.13190582186492,58.13190582186492 0 0,0 -0.7503379815776448,-0.6620860284410878 l 24.806484488968056 -27.629997416982018" fill="red" stroke="none" /><path d="M 85.97065885151581 115.62618273729859 l -23.710628849728295 26.409409772044047 a56.49156019333756,56.49156019333756 0 0,0 -0.7179820412820046,-0.6558595715212164 l 24.161710440477155 -25.997357433936255" fill="red" stroke="none" /><path d="M 85.44109423537348 115.13401014063109 l -26.598724974686363 27.649425032533507 a59.36642900907895,59.36642900907895 0 0,0 -0.7303485600845037,-0.7147997840381041 l 27.07072348714666 -27.187475145572833" fill="red" stroke="none" /><path d="M 85.18274418774928 114.88116024355367 l -26.812628207460993 26.928266742628765 a59.00063922033022,59.00063922033022 0 0,0 -0.7135126408437644,-0.7227845381260559 l 27.27218147336029 -26.462741710522042" fill="red" stroke="none" /><path d="M 84.67929136418377 114.36230785411682 l -28.32045593383505 26.548844205535566 a59.81867273555463,59.81867273555463 0 0,0 -0.6977523216905742,-0.7572723374379164 l 28.773254663521353 -26.057420613296305" fill="red" stroke="none" /><path d="M 84.43433777217949 114.09645910891817 l -29.325128235151684 26.55720424742113 a60.563218315088235,60.563218315088235 0 0,0 -0.693134931373673,-0.7787444432712859 l 29.777922016173697 -26.04848563440898" fill="red" stroke="none" /><path d="M 84.19399662182784 113.82643327865904 l -28.719981618399874 25.123043448130684 a59.157629070185806,59.157629070185806 0 0,0 -0.6638542098296539,-0.7722124232116911 l 29.148178337800307 -24.624953925757463" fill="red" stroke="none" /><path d="M 83.95833913139862 113.55231037782056 l -27.04338320082448 22.846781627285807 a56.40225989497733,56.40225989497733 0 0,0 -0.6201670202283158,-0.7470311268158057 l 27.43264622094633 -22.37788924335624" fill="red" stroke="none" /><path d="M 83.72743513129214 113.27417163493432 l -27.60154629733302 22.51566768339932 a56.62022809069435,56.62022809069435 0 0,0 -0.6095628279368663,-0.7605233524207254 l 27.98502703732475 -22.037216497400337" fill="red" stroke="none" /><path d="M 83.50135304334701 112.99209946851258 l -29.092168849577366 22.90905141745934 a58.02943322844836,58.02943322844836 0 0,0 -0.6112245252777176,-0.7900900928166201 l 29.482200192073154 -22.40488333052947" fill="red" stroke="none" /><path d="M 82.85270091963577 112.12312394758628 l -32.44542183025271 22.938882009137988 a60.73534579655994,60.73534579655994 0 0,0 -0.5961870993189035,-0.8588519823038939 l 32.83546983673375 -22.376988764647084" fill="red" stroke="none" /><line stroke="#e1ed5e" stroke-width="0.3" x1="26.63291911575756" x2="22.317208475507996" y1="142.92168965132927" y2="145.44649492493687" /><path d="M 25.769776987707644 143.4266507060508 a86.0,86.0 0 0,1 -11.730757126820373,-40.83630448921669" fill="none" id="id45" stroke="none" /><text fill="#e1ed5e" style="font-size:6.75px; font-family:Arial;" text-anchor="middle"><textPath startOffset="21.46611528233685" xlink:href="#id45">September</textPath></text><line stroke="#e1ed5e" stroke-width="0.3" x1="15.007084014347285" x2="10.007500721073583" y1="101.09737516637583" y2="101.16192664675087" /><path d="M 14.007167355692545 101.11028546245083 a86.0,86.0 0 0,1 10.666146001902534,-42.60595125391555" fill="none" id="id46" stroke="none" /><text fill="#e1ed5e" style="font-size:6.75px; font-family:Arial;" text-anchor="middle"><textPath startOffset="22.20632615414155" xlink:href="#id46">October</textPath></text><line stroke="#e1ed5e" stroke-width="0.3" x1="26.266209847984243" x2="21.928928074336255" y1="57.711370442889674" y2="55.22380399835377" /><path d="M 25.398753493254645 57.213857153982495 a86.0,86.0 0 0,1 29.58750427330803,-30.492523968695096" fill="none" id="id47" stroke="none" /><text fill="#e1ed5e" style="font-size:6.75px; font-family:Arial;" text-anchor="middle"><textPath startOffset="21.46611528233685" xlink:href="#id47">November</textPath></text><line stroke="#e1ed5e" stroke-width="0.3" x1="56.762969772571076" x2="54.21961505331055" y1="26.818313649435495" y2="22.513508569990535" /><path d="M 56.25429882871897 25.957352633546506 a86.0,86.0 0 0,1 42.265352541879196,-11.944610805530505" fill="none" id="id48" stroke="none" /><text fill="#e1ed5e" style="font-size:6.75px; font-family:Arial;" text-anchor="middle"><textPath startOffset="22.20632615414155" xlink:href="#id48">December</textPath></text><path d="M 89.3179101791058 81.91981866633112 l -18.326548913428294 -31.018961002089622 a57.028299109525506,57.028299109525506 0 0,0 0.849458966828793,-0.4920614623696617 l 17.789893214134178 31.329826621849328" fill="red" stroke="none" /></svg>