<?xml version="1.0" encoding="utf-8" ?>
<svg baseProfile="full" height="200mm" version="1.1" viewBox="0,0,200,200" width="200mm" xmlns="http://www.w3.org/2000/svg" xmlns:ev="http://www.w3.org/2001/xml-events" xmlns:xlink="http://www.w3.org/1999/xlink"><defs /><rect fill="#1a1a1a" height="200" width="200" x="0" y="0" /><rect fill="#1a1a1a" height="200" width="180" x="10" y="0" /><text alignment-baseline="middle" fill="#e1ed5e" style="dominant-baseline: central; font-size:9.0px; font-family:Arial;" text-anchor="middle" x="100.0" y="100.0">2025</text><line stroke="#e1ed5e" stroke-width="0.3" x1="100.0" x2="100.0" y1="15.0" y2="10.0" /><path d="M 100.0 14.0 a86.0,86.0 0 0,1 42.46469731375804,11.215312516191453" fill="none" id="id121" stroke="none" /><text fill="#e1ed5e" style="font-size:6.75px; font-family:Arial;" text-anchor="middle"><textPath startOffset="22.20632615414155" xlink:href="#id121">January</textPath></text><path d="M 103.95276090670814 79.375362276772 l 6.736368354244219 -35.148889638308624 a56.78858898322288,56.78858898322288 0 0,0 0.9584658806961588,0.1922592388887894 l -7.340400644407504 35.02772644334262" fill="#74ff27" stroke="none" /><line stroke="#e1ed5e" stroke-width="0.3" x1="143.23703022742887" x2="145.7803849466894" y1="26.81831364943548" y2="22.513508569990506" /><path d="M 143.74570117128098 25.957352633546492 a86.0,86.0 0 0,1 28.547481713284135,27.462654790039103" fill="none" id="id122" stroke="none" /><text fill="#e1ed5e" style="font-size:6.75px; font-family:Arial;" text-anchor="middle"><textPath startOffset="19.985693538727396" xlink:href="#id122">February</textPath></text><line stroke="#e1ed5e" stroke-width="0.3" x1="172.23445277983987" x2="176.4835382374775" y1="55.19839476539836" y2="52.563006222186495" /><path d="M 173.08426987136738 54.67131705675599 a86.0,86.0 0 0,1 12.851231095245387,41.99856678651699" fill="none" id="id123" stroke="none" /><text fill="#e1ed5e" style="font-size:6.75px; font-family:Arial;" text-anchor="middle"><textPath startOffset="22.20632615414155" xlink:href="#id123">March</textPath></text><path d="M 120.6074358757038 95.95851677861258 l 15.230320311558293 -2.986935607456637 a36.5204523489413,36.5204523489413 0 0,0 0.11567292621306235,0.6179293971696518 l -15.279478961681214 2.7243281328244224" fill="#ff760a" stroke="none" /><path d="M 120.78858239683441 97.02765380044208 l 15.709286129668254 -2.246109717053026 a36.8690478468252,36.8690478468252 0 0,0 0.08441958720968691,0.6290239804313214 l -15.745621715935778 1.9753673945570402" fill="#ff7b0b" stroke="none" /><path d="M 120.87857604477298 97.74499172005257 l 17.668968223462798 -1.9083518701943092 a38.77172599783747,38.77172599783747 0 0,0 0.06595416642399118,0.6641494551545307 l -17.699199515569017 1.6039268843353434" fill="#ff980e" stroke="none" /><line stroke="#e1ed5e" stroke-width="0.3" x1="184.98032266829074" x2="189.97916517819016" y1="98.17113171792111" y2="98.06355123074" /><path d="M 185.9800911702706 98.14961562048488 a86.0,86.0 0 0,1 -9.607161424134198,41.387399972396054" fill="none" id="id124" stroke="none" /><text fill="#e1ed5e" style="font-size:6.75px; font-family:Arial;" text-anchor="middle"><textPath startOffset="21.466115282336823" xlink:href="#id124">April</textPath></text><path d="M 120.99513854157772 99.54816195383933 l 16.02944686014605 -0.3449710005952822 a37.03315850459596,37.03315850459596 0 0,0 0.008230166054736246,0.6374354309005359 l -16.0330100333185 0.06899931163428352" fill="#ff7e0b" stroke="none" /><path d="M 120.89721153311464 102.0752229133903 l 13.399280422323415 1.3306317788516522 a34.465188330170115,34.465188330170115 0 0,0 -0.0637075852052385,0.5898531167998334 l -13.374390535617124 -1.5610812175362772" fill="#ff5608" stroke="none" /><path d="M 120.81339534386255 102.79330883721812 l 17.133572197971745 2.2994498419414215 a38.287185017772984,38.287185017772984 0 0,0 -0.09328572168272943,0.6524401201778045 l -17.091452425272415 -2.594035434099635" fill="#ff910d" stroke="none" /><path d="M 120.76222939487914 103.15116336523771 l 18.903785858462435 2.8691002458617305 a40.12027342909636,40.12027342909636 0 0,0 -0.10950588988101038,0.6818932808205864 l -18.851598214220136 -3.194072756375522" fill="#ffac0f" stroke="none" /><path d="M 120.64145759157962 103.86396538481128 l 30.92726313553706 5.789410639848137 a52.46447013079255,52.46447013079255 0 0,0 -0.17380746206645264,0.8862405045501179 l -30.823025740494945 -6.320914871466201" fill="#a9ff21" stroke="none" /><path d="M 120.41448212921028 104.9243191809786 l 18.568274179558014 4.478982524334275 a40.100840045938625,40.100840045938625 0 0,0 -0.16763809729985443,0.6696308676613679 l -18.488424767963096 -4.797941231393039" fill="#ffac0f" stroke="none" /><path d="M 120.13307415673323 105.97154293290107 l 28.75082238124641 8.527598362240566 a50.988826609683606,50.988826609683606 0 0,0 -0.2568215598395914,0.8393077171517886 l -28.599774048900688 -9.021233051944412" fill="#bcff1f" stroke="none" /><path d="M 119.9155931802556 106.66101706037122 l 18.139847407442023 6.067096870270136 a40.12756462277733,40.12756462277733 0 0,0 -0.22473188245507858,0.6531760450768282 l -18.032724694043715 -6.378445618436264" fill="#ffac0f" stroke="none" /><path d="M 119.67450827220406 107.3425965602758 l 17.990441340223963 6.714096783257172 a40.202475757854344,40.202475757854344 0 0,0 -0.24754333761875888,0.6462575414673082 l -17.872203723011697 -7.022777891557623" fill="#ffad10" stroke="none" /><path d="M 119.12269723197855 108.67885076344098 l 17.42774185877918 7.90959397104195 a40.138648413171374,40.138648413171374 0 0,0 -0.2909581492488718,0.6266979686299667 l -17.289009092690478 -8.208412006950747" fill="#ffac0f" stroke="none" /><path d="M 118.81262510543309 109.33194174019688 l 16.871004597064278 8.368807176885117 a39.83262407839247,39.83262407839247 0 0,0 -0.30997621013306603,0.6116124700432143 l -16.724449717144946 -8.657973858631026" fill="#ffa80f" stroke="none" /><line stroke="#e1ed5e" stroke-width="0.3" x1="174.80103733775053" x2="179.2010983576182" y1="140.37084112569926" y2="142.7455964860345" /><path d="M 175.68104954172406 140.8457921977663 a86.0,86.0 0 0,1 -30.038265399797805,32.042727171017184" fill="none" id="id125" stroke="none" /><text fill="#e1ed5e" style="font-size:6.75px; font-family:Arial;" text-anchor="middle"><textPath startOffset="22.206326154141568" xlink:href="#id125">May</textPath></text><path d="M 116.0416608686014 113.55231037782055 l 14.615955216739785 12.347846222911253 a40.133621017528455,40.133621017528455 0 0,0 -0.450370876706105,0.5238830768798461 l -14.4012418304629 -12.597606398952626" fill="#ffac0f" stroke="none" /><path d="M 115.56566222782051 114.09645910891815 l 14.006465721714786 12.684431180430533 a39.89645142307543,39.89645142307543 0 0,0 -0.4653704325860246,0.5050676927954335 l -13.78604888113304 -12.923650128027301" fill="#ffa90f" stroke="none" /><path d="M 114.81725581225074 114.88116024355365 l 13.483483661880957 13.541635749306094 a40.10968943826915,40.10968943826915 0 0,0 -0.4934447703128066,0.4829395641082836 l -13.248388939192356 -13.77172541633695" fill="#ffac0f" stroke="none" /><path d="M 114.29624159901734 115.38237550388516 l 13.061546810304254 14.053876769365989 a40.186335171842856,40.186335171842856 0 0,0 -0.5107500458400224,0.46655805710815723 l -12.817697214997366 -14.276627593060729" fill="#ffad10" stroke="none" /><path d="M 113.75828350139079 115.86535959552629 l 14.845612545218467 17.119212685357006 a43.65964816163826,43.65964816163826 0 0,0 -0.5720131661793398,0.4874820297786538 l -14.54873390246208 -17.372219105358607" fill="#ffdf14" stroke="none" /><path d="M 112.92097659922987 116.55440617244103 l 11.806141922063336 15.126075587736073 a40.18809917031405,40.18809917031405 0 0,0 -0.5489910051627409,0.42094289258138784 l -11.544022188407101 -15.327057822144834" fill="#ffad10" stroke="none" /><path d="M 112.34349029814194 116.9893568818739 l 11.258159407021843 15.495527065607329 a40.153524800278504,40.153524800278504 0 0,0 -0.5626707161554304,0.40145061614280575 l -10.989761363017529 -15.687021943594354" fill="#ffad10" stroke="none" /><line stroke="#e1ed5e" stroke-width="0.3" x1="143.8653032363475" x2="146.44561519142675" y1="172.8068346515853" y2="177.08958963109032" /><path d="M 144.38136562736335 173.6633856474863 a86.0,86.0 0 0,1 -40.68145358897372,12.25698825130547" fill="none" id="id126" stroke="none" /><text fill="#e1ed5e" style="font-size:6.75px; font-family:Arial;" text-anchor="middle"><textPath startOffset="21.466115282336833" xlink:href="#id126">June</textPath></text><path d="M 108.59647513512805 119.15986991738527 l 7.509874169490249 16.738047853519635 a39.34558410049378,39.34558410049378 0 0,0 -0.620309973294671,0.2719256630626558 l -7.220643521537824 -16.864838069876747" fill="#ffa10e" stroke="none" /><path d="M 107.93186726928326 119.44442032107085 l 7.2229122992708525 17.706466576053234 a40.123007626726725,40.123007626726725 0 0,0 -0.6417367917918555,0.255360313391971 l -6.917054431437131 -17.828173733851273" fill="#ffac0f" stroke="none" /><path d="M 107.2578585660854 119.70592522655815 l 6.634945652793179 18.014644640111726 a40.19765416203306,40.19765416203306 0 0,0 -0.6513559723766943,0.23355307755880642 l -6.32387011978675 -18.126185258710493" fill="#ffad10" stroke="none" /><path d="M 105.18746579009965 120.34920634021253 l 4.729406387028671 18.55234720198832 a40.145675007081664,40.145675007081664 0 0,0 -0.6710955877620277,0.16493896779737632 l -4.409357514523433 -18.631007428099725" fill="#ffac10" stroke="none" /><path d="M 104.48393922423573 120.51570834832081 l 4.089345441252221 18.710293385514298 a40.15196660162894,40.15196660162894 0 0,0 -0.6764813630504171,0.14176324693230719 l -3.7666726167724263 -18.777912613173147" fill="#ffad10" stroke="none" /><path d="M 103.7750983002368 120.6578951692458 l 3.4460283000635674 18.85717555182654 a40.169459586468356,40.169459586468356 0 0,0 -0.6812568736729823,0.11844523988748171 l -3.1209224549185355 -18.913699370235026" fill="#ffad10" stroke="none" /><path d="M 103.06178313531738 120.77559828337769 l 2.795414765201375 18.968167120440516 a40.173046383359804,40.173046383359804 0 0,0 -0.6849913959431643,0.09493356582190766 l -2.4684947780713804 -19.013475251755025" fill="#ffad10" stroke="none" /><path d="M 102.34483914955558 120.86867818915974 l 2.143009952160598 19.072431921943192 a40.192450366543014,40.192450366543014 0 0,0 -0.6881854768740984,0.07133323849864966 l -1.8143918786808968 -19.1064945288976" fill="#ffad10" stroke="none" /><path d="M 100.90346689309514 120.98055641714683 l 0.8257982003914158 19.17691269586553 a40.194684764606535,40.194684764606535 0 0,0 -0.6915010274431076,0.023816693558362675 l -0.4955768212736558 -19.188286187849986" fill="#ffad10" stroke="none" /><line stroke="#e1ed5e" stroke-width="0.3" x1="102.19456741930631" x2="102.32365962044197" y1="184.97166512339345" y2="189.96999836594603" /><path d="M 102.22038585953345 185.97133177190398 a86.0,86.0 0 0,1 -42.740103519485714,-10.115201625700543" fill="none" id="id127" stroke="none" /><text fill="#e1ed5e" style="font-size:6.75px; font-family:Arial;" text-anchor="middle"><textPath startOffset="22.20632615414155" xlink:href="#id127">July</textPath></text><path d="M 100.18074693466247 120.99922214144158 l 0.2683023609029803 31.171432523580194 a52.17258718375777,52.17258718375777 0 0,0 -0.8980985911308501,0.0 l 0.26830236090295884 -31.171432523580194" fill="#adff20" stroke="none" /><path d="M 99.45781275523022 120.99299961872073 l -0.49416572597335423 19.133649854393802 a40.14003021197382,40.14003021197382 0 0,0 -0.6905607618452908,-0.023784308910013128 l 0.8234468394932881 -19.122308747057694" fill="#ffac10" stroke="none" /><path d="M 98.37488393609728 120.93702456842531 l -1.7065888036532129 21.98667067783399 a43.052803287570484,43.052803287570484 0 0,0 -0.7383672257701974,-0.06370943112670814 l 2.084800347164952 -21.95403699442862" fill="#ffd614" stroke="none" /><path d="M 95.86986931433489 120.58985236759428 l -3.7573517459191015 18.731445474621488 a40.10457384270267,40.10457384270267 0 0,0 -0.6756828886325654,-0.14159591885462852 l 4.079226095981054 -18.66399357504032" fill="#ffac0f" stroke="none" /><path d="M 95.16358092515715 120.4354850818985 l -4.405159506404728 18.613269442421558 a40.127447022879245,40.127447022879245 0 0,0 -0.6707908794772663,-0.16486407791449745 l 4.7249036706252046 -18.534684106193033" fill="#ffac0f" stroke="none" /><path d="M 92.7421414339146 119.70592522655815 l -6.6046455711115515 17.93237641477502 a40.10998343801435,40.10998343801435 0 0,0 -0.6458276116764048,-0.24419674146400452 l 6.912343403548239 -17.816031423204386" fill="#ffac0f" stroke="none" /><path d="M 92.06813273071674 119.44442032107085 l -7.217992959453866 17.6944071570216 a40.10998343801435,40.10998343801435 0 0,0 -0.6370392493172328,-0.2662824578800171 l 7.521503668268561 -17.56753965612161" fill="#ffac0f" stroke="none" /><line stroke="#e1ed5e" stroke-width="0.3" x1="58.666819895761336" x2="56.23545636021788" y1="174.27360380694188" y2="178.64263932499728" /><path d="M 58.180547188652646 175.14741091055294 a86.0,86.0 0 0,1 -31.652253787137756,-30.449443065178592" fill="none" id="id128" stroke="none" /><text fill="#e1ed5e" style="font-size:6.75px; font-family:Arial;" text-anchor="middle"><textPath startOffset="22.20632615414155" xlink:href="#id128">August</textPath></text><path d="M 88.24862548938628 117.40417183066458 l -10.803969334127942 16.00103363011392 a40.3069632672985,40.3069632672985 0 0,0 -0.5716738814725195,-0.39320250847755406 l 11.077800100223353 -15.812690332271263" fill="#ffaf10" stroke="none" /><path d="M 87.65650970185807 116.9893568818739 l -11.830588273493156 16.28340780817426 a41.12739895625424,41.12739895625424 0 0,0 -0.5691542982990159,-0.42104674332405545 l 12.109127542210736 -16.07735111611044" fill="#ffbb11" stroke="none" /><path d="M 86.79598089348748 116.32954008644616 l -13.951478614439266 17.253930599609305 a43.18877816972558,43.18877816972558 0 0,0 -0.5740608618489262,-0.472413007437162 l 14.24640960483288 -17.011222473314962" fill="#ffd814" stroke="none" /><path d="M 86.24171649860922 115.8653595955263 l -12.55425496360607 14.476934526854093 a40.16222719273644,40.16222719273644 0 0,0 -0.5183942288044857,-0.4574226342564881 l 12.801591545317144 -14.258688750825316" fill="#ffad10" stroke="none" /><path d="M 85.70375840098266 115.38237550388516 l -21.2962834860026 22.914234286681154 a52.282484288513615,52.282484288513615 0 0,0 -0.6539397672198881,-0.6183408667686595 l 21.687559087613305 -22.544258783166562" fill="#acff21" stroke="none" /><path d="M 84.9287848128048 114.62390073753433 l -13.752646765451257 13.344467495043467 a40.16272699230328,40.16272699230328 0 0,0 -0.477158917301675,-0.5002992171345936 l 13.980312234131889 -13.105761161326374" fill="#ffad10" stroke="none" /><path d="M 84.43433777217949 114.09645910891817 l -14.214948907776336 12.873236170812582 a40.17772097930849,40.17772097930849 0 0,0 -0.4598266513654807,-0.5166201173979845 l 14.434434408790153 -12.626641883673734" fill="#ffad10" stroke="none" /><path d="M 83.72743513129214 113.27417163493432 l -24.17511977464693 19.72059670819675 a52.19837096141184,52.19837096141184 0 0,0 -0.5619579378233764,-0.7011289324176715 l 24.51099562452517 -19.30153994220082" fill="#adff20" stroke="none" /><path d="M 83.28015986056508 112.70617746262583 l -15.272226488201053 11.606069100553965 a40.18180757576677,40.18180757576677 0 0,0 -0.41375538914693527,-0.5542929587016642 l 15.469743144043074 -11.341463262342993" fill="#ffad10" stroke="none" /><path d="M 82.85270091963577 112.12312394758628 l -15.662747799720817 11.073547620875024 a40.18189577569032,40.18189577569032 0 0,0 -0.39443140684316613,-0.5682078596420005 l 15.851040113726118 -10.80229849904601" fill="#ffad10" stroke="none" /><path d="M 82.24976979558568 111.22182372390057 l -30.665619028788367 19.38702581106657 a57.279980157350536,57.279980157350536 0 0,0 -0.5197076980520534,-0.8379342877934741 l 30.994791366508377 -18.856295191907833" fill="#6fff28" stroke="none" /><line stroke="#e1ed5e" stroke-width="0.3" x1="26.63291911575756" x2="22.317208475507996" y1="142.92168965132927" y2="145.44649492493687" /><path d="M 25.769776987707644 143.4266507060508 a86.0,86.0 0 0,1 -11.730757126820373,-40.83630448921669" fill="none" id="id129" stroke="none" /><text fill="#e1ed5e" style="font-size:6.75px; font-family:Arial;" text-anchor="middle"><textPath startOffset="21.46611528233685" xlink:href="#id129">September</textPath></text><path d="M 81.87401531095188 110.60418214915194 l -18.015309939252877 10.539434482954814 a41.87177691112667,41.87177691112667 0 0,0 -0.3585978807151958,-0.6252456313322707 l 18.19405981612045 -10.227769005764236" fill="#ffc512" stroke="none" /><path d="M 81.51974371655577 109.97397251340807 l -17.998427139036682 9.713924678098275 a41.45247447452212,41.45247447452212 0 0,0 -0.33349007573059264,-0.6308375442658519 l 18.16296972299216 -9.402672118746297" fill="#ffbf11" stroke="none" /><path d="M 81.02952815118164 109.00673069616217 l -41.30702083488426 19.611595087643323 a66.72619197063362,66.72619197063362 0 0,0 -0.48368667331185633,-1.0418180635272103 l 41.63848212503595 -18.897656956837285" fill="#35ff63" stroke="none" /><path d="M 80.73074385275274 108.34839909993369 l -18.919491189728667 8.196863543282028 a41.618819530356404,41.618819530356404 0 0,0 -0.2791414235611984,-0.6598078682551638 l 19.057783594482174 -7.869981149360704" fill="#ffc212" stroke="none" /><path d="M 80.45479744820244 107.68017299344265 l -16.89539007261183 6.638944682485193 a39.152955467438595,39.152955467438595 0 0,0 -0.24108100536954308,-0.6293864311732444 l 17.00716535757488 -6.347134684478791" fill="#ff9e0e" stroke="none" /><path d="M 80.0844068197444 106.66101706037122 l -50.694923247520485 16.955545615418615 a74.45526887210029,74.45526887210029 0 0,0 -0.3960585945562974,-1.2189430162226902 l 50.97927409309303 -16.08040369921812" fill="#40ffc3" stroke="none" /><path d="M 79.86692584326677 105.97154293290107 l -19.553357553065528 5.799596882299584 a41.3953209240552,41.3953209240552 0 0,0 -0.1967408488896872,-0.684880704959579 l 19.65029103884132 -5.462158701835409" fill="#ffbf11" stroke="none" /><path d="M 79.67330655649465 105.27499134158121 l -25.067990858432864 6.505408028934518 a46.898349354763894,46.898349354763894 0 0,0 -0.19605449769456726,-0.7831402617586185 l 25.17625667042249 -6.072939927778508" fill="#f2ff19" stroke="none" /><path d="M 79.35854240842038 103.8639653848113 l -43.83086284980755 8.204892318610097 a65.59220555342185,65.59220555342185 0 0,0 -0.19819327605637332,-1.1115731454531241 l 43.96560256820311 -7.44920042242376" fill="#33ff54" stroke="none" /><path d="M 79.23777060512086 103.15116336523772 l -22.5640889844911 3.4246385214985384 a43.82249462050466,43.82249462050466 0 0,0 -0.10677235828943361,-0.7467656251934348 l 22.619695393797134 -3.035727424324703" fill="#ffe115" stroke="none" /><path d="M 79.1416061653843 102.43462659150553 l -22.190566843577866 2.5901200517317324 a43.3412170376119,43.3412170376119 0 0,0 -0.08011458550207104,-0.7417615627289365 l 22.23186373058099 -2.207762167118014" fill="#ffda14" stroke="none" /><path d="M 79.04373962182676 101.35467743843564 l -23.511361387033332 1.5198470644645312 a44.560433980957214,44.560433980957214 0 0,0 -0.0428918560376372,-0.7658629026711872 l 23.5340395939585 -1.1149124454579065" fill="#ffec16" stroke="none" /><path d="M 79.0095281055655 100.63252640178507 l -20.429559393136415 0.6156238772517221 a41.43883288634483,41.43883288634483 0 0,0 -0.015348030695068649,-0.7131626774712357 l 20.43712948651649 -0.2638713839903574" fill="#ffbf11" stroke="none" /><line stroke="#e1ed5e" stroke-width="0.3" x1="15.007084014347285" x2="10.007500721073583" y1="101.09737516637583" y2="101.16192664675087" /><path d="M 14.007167355692545 101.11028546245083 a86.0,86.0 0 0,1 10.666146001902534,-42.60595125391555" fill="none" id="id130" stroke="none" /><text fill="#e1ed5e" style="font-size:6.75px; font-family:Arial;" text-anchor="middle"><textPath startOffset="22.20632615414155" xlink:href="#id130">October</textPath></text><path d="M 79.16333360222342 97.38593545837743 l -29.475156015830933 -3.697806488277721 a50.70620465462263,50.70620465462263 0 0,0 0.11610272344697826,-0.8651001462508039 l 29.407137293326123 4.204624976593184" fill="#c0ff1e" stroke="none" /><path d="M 79.26566170972629 96.67025291283419 l -43.56175368996005 -6.995623416109711 a65.11989496275768,65.11989496275768 0 0,0 0.18726043975235915,-1.1052217156241602 l 43.43488138868747 7.7444309200497" fill="#33ff4e" stroke="none" /><path d="M 79.3925641242962 95.95851677861259 l -21.223353133019998 -4.16227550608602 a42.627650256036446,42.627650256036446 0 0,0 0.14741190357536804,-0.7188327941054702 l 21.148561933529635 4.5269839563548935" fill="#ffd013" stroke="none" /><path d="M 79.54389044137918 95.25157060432595 l -28.98889232043872 -6.7291245213530955 a50.75965380830003,50.75965380830003 0 0,0 0.20489303395524108,-0.8494139040044273 l 28.868766486222665 7.22712365701692" fill="#bfff1e" stroke="none" /><path d="M 79.81627453868168 94.20196356495316 l -54.931781807470166 -15.779865464983025 a78.15334466710128,78.15334466710128 0 0,0 0.3825572834654399,-1.2897929804326846 l 54.65201862689302 16.72308783216225" fill="#45ffee" stroke="none" /><path d="M 80.02781315780177 93.51064311812611 l -22.390024343251188 -7.274959908256549 a44.54226479670384,44.54226479670384 0 0,0 0.24320650586306555,-0.7271564966222028 l 22.26148054361635 7.659289507801073" fill="#ffeb16" stroke="none" /><path d="M 80.2630227832202 92.82701384747504 l -22.486519971927535 -8.172249205414461 a44.92549346457233,44.92549346457233 0 0,0 0.2703988682486695,-0.7245345330471514 l 22.342516515177238 8.558106875490955" fill="#fff116" stroke="none" /><path d="M 80.65960295795068 91.81776055985345 l -23.75286096482419 -10.04899720414985 a46.79109824771486,46.79109824771486 0 0,0 0.32020550070764225,-0.7390784435475949 l 23.576364754273868 10.456374792284045" fill="#f4ff19" stroke="none" /><path d="M 80.95270993114464 91.15688171328213 l -18.886884089468683 -8.768646325379256 a41.823149353270566,41.823149353270566 0 0,0 0.30877793404558335,-0.6503650772909179 l 18.73314796158135 9.092453818310705" fill="#ffc512" stroke="none" /><path d="M 81.26839172434947 90.50648371742162 l -26.248119130735592 -13.303019296993144 a50.42675789680983,50.42675789680983 0 0,0 0.3990691180365963,-0.7708745148976186 l 26.015240579538883 13.752866534151098" fill="#c4ff1e" stroke="none" /><line stroke="#e1ed5e" stroke-width="0.3" x1="26.266209847984243" x2="21.928928074336255" y1="57.711370442889674" y2="55.22380399835377" /><path d="M 25.398753493254645 57.213857153982495 a86.0,86.0 0 0,1 29.58750427330803,-30.492523968695096" fill="none" id="id131" stroke="none" /><text fill="#e1ed5e" style="font-size:6.75px; font-family:Arial;" text-anchor="middle"><textPath startOffset="21.46611528233685" xlink:href="#id131">November</textPath></text><path d="M 81.78341655067845 89.55222093294921 l -51.092437231569264 -29.30310712091715 a79.89914455407472,79.89914455407472 0 0,0 0.6945150407830172,-1.1871513350563685 l 50.58046251631592 30.17823786832741" fill="#47fdff" stroke="none" /><path d="M 82.34701348167596 88.62581576622439 l -16.862224026294744 -10.864679609152196 a41.05930861526586,41.05930861526586 0 0,0 0.3879192847212514,-0.5908276842428332 l 16.672708106215573 11.153325357372696" fill="#ffba11" stroke="none" /><path d="M 82.54541684631803 88.32363383020206 l -6.719715453417184 -4.49520091657976 a29.084640193311834,29.084640193311834 0 0,0 0.28194862705647084,-0.41372481957213464 l 6.641342360691972 4.61020375942231" fill="#ff0000" stroke="none" /><path d="M 83.6137871275137 86.86637796730984 l -13.775647816024245 -11.04124260309724 a38.654390699528065,38.654390699528065 0 0,0 0.4205993601290681,-0.5156050832900918 l 13.583549963818784 11.276731855995415" fill="#ff960d" stroke="none" /><path d="M 84.31358615837235 86.03803664274999 l -13.629477092471994 -12.131151304868746 a39.246300386539666,39.246300386539666 0 0,0 0.45349354148032484,-0.5007588951692881 l 13.418639910375624 12.36396298730759" fill="#ff9f0e" stroke="none" /><path d="M 85.31137513191541 84.99185889309783 l -12.438930742406873 -12.709510214714182 a38.7836623874926,38.7836623874926 0 0,0 0.4811330440962031,-0.46284960721933116 l 12.218314454698243 12.921742908695826" fill="#ff980e" stroke="none" /><path d="M 86.10567301691215 84.25364557470407 l -12.071197416086116 -13.680213016634086 a39.244506988093946,39.244506988093946 0 0,0 0.5103770584523091,-0.44259395575079147 l 11.833926558987034 13.885971965804558" fill="#ff9f0e" stroke="none" /><path d="M 86.93701828274178 83.55741782278169 l -39.18894515177469 -49.32774653165494 a84.0,84.0 0 0,0 1.1398697793622974,-0.889686443107113 l 38.334042817252964 49.99501136398527" fill="#4dd2ff" stroke="none" /><line stroke="#e1ed5e" stroke-width="0.3" x1="56.762969772571076" x2="54.21961505331055" y1="26.818313649435495" y2="22.513508569990535" /><path d="M 56.25429882871897 25.957352633546506 a86.0,86.0 0 0,1 42.265352541879196,-11.944610805530505" fill="none" id="id132" stroke="none" /><text fill="#e1ed5e" style="font-size:6.75px; font-family:Arial;" text-anchor="middle"><textPath startOffset="22.20632615414155" xlink:href="#id132">December</textPath></text><path d="M 89.3179101791058 81.91981866633112 l -7.715254462410928 -13.058605764851217 a36.16747625485391,36.16747625485391 0 0,0 0.5387287976667261,-0.31206649214636734 l 7.489328932278882 13.189476414387633" fill="#ff710a" stroke="none" /><path d="M 89.63071344664047 81.73862282372117 l -7.268859426512235 -12.801207001641187 a35.72097884181834,35.72097884181834 0 0,0 0.5373046062332169,-0.29900943164143307 l 7.0474307312069735 12.924431830842805" fill="#ff6a09" stroke="none" /><path d="M 89.94658935756843 81.56283822128135 l -7.536528735076334 -13.821398974005945 a36.74262795638911,36.74262795638911 0 0,0 0.5578842346410589,-0.298002437390696 l 7.29749945390697 13.94908013789839" fill="#ff7a0b" stroke="none" /><path d="M 90.26544431104013 81.39251694778311 l -7.296940690894681 -13.948012069296846 a36.74142255743378,36.74142255743378 0 0,0 0.5629127323297115,-0.2883457651484199 l 7.055767470976206 14.071550359757772" fill="#ff7a0b" stroke="none" /><path d="M 90.58718382345135 81.22770947309562 l -8.6441694113376 -17.239352868453526 a40.28514848620465,40.28514848620465 0 0,0 0.6225565807868976,-0.30548581045858425 l 8.346141563540277 17.38559383904694" fill="#ffae10" stroke="none" /><path d="M 90.91171255644093 81.06846463323043 l -8.48069354253045 -17.665874977241636 a40.59605321675387,40.59605321675387 0 0,0 0.6325672927505945,-0.29699882574776937 l 8.175348038480248 17.80923878562941" fill="#ffb310" stroke="none" /><path d="M 91.23893434514133 80.91482961587045 l -8.170527704334566 -17.798738133984628 a40.5844990267675,40.5844990267675 0 0,0 0.6374044520045579,-0.28598479772063373 l 7.8629411338632345 17.93674326222179" fill="#ffb310" stroke="none" /><path d="M 91.56875222667455 80.76684994638697 l -6.023989785784621 -13.741773766628404 a36.00415939639519,36.00415939639519 0 0,0 0.5697508073585149,-0.24393756162962835 l 5.7865552206357975 13.843430856220818" fill="#ff6e0a" stroke="none" /><path d="M 91.90106846888425 80.62456947434976 l -5.6825131967842255 -13.594526541233176 a35.734385230199464,35.734385230199464 0 0,0 0.5695654831852617,-0.2323400615288624 l 5.447663844010584 13.690327488945616" fill="#ff6a09" stroke="none" /><path d="M 92.23578459929587 80.48803036053334 l -6.008322010720924 -15.099297302686113 a37.25080651596768,37.25080651596768 0 0,0 0.5978166149152792,-0.23194355894876956 l 5.747522230805969 15.200483565525435" fill="#ff810b" stroke="none" /><path d="M 92.57280143429618 80.3572730644239 l -7.282298008439985 -19.25950814130701 a41.59030155507199,41.59030155507199 0 0,0 0.6718173982823337,-0.24743601748763444 l 6.949698284385081 19.382007426600964" fill="#ffc112" stroke="none" /><path d="M 92.91201910852362 80.23233633223022 l -5.006325873393244 -13.962137820588568 a35.83255174512182,35.83255174512182 0 0,0 0.5823949881401718,-0.20318617573675005 l 4.7652488811897875 14.046244849497528" fill="#ff6c09" stroke="none" /><path d="M 93.25333710446033 80.11325718540243 l -9.259681551129678 -27.294220624856052 a49.822147420805564,49.822147420805564 0 0,0 0.8145142401111234,-0.268532538855638 l 8.788484488776145 27.449566887970924" fill="#cbff1d" stroke="none" /><path d="M 93.59665428221793 80.00007090966166 l -5.068672766937876 -15.831270149817726 a37.62289259349309,37.62289259349309 0 0,0 0.6184748973431906,-0.19216316118606233 l 4.795412496883957 15.916173445886313" fill="#ff870c" stroke="none" /><path d="M 93.94186890950719 79.89281104454417 l -4.3652710227336255 -14.48851601009856 a36.131843485735644,36.131843485735644 0 0,0 0.5970525305350736,-0.17429600592157365 l 4.115228274475131 14.561510344938833" fill="#ff700a" stroke="none" /><path d="M 94.28887869178378 79.79150937346287 l -4.079544077243439 -14.435243763237143 a36.000631399452786,36.000631399452786 0 0,0 0.5977855313460914,-0.16339736719615766 l 3.830460656673625 14.503327671259596" fill="#ff6e0a" stroke="none" /><path d="M 94.63758080256005 79.69619591428918 l -3.8918485059592753 -14.73576135822947 a36.24103499110301,36.24103499110301 0 0,0 0.6045196391542521,-0.15410551621166135 l 3.6376199781200236 14.800569870609992" fill="#ff720a" stroke="none" /><path d="M 94.98787191387505 79.60689891045804 l -3.542708398086631 -14.414398285820035 a35.84337093574519,35.84337093574519 0 0,0 0.6004213749814624,-0.1421003406215182 l 3.2940633361426346 14.473244538582424" fill="#ff6c09" stroke="none" /><path d="M 95.33964822691252 79.52364482259891 l -3.319945975388386 -14.586966021408053 a35.960000634666116,35.960000634666116 0 0,0 0.6047398030274449,-0.13217269797429698 l 3.0683634482074202 14.641952217478217" fill="#ff6e0a" stroke="none" /><path d="M 95.692805502759 79.44645832069477 l -4.5614140848261195 -21.766654505408948 a43.2394637257981,43.2394637257981 0 0,0 0.7297865895738158,-0.14638832439272373 l 4.186061085785168 21.841946785878882" fill="#ffd914" stroke="none" /><path d="M 96.04723909329186 79.375362276772 l -3.4060081134576667 -17.77180180648516 a39.0952433174558,39.0952433174558 0 0,0 0.6620218697788947,-0.12098026516479582 l 3.0995911225758785 17.827797553000693" fill="#ff9d0e" stroke="none" /></svg>